<svg xmlns="http://www.w3.org/2000/svg" xmlns:xlink="http://www.w3.org/1999/xlink" viewBox="0 0 800 600"><defs><style>.cls-1{isolation:isolate;}.cls-2{fill:#f1f1f5;}.cls-3{fill:#282f39;}.cls-4{opacity:0.34;fill:url(#linear-gradient);}.cls-5{fill:#da5970;}.cls-6{fill:url(#linear-gradient-2);}.cls-7{fill:url(#linear-gradient-3);}.cls-14,.cls-17,.cls-18,.cls-19,.cls-20,.cls-8{opacity:0.2;}.cls-8{fill:url(#linear-gradient-4);}.cls-9{fill:url(#linear-gradient-5);}.cls-10{fill:url(#linear-gradient-6);}.cls-11,.cls-23{fill:#fff;}.cls-11{mix-blend-mode:lighten;}.cls-12{fill:url(#linear-gradient-7);}.cls-13{fill:url(#linear-gradient-8);}.cls-14{fill:url(#linear-gradient-9);}.cls-15{fill:url(#linear-gradient-10);}.cls-16{fill:url(#linear-gradient-11);}.cls-17{fill:url(#linear-gradient-12);}.cls-18{fill:url(#linear-gradient-13);}.cls-19{fill:url(#linear-gradient-14);}.cls-20{fill:url(#linear-gradient-15);}.cls-21{fill:#f3f3f2;}.cls-22{fill:#33334b;}</style><linearGradient id="linear-gradient" x1="259.83" y1="558.4" x2="272.09" y2="404.67" gradientUnits="userSpaceOnUse"><stop offset="0" stop-color="#e67a7a"/><stop offset="1" stop-color="#da5970"/></linearGradient><linearGradient id="linear-gradient-2" x1="234.94" y1="315.29" x2="575.53" y2="315.29" gradientUnits="userSpaceOnUse"><stop offset="0" stop-color="#e65151"/><stop offset="1" stop-color="#e24358"/></linearGradient><linearGradient id="linear-gradient-3" x1="234.94" y1="350.83" x2="503.17" y2="350.83" gradientUnits="userSpaceOnUse"><stop offset="0" stop-color="#e67a7a"/><stop offset="1" stop-color="#e24358"/></linearGradient><linearGradient id="linear-gradient-4" x1="306.08" y1="281.67" x2="574.3" y2="281.67" gradientUnits="userSpaceOnUse"><stop offset="0" stop-color="#282f39"/><stop offset="1" stop-color="#282f39" stop-opacity="0.4"/></linearGradient><linearGradient id="linear-gradient-5" x1="307.33" y1="279.78" x2="575.56" y2="279.78" xlink:href="#linear-gradient-3"/><linearGradient id="linear-gradient-6" x1="430.1" y1="331.48" x2="465.43" y2="384.46" xlink:href="#linear-gradient-4"/><linearGradient id="linear-gradient-7" x1="215.59" y1="326.47" x2="573.28" y2="326.47" gradientUnits="userSpaceOnUse"><stop offset="0" stop-color="#e24358"/><stop offset="1" stop-color="#e24358"/></linearGradient><linearGradient id="linear-gradient-8" x1="476.52" y1="197.02" x2="578.39" y2="197.02" xlink:href="#linear-gradient-7"/><linearGradient id="linear-gradient-9" x1="18621.64" y1="293.27" x2="18918.57" y2="293.27" gradientTransform="matrix(-1, 0, 0, 1, 19136.12, 0)" xlink:href="#linear-gradient-4"/><linearGradient id="linear-gradient-10" x1="18623.52" y1="291.38" x2="18920.46" y2="291.38" gradientTransform="matrix(-1, 0, 0, 1, 19136.12, 0)" gradientUnits="userSpaceOnUse"><stop offset="0" stop-color="#f04f65"/><stop offset="1" stop-color="#e38091"/></linearGradient><linearGradient id="linear-gradient-11" x1="18557.71" y1="354.28" x2="18850.04" y2="354.28" xlink:href="#linear-gradient-10"/><linearGradient id="linear-gradient-12" x1="567.03" y1="154.23" x2="507.61" y2="221.2" xlink:href="#linear-gradient-4"/><linearGradient id="linear-gradient-13" x1="438.33" y1="40.03" x2="378.91" y2="107" xlink:href="#linear-gradient-4"/><linearGradient id="linear-gradient-14" x1="660.08" y1="-32.42" x2="568.28" y2="71.04" xlink:href="#linear-gradient-4"/><linearGradient id="linear-gradient-15" x1="674.28" y1="249.39" x2="614.86" y2="316.36" xlink:href="#linear-gradient-4"/></defs><title>Ресурс 1</title><g class="cls-1"><g id="Слой_2" data-name="Слой 2"><g id="Слой_44" data-name="Слой 44"><rect class="cls-2" width="800" height="600"/><polygon class="cls-3" points="321.84 430.3 215.8 429.26 235.29 227.41 340.71 225.63 321.84 430.3"/><polygon class="cls-4" points="321.84 430.3 215.8 429.26 235.29 227.41 340.71 225.63 321.84 430.3"/><g id="Page-16"><g id="Artboard-1"><g id="header"><g id="logo-2"><path id="Shape" class="cls-5" d="M484.09,314,315.27,148.4l-80.33,78.72,92,90.1-111.35,112,78,75.31L484.09,314.29"/><path id="Shape-2" data-name="Shape" class="cls-5" d="M404.84,392.58l90.36,89.61,80.33-78.72L484.3,314.08l-79.46,78.5"/><path id="Shape-3" data-name="Shape" class="cls-5" d="M405.59,238.94l77.61,75.72,88.19-89.45L495.2,148.4,405,238.84"/></g></g></g></g><polygon class="cls-6" points="234.94 227.12 315.27 148.4 575.53 403.47 495.2 482.19 234.94 227.12"/><polygon class="cls-7" points="234.94 227.12 242.9 219.47 503.17 474.54 495.2 482.19 234.94 227.12"/><polygon class="cls-8" points="306.08 157.96 314.04 150.31 574.3 405.38 566.34 413.03 306.08 157.96"/><polygon class="cls-9" points="307.33 156.08 315.3 148.43 575.56 403.49 567.6 411.14 307.33 156.08"/><polygon class="cls-10" points="404.68 393.5 484.72 313.25 429.44 417.87 404.68 393.5"/><polygon class="cls-11" points="470.93 375.93 348.19 255.63 343.02 260.83 465.76 381.12 470.93 375.93"/><polygon class="cls-11" points="305.12 223.69 335.13 253.1 340.3 247.91 310.29 218.49 305.12 223.69"/><polygon class="cls-11" points="504.65 408.97 478.82 383.65 473.64 388.85 499.48 414.17 504.65 408.97"/><polygon class="cls-11" points="507.36 421.89 532.1 446.13 537.33 441 512.53 416.7 507.36 421.89"/><polygon class="cls-11" points="302.41 210.77 277.07 185.93 271.83 191.07 297.24 215.96 302.41 210.77"/><polygon class="cls-12" points="215.59 429.23 495.2 148.4 573.28 224.58 293.64 504.54 215.59 429.23"/><polygon class="cls-13" points="476.52 146.09 578.39 146.09 578.39 247.96 476.52 146.09"/><polygon class="cls-14" points="503.9 158.45 514.49 148.1 478.49 147.95 488.94 158.48 217.55 430.94 225.51 438.59 503.9 158.45"/><polygon class="cls-15" points="502.01 156.57 512.6 146.22 476.6 146.06 487.05 156.59 215.66 429.05 223.62 436.7 502.01 156.57"/><polygon class="cls-16" points="564.11 233.6 578.36 247.85 578.41 203.94 557.03 224.69 286.09 496.96 294.05 504.61 564.11 233.6"/><polygon class="cls-11" points="283.83 430.86 309.59 405.47 314.78 410.65 289.02 436.04 283.83 430.86"/><polygon class="cls-11" points="281.16 443.79 256.5 468.11 251.25 462.99 275.97 438.61 281.16 443.79"/><polygon class="cls-11" points="352.39 363.58 378.14 338.19 383.33 343.37 357.57 368.76 352.39 363.58"/><polygon class="cls-11" points="349.71 376.51 325.05 400.83 319.8 395.71 344.53 371.33 349.71 376.51"/><polygon class="cls-11" points="421.77 295.26 447.53 269.86 452.72 275.05 426.96 300.44 421.77 295.26"/><polygon class="cls-11" points="419.1 308.19 394.44 332.5 389.19 327.38 413.91 303.01 419.1 308.19"/><polygon class="cls-11" points="489.07 229.24 514.83 203.85 520.02 209.03 494.26 234.42 489.07 229.24"/><polygon class="cls-11" points="486.4 242.17 461.74 266.49 456.48 261.37 481.21 236.99 486.4 242.17"/><ellipse class="cls-17" cx="535.56" cy="189.7" rx="32.19" ry="29.46"/><ellipse class="cls-18" cx="275.03" cy="224.07" rx="13.84" ry="12.66"/><ellipse class="cls-19" cx="272.72" cy="404.13" rx="21.38" ry="19.56"/><ellipse class="cls-20" cx="531.58" cy="410.2" rx="13.84" ry="12.66"/><path class="cls-21" d="M299.19,359.5c0,15.5-28.07,45.63-28.07,45.63S243,375,243,359.5a28.08,28.08,0,0,1,56.15,0Z"/><circle class="cls-22" cx="271.12" cy="357.75" r="12.5"/><path class="cls-22" d="M576.93,121.83c0,23.44-42.44,69-42.44,69S492,145.27,492,121.83a42.45,42.45,0,0,1,84.89,0Z"/><circle class="cls-23" cx="534.49" cy="119.18" r="18.9"/><path class="cls-23" d="M297.93,184.68c0,13.12-23.76,38.62-23.76,38.62s-23.76-25.5-23.76-38.62a23.76,23.76,0,1,1,47.52,0Z"/><circle class="cls-22" cx="274.17" cy="183.19" r="10.58"/><path class="cls-21" d="M555.42,372c0,13.13-23.76,38.63-23.76,38.63S507.9,385.08,507.9,372a23.76,23.76,0,1,1,47.52,0Z"/><circle class="cls-22" cx="531.66" cy="370.47" r="10.58"/></g></g></g></svg>