<svg width="953" height="406" viewBox="0 0 953 406" fill="none" xmlns="http://www.w3.org/2000/svg">
<path opacity="0.1" d="M288.292 284.818L132.901 65.6993V237.809C132.901 243.507 133.42 248.04 134.457 251.407C135.624 254.774 137.115 257.364 138.93 259.177C140.746 260.99 142.885 262.22 145.348 262.868C147.941 263.386 150.599 263.645 153.322 263.645H170.047V284.818H66V263.645H82.7254C85.5777 263.645 88.2357 263.386 90.6991 262.868C93.1625 262.22 95.3018 260.99 97.117 259.177C99.0618 257.364 100.553 254.774 101.59 251.407C102.627 248.04 103.146 243.507 103.146 237.809V46.0796C103.146 40.77 102.562 36.5612 101.396 33.4531C100.358 30.2155 98.8673 27.755 96.9225 26.0714C95.1073 24.3879 92.968 23.2871 90.5046 22.7691C88.0412 22.1216 85.4481 21.7978 82.7254 21.7978H66V0.818359H154.489L295.099 199.346V46.0796C295.099 40.77 294.515 36.5612 293.348 33.4531C292.311 30.2155 290.82 27.755 288.875 26.0714C287.06 24.3879 284.921 23.2871 282.457 22.7691C279.994 22.1216 277.401 21.7978 274.678 21.7978H257.953V0.818359H362V21.7978H345.275C342.552 21.7978 339.959 22.1216 337.495 22.7691C335.032 23.2871 332.828 24.4527 330.883 26.2657C329.068 28.0787 327.642 30.6688 326.604 34.0359C325.567 37.4029 325.049 41.9356 325.049 47.6337V284.818H288.292Z" fill="white"/>
<path d="M27.0285 230.818V227.542H28.0425C29.8105 227.542 31.3185 227.23 32.5665 226.606C33.8145 225.93 34.4385 224.37 34.4385 221.926V183.706C34.4385 181.418 33.7885 179.962 32.4885 179.338C31.2405 178.714 29.7585 178.402 28.0425 178.402H27.0285V175.126H41.3025L69.2265 218.26V183.706C69.2265 181.418 68.5765 179.962 67.2765 179.338C66.0285 178.714 64.5465 178.402 62.8305 178.402H61.8165V175.126H81.3945V178.402H80.3805C78.6125 178.402 77.1045 178.74 75.8565 179.416C74.6085 180.04 73.9845 181.574 73.9845 184.018V230.818H68.4465L39.1965 185.89V221.926C39.1965 224.37 39.8205 225.93 41.0685 226.606C42.3165 227.23 43.8245 227.542 45.5925 227.542H46.6065V230.818H27.0285ZM105.941 231.598C100.325 231.598 95.9047 229.804 92.6807 226.216C89.4567 222.628 87.8447 217.168 87.8447 209.836C87.8447 202.556 89.3787 197.148 92.4467 193.612C95.5667 190.024 100.143 188.23 106.175 188.23C111.791 188.23 116.211 190.024 119.435 193.612C122.659 197.148 124.271 202.556 124.271 209.836C124.271 217.168 122.711 222.628 119.591 226.216C116.523 229.804 111.973 231.598 105.941 231.598ZM106.097 227.542C109.997 227.542 112.727 226.06 114.287 223.096C115.899 220.08 116.705 215.66 116.705 209.836C116.705 204.012 115.899 199.644 114.287 196.732C112.675 193.82 109.919 192.364 106.019 192.364C102.119 192.364 99.3627 193.82 97.7507 196.732C96.1907 199.644 95.4107 204.012 95.4107 209.836C95.4107 215.66 96.2167 220.08 97.8287 223.096C99.4407 226.06 102.197 227.542 106.097 227.542ZM147.292 231.598C143.34 231.598 140.454 230.714 138.634 228.946C136.866 227.126 135.982 223.98 135.982 219.508V193.456H130.054V190.336C130.99 190.336 132.03 190.154 133.174 189.79C134.318 189.374 135.306 188.724 136.138 187.84C137.022 186.904 137.75 185.76 138.322 184.408C138.894 183.056 139.362 181.392 139.726 179.416H143.314V189.01H153.532V193.456H143.314V219.742C143.314 222.394 143.86 224.344 144.952 225.592C146.044 226.84 147.474 227.464 149.242 227.464C150.178 227.464 151.036 227.412 151.816 227.308C152.596 227.204 153.402 227.074 154.234 226.918V230.35C153.558 230.662 152.544 230.948 151.192 231.208C149.84 231.468 148.54 231.598 147.292 231.598ZM178.38 231.598C172.764 231.598 168.344 229.804 165.12 226.216C161.896 222.628 160.284 217.168 160.284 209.836C160.284 202.556 161.818 197.148 164.886 193.612C168.006 190.024 172.582 188.23 178.614 188.23C184.23 188.23 188.65 190.024 191.874 193.612C195.098 197.148 196.71 202.556 196.71 209.836C196.71 217.168 195.15 222.628 192.03 226.216C188.962 229.804 184.412 231.598 178.38 231.598ZM178.536 227.542C182.436 227.542 185.166 226.06 186.726 223.096C188.338 220.08 189.144 215.66 189.144 209.836C189.144 204.012 188.338 199.644 186.726 196.732C185.114 193.82 182.358 192.364 178.458 192.364C174.558 192.364 171.802 193.82 170.19 196.732C168.63 199.644 167.85 204.012 167.85 209.836C167.85 215.66 168.656 220.08 170.268 223.096C171.88 226.06 174.636 227.542 178.536 227.542ZM240.539 231.598C235.443 231.598 231.569 230.584 228.917 228.556C226.317 226.528 225.017 223.876 225.017 220.6C225.017 219.04 225.511 217.792 226.499 216.856C227.487 215.868 228.865 215.374 230.633 215.374C230.737 217.506 231.153 219.534 231.881 221.458C232.609 223.33 233.727 224.864 235.235 226.06C236.743 227.204 238.719 227.776 241.163 227.776C244.647 227.776 247.377 226.944 249.353 225.28C251.329 223.564 252.317 221.12 252.317 217.948C252.317 216.024 251.927 214.412 251.147 213.112C250.419 211.76 249.171 210.512 247.403 209.368C245.687 208.224 243.295 207.028 240.227 205.78C235.391 203.804 231.777 201.49 229.385 198.838C227.045 196.186 225.875 192.728 225.875 188.464C225.875 185.5 226.603 182.978 228.059 180.898C229.567 178.766 231.595 177.154 234.143 176.062C236.743 174.918 239.681 174.346 242.957 174.346C247.585 174.346 251.173 175.23 253.721 176.998C256.269 178.766 257.543 180.794 257.543 183.082C257.543 184.746 256.971 186.02 255.827 186.904C254.735 187.736 253.253 188.152 251.381 188.152C251.381 186.54 251.095 184.98 250.523 183.472C250.003 181.964 249.093 180.716 247.793 179.728C246.545 178.74 244.829 178.246 242.645 178.246C239.629 178.246 237.289 179.052 235.625 180.664C233.961 182.276 233.129 184.434 233.129 187.138C233.129 189.218 233.493 190.986 234.221 192.442C235.001 193.846 236.275 195.12 238.043 196.264C239.811 197.356 242.203 198.526 245.219 199.774C249.795 201.646 253.357 203.804 255.905 206.248C258.453 208.692 259.727 211.916 259.727 215.92C259.727 220.86 257.985 224.708 254.501 227.464C251.069 230.22 246.415 231.598 240.539 231.598ZM286.087 231.598C280.419 231.598 275.973 229.726 272.749 225.982C269.577 222.238 267.991 216.986 267.991 210.226C267.991 202.946 269.499 197.46 272.515 193.768C275.531 190.076 279.795 188.23 285.307 188.23C290.351 188.23 294.303 189.79 297.163 192.91C300.075 196.03 301.531 200.684 301.531 206.872V210.46H275.557C275.661 216.128 276.675 220.262 278.599 222.862C280.575 225.41 283.435 226.684 287.179 226.684C289.883 226.684 292.171 226.138 294.043 225.046C295.967 223.902 297.397 222.628 298.333 221.224C298.697 221.38 299.035 221.692 299.347 222.16C299.659 222.628 299.815 223.2 299.815 223.876C299.815 224.916 299.321 226.034 298.333 227.23C297.345 228.426 295.837 229.466 293.809 230.35C291.781 231.182 289.207 231.598 286.087 231.598ZM275.713 206.248H293.653C293.653 202.088 293.003 198.76 291.703 196.264C290.455 193.716 288.271 192.442 285.151 192.442C282.291 192.442 280.055 193.638 278.443 196.03C276.883 198.37 275.973 201.776 275.713 206.248ZM308.017 230.818V227.542H308.251C310.019 227.542 311.527 227.23 312.775 226.606C314.023 225.93 314.647 224.37 314.647 221.926V197.59C314.647 195.302 313.997 193.846 312.697 193.222C311.449 192.598 309.967 192.286 308.251 192.286H308.017V189.01H320.029L321.511 196.732H321.901C322.577 195.172 323.305 193.742 324.085 192.442C324.865 191.142 325.905 190.128 327.205 189.4C328.505 188.62 330.299 188.23 332.587 188.23C335.447 188.23 337.553 188.724 338.905 189.712C340.309 190.7 341.011 192.104 341.011 193.924C341.011 195.536 340.439 196.862 339.295 197.902C338.203 198.942 336.357 199.462 333.757 199.462C333.757 197.33 333.445 195.796 332.821 194.86C332.197 193.872 331.131 193.378 329.623 193.378C328.167 193.378 326.945 193.95 325.957 195.094C324.969 196.238 324.189 197.694 323.617 199.462C323.045 201.23 322.629 203.076 322.369 205C322.109 206.872 321.979 208.562 321.979 210.07V222.316C321.979 224.604 322.603 226.06 323.851 226.684C325.151 227.256 326.659 227.542 328.375 227.542H330.559V230.818H308.017ZM354.716 181.21C353.468 181.21 352.402 180.846 351.518 180.118C350.686 179.39 350.27 178.142 350.27 176.374C350.27 174.554 350.686 173.306 351.518 172.63C352.402 171.902 353.468 171.538 354.716 171.538C355.912 171.538 356.952 171.902 357.836 172.63C358.72 173.306 359.162 174.554 359.162 176.374C359.162 178.142 358.72 179.39 357.836 180.118C356.952 180.846 355.912 181.21 354.716 181.21ZM343.952 230.818V227.542H344.966C346.682 227.542 348.164 227.256 349.412 226.684C350.712 226.06 351.362 224.604 351.362 222.316V197.59C351.362 195.302 350.712 193.846 349.412 193.222C348.164 192.598 346.682 192.286 344.966 192.286H344.732V189.01H358.694V221.926C358.694 224.37 359.318 225.93 360.566 226.606C361.814 227.23 363.322 227.542 365.09 227.542H366.104V230.818H343.952ZM369.249 230.818V227.542H370.263C372.031 227.542 373.539 227.23 374.787 226.606C376.035 225.93 376.659 224.37 376.659 221.926V192.676H369.561V189.01H376.659V185.11C376.659 180.482 377.881 176.946 380.325 174.502C382.821 172.006 386.201 170.758 390.465 170.758C394.521 170.758 397.355 171.278 398.967 172.318C400.579 173.306 401.385 174.606 401.385 176.218C401.385 177.622 400.787 178.714 399.591 179.494C398.395 180.222 396.861 180.586 394.989 180.586C394.989 179.026 394.625 177.596 393.897 176.296C393.169 174.996 391.817 174.346 389.841 174.346C387.605 174.346 386.071 175.204 385.239 176.92C384.407 178.636 383.991 181.132 383.991 184.408V189.01H394.989V192.676H383.991V221.926C383.991 224.37 384.615 225.93 385.863 226.606C387.111 227.23 388.619 227.542 390.387 227.542H393.351V230.818H369.249Z" fill="white"/>
<path d="M6.21387 365.818V364.894H6.63187C7.0572 364.894 7.37253 364.784 7.57787 364.564C7.79787 364.344 8.03987 363.882 8.30387 363.178L13.1879 350.11H14.9039L19.8759 363.728C20.0372 364.183 20.2279 364.491 20.4479 364.652C20.6825 364.814 21.0125 364.894 21.4379 364.894H21.7239V365.818H15.6739V364.894H16.1799C17.0599 364.894 17.4999 364.542 17.4999 363.838C17.4999 363.721 17.4852 363.596 17.4559 363.464C17.4265 363.332 17.3825 363.186 17.3239 363.024L16.4439 360.56H10.6579L9.82187 362.87C9.68987 363.222 9.62387 363.538 9.62387 363.816C9.62387 364.535 10.1079 364.894 11.0759 364.894H11.5819V365.818H6.21387ZM11.0759 359.46H16.0479L14.6839 355.61C14.4492 354.965 14.2365 354.356 14.0459 353.784C13.8552 353.212 13.7012 352.662 13.5839 352.134C13.4812 352.662 13.3492 353.168 13.1879 353.652C13.0265 354.136 12.8212 354.723 12.5719 355.412L11.0759 359.46ZM33.5616 365.818V364.894H33.8476C34.3463 364.894 34.7716 364.806 35.1236 364.63C35.4756 364.44 35.6516 364 35.6516 363.31V352.53C35.6516 351.885 35.4683 351.474 35.1016 351.298C34.7496 351.122 34.3316 351.034 33.8476 351.034H33.5616V350.11H39.4576C41.3643 350.11 42.7796 350.433 43.7036 351.078C44.6423 351.709 45.1116 352.699 45.1116 354.048C45.1116 355.031 44.8476 355.794 44.3196 356.336C43.8063 356.864 43.1609 357.253 42.3836 357.502V357.59C43.3809 357.766 44.1949 358.184 44.8256 358.844C45.4563 359.49 45.7716 360.399 45.7716 361.572C45.7716 364.403 43.8869 365.818 40.1176 365.818H33.5616ZM37.8736 357.04H39.3916C40.6823 357.04 41.5623 356.806 42.0316 356.336C42.5156 355.867 42.7576 355.104 42.7576 354.048C42.7576 352.963 42.5009 352.222 41.9876 351.826C41.4743 351.416 40.5943 351.21 39.3476 351.21H37.8736V357.04ZM37.8736 364.718H40.0076C41.2543 364.718 42.1343 364.476 42.6476 363.992C43.1609 363.508 43.4176 362.68 43.4176 361.506C43.4176 360.362 43.1756 359.519 42.6916 358.976C42.2223 358.419 41.3423 358.14 40.0516 358.14H37.8736V364.718ZM66.0621 366.038C64.6101 366.038 63.3855 365.701 62.3881 365.026C61.3908 364.352 60.6355 363.413 60.1221 362.21C59.6235 360.993 59.3741 359.57 59.3741 357.942C59.3741 356.358 59.6381 354.965 60.1661 353.762C60.7088 352.545 61.5008 351.599 62.5421 350.924C63.5981 350.235 64.8961 349.89 66.4361 349.89C67.9321 349.89 69.0468 350.125 69.7801 350.594C70.5135 351.064 70.8801 351.65 70.8801 352.354C70.8801 352.824 70.6968 353.198 70.3301 353.476C69.9635 353.755 69.5088 353.894 68.9661 353.894C68.9661 353.44 68.8855 353 68.7241 352.574C68.5628 352.134 68.2915 351.775 67.9101 351.496C67.5435 351.203 67.0375 351.056 66.3921 351.056C64.7348 351.056 63.5541 351.658 62.8501 352.86C62.1608 354.048 61.8161 355.742 61.8161 357.942C61.8161 359.248 61.9701 360.406 62.2781 361.418C62.6008 362.416 63.0995 363.193 63.7741 363.75C64.4488 364.308 65.3215 364.586 66.3921 364.586C67.4628 364.586 68.2988 364.403 68.9001 364.036C69.5161 363.655 70.0075 363.215 70.3741 362.716C70.4915 362.79 70.5868 362.9 70.6601 363.046C70.7481 363.178 70.7921 363.354 70.7921 363.574C70.7921 363.941 70.6235 364.315 70.2861 364.696C69.9488 365.078 69.4281 365.4 68.7241 365.664C68.0348 365.914 67.1475 366.038 66.0621 366.038ZM83.4698 365.818V364.894H83.7558C84.2545 364.894 84.6798 364.806 85.0318 364.63C85.3838 364.44 85.5598 364 85.5598 363.31V352.53C85.5598 351.885 85.3765 351.474 85.0098 351.298C84.6578 351.122 84.2398 351.034 83.7558 351.034H83.4698V350.11H90.2018C92.4751 350.11 94.2351 350.792 95.4818 352.156C96.7431 353.52 97.3738 355.449 97.3738 357.942C97.3738 359.541 97.1025 360.934 96.5598 362.122C96.0318 363.296 95.2398 364.205 94.1838 364.85C93.1278 365.496 91.8005 365.818 90.2018 365.818H83.4698ZM87.7818 364.696H89.6958C91.4411 364.696 92.7465 364.117 93.6118 362.958C94.4918 361.785 94.9318 360.113 94.9318 357.942C94.9318 355.757 94.4991 354.092 93.6338 352.948C92.7685 351.79 91.4631 351.21 89.7178 351.21H87.7818V364.696ZM110.454 365.818V364.894H110.74C111.224 364.894 111.642 364.814 111.994 364.652C112.361 364.476 112.544 364.066 112.544 363.42V352.618C112.544 351.929 112.368 351.496 112.016 351.32C111.664 351.13 111.239 351.034 110.74 351.034H110.454V350.11H121.542L121.652 353.96H120.508L120.398 353.014C120.339 352.53 120.163 352.112 119.87 351.76C119.591 351.394 119.122 351.21 118.462 351.21H114.766V357.062H120.068V358.14H114.766V364.718H119.012C119.701 364.718 120.2 364.542 120.508 364.19C120.831 363.824 121.029 363.398 121.102 362.914L121.256 361.968H122.4L122.246 365.818H110.454ZM135.161 365.818V364.894H135.447C135.931 364.894 136.349 364.814 136.701 364.652C137.068 364.476 137.251 364.066 137.251 363.42V352.53C137.251 351.885 137.068 351.474 136.701 351.298C136.349 351.122 135.931 351.034 135.447 351.034H135.161V350.11H146.249L146.359 353.96H145.215L145.105 353.014C145.047 352.516 144.863 352.09 144.555 351.738C144.262 351.386 143.771 351.21 143.081 351.21H139.473V357.568H144.775V358.646H139.473V363.31C139.473 364 139.649 364.44 140.001 364.63C140.353 364.806 140.779 364.894 141.277 364.894H142.003V365.818H135.161ZM167.124 366.038C165.422 366.038 164.007 365.701 162.878 365.026C161.763 364.352 160.927 363.413 160.37 362.21C159.827 360.993 159.556 359.57 159.556 357.942C159.556 356.358 159.842 354.965 160.414 353.762C161 352.545 161.866 351.599 163.01 350.924C164.154 350.235 165.569 349.89 167.256 349.89C168.884 349.89 170.101 350.125 170.908 350.594C171.714 351.064 172.118 351.65 172.118 352.354C172.118 352.824 171.92 353.198 171.524 353.476C171.128 353.755 170.644 353.894 170.072 353.894C170.072 353.44 169.976 353 169.786 352.574C169.61 352.134 169.309 351.775 168.884 351.496C168.458 351.203 167.886 351.056 167.168 351.056C165.305 351.056 163.978 351.658 163.186 352.86C162.394 354.048 161.998 355.742 161.998 357.942C161.998 360.142 162.408 361.836 163.23 363.024C164.066 364.198 165.481 364.784 167.476 364.784C167.901 364.784 168.312 364.762 168.708 364.718C169.104 364.674 169.456 364.608 169.764 364.52V360.978C169.764 360.333 169.58 359.922 169.214 359.746C168.862 359.57 168.444 359.482 167.96 359.482H167.872V358.558H173.592V359.482H173.504C173.093 359.482 172.734 359.578 172.426 359.768C172.132 359.944 171.986 360.377 171.986 361.066V365.026C171.252 365.364 170.497 365.62 169.72 365.796C168.942 365.958 168.077 366.038 167.124 366.038ZM185.843 365.818V364.894H186.129C186.628 364.894 187.053 364.806 187.405 364.63C187.757 364.44 187.933 364 187.933 363.31V352.53C187.933 351.885 187.75 351.474 187.383 351.298C187.031 351.122 186.613 351.034 186.129 351.034H185.843V350.11H192.245V351.034H191.959C191.46 351.034 191.035 351.13 190.683 351.32C190.331 351.496 190.155 351.929 190.155 352.618V357.062H197.305V352.618C197.305 351.929 197.129 351.496 196.777 351.32C196.425 351.13 196 351.034 195.501 351.034H195.215V350.11H201.617V351.034H201.331C200.832 351.034 200.407 351.13 200.055 351.32C199.703 351.496 199.527 351.929 199.527 352.618V363.42C199.527 364.066 199.703 364.476 200.055 364.652C200.422 364.814 200.847 364.894 201.331 364.894H201.617V365.818H195.215V364.894H195.501C196 364.894 196.425 364.806 196.777 364.63C197.129 364.44 197.305 364 197.305 363.31V358.162H190.155V363.31C190.155 364 190.331 364.44 190.683 364.63C191.035 364.806 191.46 364.894 191.959 364.894H192.245V365.818H185.843ZM213.21 371.098V370.064H213.408C214.039 370.064 214.574 369.94 215.014 369.69C215.454 369.456 215.791 369.038 216.026 368.436C216.261 367.85 216.378 367.043 216.378 366.016V352.53C216.378 351.885 216.195 351.474 215.828 351.298C215.476 351.122 215.058 351.034 214.574 351.034H214.288V350.11H220.69V351.034H220.404C219.905 351.034 219.48 351.13 219.128 351.32C218.776 351.496 218.6 351.929 218.6 352.618V365.994C218.6 367.3 218.373 368.326 217.918 369.074C217.478 369.822 216.877 370.343 216.114 370.636C215.366 370.944 214.523 371.098 213.584 371.098H213.21ZM233.151 365.818V364.894H233.437C233.921 364.894 234.339 364.814 234.691 364.652C235.058 364.476 235.241 364.066 235.241 363.42V352.53C235.241 351.885 235.058 351.474 234.691 351.298C234.339 351.122 233.921 351.034 233.437 351.034H233.151V350.11H239.553V351.034H239.267C238.769 351.034 238.343 351.13 237.991 351.32C237.639 351.496 237.463 351.929 237.463 352.618V358.822L242.017 353.608C242.487 353.066 242.802 352.633 242.963 352.31C243.139 351.973 243.227 351.702 243.227 351.496C243.227 351.306 243.139 351.181 242.963 351.122C242.787 351.049 242.516 351.012 242.149 351.012V350.11H247.011V351.012C246.513 351.012 246.036 351.196 245.581 351.562C245.141 351.929 244.635 352.435 244.063 353.08L240.873 356.666L245.515 363.134C245.941 363.706 246.344 364.146 246.725 364.454C247.121 364.748 247.525 364.894 247.935 364.894H247.979V365.818H247.737C247.004 365.818 246.395 365.789 245.911 365.73C245.442 365.672 245.046 365.569 244.723 365.422C244.415 365.276 244.137 365.078 243.887 364.828C243.653 364.564 243.396 364.234 243.117 363.838L239.333 358.404L237.463 359.922V363.31C237.463 364 237.639 364.44 237.991 364.63C238.343 364.806 238.769 364.894 239.267 364.894H239.553V365.818H233.151ZM259.556 365.818V364.894H259.842C260.34 364.894 260.766 364.806 261.118 364.63C261.47 364.44 261.646 364 261.646 363.31V352.618C261.646 351.929 261.47 351.496 261.118 351.32C260.766 351.13 260.34 351.034 259.842 351.034H259.556V350.11H265.958V351.034H265.672C265.188 351.034 264.762 351.122 264.396 351.298C264.044 351.474 263.868 351.885 263.868 352.53V364.718H268.202C268.642 364.718 268.994 364.623 269.258 364.432C269.536 364.227 269.742 363.97 269.874 363.662C270.006 363.354 270.094 363.046 270.138 362.738L270.358 361.088H271.502L271.348 365.818H259.556ZM284.263 365.818V364.894H284.549C285.033 364.894 285.451 364.814 285.803 364.652C286.169 364.476 286.353 364.066 286.353 363.42V352.53C286.353 351.885 286.169 351.474 285.803 351.298C285.451 351.122 285.033 351.034 284.549 351.034H284.263V350.11H289.279L293.833 362.694L298.343 350.11H303.227V351.034H302.941C302.442 351.034 302.017 351.13 301.665 351.32C301.313 351.496 301.137 351.929 301.137 352.618V363.31C301.137 364 301.313 364.44 301.665 364.63C302.017 364.806 302.442 364.894 302.941 364.894H303.227V365.818H297.375V364.894H297.441C297.91 364.894 298.284 364.814 298.563 364.652C298.841 364.491 298.995 364.11 299.025 363.508V351.76L293.987 365.818H292.799L287.695 351.804V363.31C287.695 364 287.834 364.44 288.113 364.63C288.391 364.806 288.78 364.894 289.279 364.894H289.345V365.818H284.263ZM315.909 365.818V364.894H316.195C316.694 364.894 317.119 364.806 317.471 364.63C317.823 364.44 317.999 364 317.999 363.31V352.53C317.999 351.885 317.816 351.474 317.449 351.298C317.097 351.122 316.679 351.034 316.195 351.034H315.909V350.11H319.935L327.811 362.276V352.53C327.811 351.885 327.628 351.474 327.261 351.298C326.909 351.122 326.491 351.034 326.007 351.034H325.721V350.11H331.243V351.034H330.957C330.459 351.034 330.033 351.13 329.681 351.32C329.329 351.496 329.153 351.929 329.153 352.618V365.818H327.591L319.341 353.146V363.31C319.341 364 319.517 364.44 319.869 364.63C320.221 364.806 320.647 364.894 321.145 364.894H321.431V365.818H315.909ZM351.015 366.038C349.46 366.038 348.169 365.701 347.143 365.026C346.116 364.352 345.346 363.406 344.833 362.188C344.334 360.971 344.085 359.548 344.085 357.92C344.085 356.292 344.334 354.877 344.833 353.674C345.346 352.472 346.116 351.54 347.143 350.88C348.184 350.206 349.482 349.868 351.037 349.868C352.518 349.868 353.765 350.206 354.777 350.88C355.803 351.54 356.581 352.479 357.109 353.696C357.651 354.899 357.923 356.314 357.923 357.942C357.923 359.57 357.651 360.993 357.109 362.21C356.581 363.413 355.803 364.352 354.777 365.026C353.75 365.701 352.496 366.038 351.015 366.038ZM351.015 364.85C352.657 364.85 353.809 364.242 354.469 363.024C355.143 361.807 355.481 360.113 355.481 357.942C355.481 355.757 355.143 354.063 354.469 352.86C353.809 351.658 352.665 351.056 351.037 351.056C349.394 351.056 348.228 351.658 347.539 352.86C346.864 354.063 346.527 355.757 346.527 357.942C346.527 360.113 346.864 361.807 347.539 363.024C348.228 364.242 349.387 364.85 351.015 364.85ZM371.017 365.818V364.894H371.303C371.801 364.894 372.227 364.806 372.579 364.63C372.931 364.44 373.107 364 373.107 363.31V352.53C373.107 351.885 372.923 351.474 372.557 351.298C372.205 351.122 371.787 351.034 371.303 351.034H371.017V350.11H377.199C379.047 350.11 380.411 350.521 381.291 351.342C382.171 352.149 382.611 353.271 382.611 354.708C382.611 355.574 382.42 356.388 382.039 357.15C381.672 357.913 381.056 358.529 380.191 358.998C379.325 359.468 378.167 359.702 376.715 359.702H375.329V363.42C375.329 364.066 375.505 364.476 375.857 364.652C376.223 364.814 376.649 364.894 377.133 364.894H377.859V365.818H371.017ZM375.329 358.668H376.495C377.829 358.668 378.783 358.375 379.355 357.788C379.941 357.187 380.235 356.19 380.235 354.796C380.235 353.564 379.978 352.655 379.465 352.068C378.951 351.467 378.071 351.166 376.825 351.166H375.329V358.668ZM406.756 370.878C405.979 370.878 405.216 370.732 404.468 370.438C403.735 370.145 403.111 369.639 402.598 368.92C402.085 368.216 401.777 367.241 401.674 365.994C400.339 365.848 399.225 365.43 398.33 364.74C397.45 364.036 396.79 363.105 396.35 361.946C395.91 360.773 395.69 359.431 395.69 357.92C395.69 356.292 395.939 354.877 396.438 353.674C396.951 352.472 397.721 351.54 398.748 350.88C399.789 350.206 401.087 349.868 402.642 349.868C404.123 349.868 405.37 350.206 406.382 350.88C407.409 351.54 408.186 352.479 408.714 353.696C409.257 354.899 409.528 356.314 409.528 357.942C409.528 359.365 409.315 360.641 408.89 361.77C408.479 362.885 407.871 363.802 407.064 364.52C406.257 365.224 405.267 365.686 404.094 365.906C404.182 366.904 404.365 367.688 404.644 368.26C404.937 368.847 405.311 369.258 405.766 369.492C406.235 369.727 406.763 369.844 407.35 369.844H407.702V370.878H406.756ZM402.62 364.85C404.263 364.85 405.414 364.242 406.074 363.024C406.749 361.807 407.086 360.113 407.086 357.942C407.086 355.757 406.749 354.063 406.074 352.86C405.414 351.658 404.27 351.056 402.642 351.056C400.999 351.056 399.833 351.658 399.144 352.86C398.469 354.063 398.132 355.757 398.132 357.942C398.132 360.113 398.469 361.807 399.144 363.024C399.833 364.242 400.992 364.85 402.62 364.85ZM98.1329 397.818V396.894H98.4189C98.9029 396.894 99.3209 396.814 99.6729 396.652C100.04 396.476 100.223 396.066 100.223 395.42V384.53C100.223 383.885 100.04 383.474 99.6729 383.298C99.3209 383.122 98.9029 383.034 98.4189 383.034H98.1329V382.11H104.051C107.82 382.11 109.705 383.526 109.705 386.356C109.705 387.134 109.544 387.794 109.221 388.336C108.898 388.864 108.488 389.29 107.989 389.612C107.505 389.935 106.999 390.184 106.471 390.36L109.485 395.134C109.866 395.721 110.233 396.161 110.585 396.454C110.937 396.748 111.34 396.894 111.795 396.894H111.861V397.818H111.553C110.644 397.818 109.932 397.774 109.419 397.686C108.92 397.584 108.517 397.393 108.209 397.114C107.901 396.821 107.578 396.396 107.241 395.838L104.271 390.888H102.445V395.42C102.445 396.066 102.621 396.476 102.973 396.652C103.34 396.814 103.765 396.894 104.249 396.894H104.535V397.818H98.1329ZM102.445 389.854H103.985C105.276 389.854 106.156 389.568 106.625 388.996C107.109 388.424 107.351 387.566 107.351 386.422C107.351 385.249 107.094 384.413 106.581 383.914C106.068 383.416 105.188 383.166 103.941 383.166H102.445V389.854ZM128.168 398.038C126.731 398.038 125.638 397.752 124.89 397.18C124.157 396.608 123.79 395.86 123.79 394.936C123.79 394.496 123.93 394.144 124.208 393.88C124.487 393.602 124.876 393.462 125.374 393.462C125.404 394.064 125.521 394.636 125.726 395.178C125.932 395.706 126.247 396.139 126.672 396.476C127.098 396.799 127.655 396.96 128.344 396.96C129.327 396.96 130.097 396.726 130.654 396.256C131.212 395.772 131.49 395.083 131.49 394.188C131.49 393.646 131.38 393.191 131.16 392.824C130.955 392.443 130.603 392.091 130.104 391.768C129.62 391.446 128.946 391.108 128.08 390.756C126.716 390.199 125.697 389.546 125.022 388.798C124.362 388.05 124.032 387.075 124.032 385.872C124.032 385.036 124.238 384.325 124.648 383.738C125.074 383.137 125.646 382.682 126.364 382.374C127.098 382.052 127.926 381.89 128.85 381.89C130.156 381.89 131.168 382.14 131.886 382.638C132.605 383.137 132.964 383.709 132.964 384.354C132.964 384.824 132.803 385.183 132.48 385.432C132.172 385.667 131.754 385.784 131.226 385.784C131.226 385.33 131.146 384.89 130.984 384.464C130.838 384.039 130.581 383.687 130.214 383.408C129.862 383.13 129.378 382.99 128.762 382.99C127.912 382.99 127.252 383.218 126.782 383.672C126.313 384.127 126.078 384.736 126.078 385.498C126.078 386.085 126.181 386.584 126.386 386.994C126.606 387.39 126.966 387.75 127.464 388.072C127.963 388.38 128.638 388.71 129.488 389.062C130.779 389.59 131.784 390.199 132.502 390.888C133.221 391.578 133.58 392.487 133.58 393.616C133.58 395.01 133.089 396.095 132.106 396.872C131.138 397.65 129.826 398.038 128.168 398.038ZM148.571 397.818V396.894H149.077C149.561 396.894 149.979 396.814 150.331 396.652C150.698 396.476 150.881 396.066 150.881 395.42V383.21H148.769C148.124 383.21 147.677 383.394 147.427 383.76C147.178 384.112 147.024 384.53 146.965 385.014L146.855 385.96H145.711L145.821 382.11H158.207L158.317 385.96H157.173L157.063 385.014C157.005 384.53 156.851 384.112 156.601 383.76C156.352 383.394 155.897 383.21 155.237 383.21H153.103V395.31C153.103 396 153.279 396.44 153.631 396.63C153.983 396.806 154.409 396.894 154.907 396.894H155.413V397.818H148.571ZM177.728 398.038C175.997 398.038 174.64 397.657 173.658 396.894C172.675 396.132 172.184 394.856 172.184 393.066V384.53C172.184 383.885 172 383.474 171.634 383.298C171.282 383.122 170.864 383.034 170.38 383.034H170.094V382.11H176.496V383.034H176.21C175.711 383.034 175.286 383.13 174.934 383.32C174.582 383.496 174.406 383.929 174.406 384.618V393.198C174.406 394.474 174.75 395.384 175.44 395.926C176.129 396.454 177.009 396.718 178.08 396.718C179.341 396.718 180.272 396.396 180.874 395.75C181.475 395.105 181.776 394.284 181.776 393.286V384.53C181.776 383.885 181.592 383.474 181.226 383.298C180.874 383.122 180.456 383.034 179.972 383.034H179.686V382.11H185.208V383.034H184.922C184.423 383.034 183.998 383.13 183.646 383.32C183.294 383.496 183.118 383.929 183.118 384.618V393.33C183.118 394.797 182.656 395.948 181.732 396.784C180.808 397.62 179.473 398.038 177.728 398.038ZM203.133 397.818L198.381 384.2C198.235 383.731 198.044 383.423 197.809 383.276C197.575 383.115 197.245 383.034 196.819 383.034H196.533V382.11H202.583V383.034H202.077C201.197 383.034 200.757 383.386 200.757 384.09C200.757 384.208 200.772 384.332 200.801 384.464C200.831 384.596 200.875 384.743 200.933 384.904L203.353 392.054C203.573 392.7 203.764 393.33 203.925 393.946C204.087 394.562 204.226 395.134 204.343 395.662C204.461 395.134 204.6 394.57 204.761 393.968C204.923 393.367 205.121 392.729 205.355 392.054L207.775 385.058C207.834 384.882 207.878 384.714 207.907 384.552C207.951 384.376 207.973 384.23 207.973 384.112C207.973 383.394 207.489 383.034 206.521 383.034H206.015V382.11H211.383V383.034H210.965C210.54 383.034 210.217 383.144 209.997 383.364C209.777 383.57 209.543 384.032 209.293 384.75L204.739 397.818H203.133ZM228.451 397.818L224.425 384.2C224.278 383.731 224.088 383.423 223.853 383.276C223.618 383.115 223.288 383.034 222.863 383.034H222.577V382.11H228.627V383.034H228.121C227.241 383.034 226.801 383.386 226.801 384.09C226.801 384.208 226.816 384.332 226.845 384.464C226.889 384.596 226.933 384.743 226.977 384.904L229.001 391.944C229.192 392.604 229.368 393.257 229.529 393.902C229.69 394.548 229.83 395.134 229.947 395.662C230.064 395.09 230.196 394.467 230.343 393.792C230.49 393.103 230.658 392.406 230.849 391.702L233.467 382.264H235.051L237.801 391.79C238.006 392.509 238.19 393.206 238.351 393.88C238.512 394.555 238.644 395.149 238.747 395.662C238.864 395.134 238.989 394.577 239.121 393.99C239.268 393.404 239.436 392.758 239.627 392.054L241.563 385.256C241.607 385.08 241.658 384.875 241.717 384.64C241.776 384.406 241.805 384.23 241.805 384.112C241.805 383.394 241.321 383.034 240.353 383.034H239.847V382.11H245.215V383.034H244.797C244.372 383.034 244.034 383.137 243.785 383.342C243.55 383.548 243.33 384.017 243.125 384.75L239.407 397.818H237.427L233.841 385.498L230.475 397.818H228.451ZM256.586 397.818V396.894H256.718C257.246 396.894 257.657 396.784 257.95 396.564C258.258 396.33 258.61 395.926 259.006 395.354L262.68 390.096L259.05 384.2C258.786 383.775 258.485 383.474 258.148 383.298C257.825 383.122 257.495 383.034 257.158 383.034H256.872V382.11H262.834V383.034H262.768C262.269 383.034 261.932 383.1 261.756 383.232C261.595 383.35 261.514 383.496 261.514 383.672C261.514 383.819 261.543 383.98 261.602 384.156C261.661 384.318 261.807 384.589 262.042 384.97L264.022 388.182L266.112 385.014C266.273 384.765 266.405 384.53 266.508 384.31C266.611 384.076 266.662 383.863 266.662 383.672C266.662 383.408 266.545 383.24 266.31 383.166C266.09 383.078 265.811 383.034 265.474 383.034H265.408V382.11H270.226V383.034H270.028C269.603 383.034 269.236 383.152 268.928 383.386C268.635 383.606 268.275 384.017 267.85 384.618L264.66 389.216L268.708 395.728C269.031 396.154 269.331 396.454 269.61 396.63C269.903 396.806 270.189 396.894 270.468 396.894H270.754V397.818H264.814V396.894H264.924C265.804 396.894 266.244 396.652 266.244 396.168C266.244 396.007 266.2 395.838 266.112 395.662C266.024 395.472 265.826 395.134 265.518 394.65L263.34 391.152L260.898 394.76C260.781 394.951 260.656 395.186 260.524 395.464C260.392 395.728 260.326 395.978 260.326 396.212C260.326 396.667 260.803 396.894 261.756 396.894H261.822V397.818H256.586ZM285.432 397.818V396.894H285.938C286.422 396.894 286.84 396.814 287.192 396.652C287.558 396.476 287.742 396.066 287.742 395.42V391.262L283.672 384.2C283.437 383.775 283.21 383.474 282.99 383.298C282.784 383.122 282.491 383.034 282.11 383.034H281.824V382.11H287.874V383.034H287.06C286.664 383.034 286.4 383.108 286.268 383.254C286.15 383.386 286.092 383.548 286.092 383.738C286.092 383.944 286.136 384.149 286.224 384.354C286.312 384.56 286.4 384.743 286.488 384.904L288.116 387.852C288.365 388.307 288.578 388.754 288.754 389.194C288.944 389.634 289.098 390.023 289.216 390.36C289.348 390.052 289.538 389.671 289.788 389.216C290.037 388.762 290.286 388.307 290.536 387.852L291.944 385.322C292.09 385.073 292.193 384.838 292.252 384.618C292.31 384.384 292.34 384.178 292.34 384.002C292.34 383.357 291.9 383.034 291.02 383.034H290.382V382.11H295.75V383.034H295.486C295.178 383.034 294.892 383.159 294.628 383.408C294.364 383.643 294.041 384.09 293.66 384.75L289.964 391.262V395.31C289.964 396 290.14 396.44 290.492 396.63C290.844 396.806 291.269 396.894 291.768 396.894H292.274V397.818H285.432ZM307.476 397.818V396.938L315.726 383.21H310.952C310.306 383.21 309.859 383.394 309.61 383.76C309.36 384.112 309.206 384.53 309.148 385.014L309.038 385.96H307.894L308.004 382.11H318.432V383.012L310.16 396.718H315.704C316.364 396.718 316.818 396.542 317.068 396.19C317.317 395.824 317.471 395.398 317.53 394.914L317.64 393.968H318.784L318.674 397.818H307.476Z" fill="white"/>
<path d="M603.714 229.818H595.524L565.728 183.564H565.416C565.52 185.384 565.65 187.646 565.806 190.35C565.962 193.054 566.04 195.836 566.04 198.696V229.818H559.566V174.126H567.678L597.396 220.224H597.708C597.656 219.392 597.578 218.144 597.474 216.48C597.422 214.816 597.344 212.996 597.24 211.02C597.188 209.044 597.162 207.224 597.162 205.56V174.126H603.714V229.818ZM654.24 208.836C654.24 215.752 652.472 221.108 648.936 224.904C645.452 228.7 640.72 230.598 634.74 230.598C631.048 230.598 627.746 229.766 624.834 228.102C621.974 226.386 619.712 223.916 618.048 220.692C616.384 217.416 615.552 213.464 615.552 208.836C615.552 201.92 617.294 196.59 620.778 192.846C624.262 189.102 628.994 187.23 634.974 187.23C638.77 187.23 642.098 188.088 644.958 189.804C647.87 191.468 650.132 193.912 651.744 197.136C653.408 200.308 654.24 204.208 654.24 208.836ZM622.65 208.836C622.65 213.776 623.612 217.702 625.536 220.614C627.512 223.474 630.632 224.904 634.896 224.904C639.108 224.904 642.202 223.474 644.178 220.614C646.154 217.702 647.142 213.776 647.142 208.836C647.142 203.896 646.154 200.022 644.178 197.214C642.202 194.406 639.082 193.002 634.818 193.002C630.554 193.002 627.46 194.406 625.536 197.214C623.612 200.022 622.65 203.896 622.65 208.836ZM679.08 224.982C680.12 224.982 681.186 224.904 682.278 224.748C683.37 224.54 684.254 224.332 684.93 224.124V229.35C684.202 229.714 683.162 230 681.81 230.208C680.458 230.468 679.158 230.598 677.91 230.598C675.726 230.598 673.698 230.234 671.826 229.506C670.006 228.726 668.524 227.4 667.38 225.528C666.236 223.656 665.664 221.03 665.664 217.65V193.314H659.736V190.038L665.742 187.308L668.472 178.416H672.528V188.01H684.618V193.314H672.528V217.494C672.528 220.042 673.126 221.94 674.322 223.188C675.57 224.384 677.156 224.982 679.08 224.982ZM729.65 208.836C729.65 215.752 727.882 221.108 724.346 224.904C720.862 228.7 716.13 230.598 710.15 230.598C706.458 230.598 703.156 229.766 700.244 228.102C697.384 226.386 695.122 223.916 693.458 220.692C691.794 217.416 690.962 213.464 690.962 208.836C690.962 201.92 692.704 196.59 696.188 192.846C699.672 189.102 704.404 187.23 710.384 187.23C714.18 187.23 717.508 188.088 720.368 189.804C723.28 191.468 725.542 193.912 727.154 197.136C728.818 200.308 729.65 204.208 729.65 208.836ZM698.06 208.836C698.06 213.776 699.022 217.702 700.946 220.614C702.922 223.474 706.042 224.904 710.306 224.904C714.518 224.904 717.612 223.474 719.588 220.614C721.564 217.702 722.552 213.776 722.552 208.836C722.552 203.896 721.564 200.022 719.588 197.214C717.612 194.406 714.492 193.002 710.228 193.002C705.964 193.002 702.87 194.406 700.946 197.214C699.022 200.022 698.06 203.896 698.06 208.836ZM793.316 214.92C793.316 219.86 791.522 223.708 787.934 226.464C784.346 229.22 779.51 230.598 773.426 230.598C770.306 230.598 767.42 230.364 764.768 229.896C762.116 229.428 759.906 228.778 758.138 227.946V221.238C760.01 222.07 762.324 222.824 765.08 223.5C767.888 224.176 770.774 224.514 773.738 224.514C777.898 224.514 781.018 223.708 783.098 222.096C785.23 220.484 786.296 218.3 786.296 215.544C786.296 213.724 785.906 212.19 785.126 210.942C784.346 209.694 782.994 208.55 781.07 207.51C779.198 206.418 776.572 205.274 773.192 204.078C768.46 202.362 764.872 200.256 762.428 197.76C760.036 195.264 758.84 191.858 758.84 187.542C758.84 184.578 759.594 182.056 761.102 179.976C762.61 177.844 764.69 176.206 767.342 175.062C770.046 173.918 773.14 173.346 776.624 173.346C779.692 173.346 782.5 173.632 785.048 174.204C787.596 174.776 789.91 175.53 791.99 176.466L789.806 182.472C787.882 181.64 785.776 180.938 783.488 180.366C781.252 179.794 778.912 179.508 776.468 179.508C772.984 179.508 770.358 180.262 768.59 181.77C766.822 183.226 765.938 185.176 765.938 187.62C765.938 189.492 766.328 191.052 767.108 192.3C767.888 193.548 769.162 194.666 770.93 195.654C772.698 196.642 775.09 197.708 778.106 198.852C781.382 200.048 784.138 201.348 786.374 202.752C788.662 204.104 790.378 205.742 791.522 207.666C792.718 209.59 793.316 212.008 793.316 214.92ZM819.433 187.308C824.529 187.308 828.299 188.426 830.743 190.662C833.187 192.898 834.409 196.46 834.409 201.348V229.818H829.417L828.091 223.89H827.779C825.959 226.178 824.035 227.868 822.007 228.96C820.031 230.052 817.275 230.598 813.739 230.598C809.943 230.598 806.797 229.61 804.301 227.634C801.805 225.606 800.557 222.46 800.557 218.196C800.557 214.036 802.195 210.838 805.471 208.602C808.747 206.314 813.791 205.066 820.603 204.858L827.701 204.624V202.128C827.701 198.644 826.947 196.226 825.439 194.874C823.931 193.522 821.799 192.846 819.043 192.846C816.859 192.846 814.779 193.184 812.803 193.86C810.827 194.484 808.981 195.212 807.265 196.044L805.159 190.896C806.979 189.908 809.137 189.076 811.633 188.4C814.129 187.672 816.729 187.308 819.433 187.308ZM827.623 209.382L821.461 209.616C816.261 209.824 812.647 210.656 810.619 212.112C808.643 213.568 807.655 215.622 807.655 218.274C807.655 220.614 808.357 222.33 809.761 223.422C811.217 224.514 813.063 225.06 815.299 225.06C818.835 225.06 821.773 224.098 824.113 222.174C826.453 220.198 827.623 217.182 827.623 213.126V209.382ZM867.445 187.23C872.437 187.23 876.207 188.452 878.755 190.896C881.303 193.288 882.577 197.188 882.577 202.596V229.818H875.791V203.064C875.791 196.356 872.671 193.002 866.431 193.002C861.803 193.002 858.605 194.302 856.837 196.902C855.069 199.502 854.185 203.246 854.185 208.134V229.818H847.321V188.01H852.859L853.873 193.704H854.263C855.615 191.52 857.487 189.908 859.879 188.868C862.271 187.776 864.793 187.23 867.445 187.23ZM922.76 218.274C922.76 222.33 921.252 225.398 918.236 227.478C915.22 229.558 911.164 230.598 906.068 230.598C903.156 230.598 900.634 230.364 898.502 229.896C896.422 229.428 894.576 228.778 892.964 227.946V221.706C894.628 222.538 896.63 223.318 898.97 224.046C901.362 224.722 903.78 225.06 906.224 225.06C909.708 225.06 912.23 224.514 913.79 223.422C915.35 222.278 916.13 220.77 916.13 218.898C916.13 217.858 915.844 216.922 915.272 216.09C914.7 215.258 913.66 214.426 912.152 213.594C910.696 212.762 908.59 211.826 905.834 210.786C903.13 209.746 900.816 208.706 898.892 207.666C896.968 206.626 895.486 205.378 894.446 203.922C893.406 202.466 892.886 200.594 892.886 198.306C892.886 194.77 894.316 192.04 897.176 190.116C900.088 188.192 903.884 187.23 908.564 187.23C911.112 187.23 913.478 187.49 915.662 188.01C917.898 188.478 919.978 189.154 921.902 190.038L919.562 195.498C917.794 194.77 915.948 194.146 914.024 193.626C912.1 193.106 910.124 192.846 908.096 192.846C905.288 192.846 903.13 193.314 901.622 194.25C900.166 195.134 899.438 196.356 899.438 197.916C899.438 199.06 899.776 200.048 900.452 200.88C901.128 201.66 902.246 202.44 903.806 203.22C905.418 203.948 907.55 204.832 910.202 205.872C912.854 206.86 915.116 207.874 916.988 208.914C918.86 209.954 920.29 211.228 921.278 212.736C922.266 214.192 922.76 216.038 922.76 218.274Z" fill="white"/>
<path opacity="0.1" d="M851 283.818H809.447L658.116 48.8238H656.57L657.537 64.503C659.083 87.9896 659.856 108.379 659.856 125.671V283.818H627V0.818359H668.167L676.864 14.5619L769.633 158.191L818.917 235.039H820.463C820.206 231.941 819.69 220.908 818.917 201.938C818.144 182.839 817.758 169.031 817.758 160.514V0.818359H851V283.818Z" fill="white"/>
<path d="M548.081 364.818L546.189 359.956H539.963L538.093 364.818H536.091L542.229 349.044H544.011L550.127 364.818H548.081ZM545.595 358.196L543.835 353.444C543.791 353.327 543.717 353.114 543.615 352.806C543.512 352.498 543.409 352.183 543.307 351.86C543.219 351.523 543.145 351.266 543.087 351.09C542.984 351.545 542.867 351.992 542.735 352.432C542.603 352.858 542.493 353.195 542.405 353.444L540.623 358.196H545.595ZM563.276 349.11H567.764C569.729 349.11 571.21 349.404 572.208 349.99C573.22 350.562 573.726 351.567 573.726 353.004C573.726 353.928 573.469 354.698 572.956 355.314C572.442 355.916 571.702 356.304 570.734 356.48V356.59C571.394 356.693 571.988 356.884 572.516 357.162C573.058 357.441 573.484 357.837 573.792 358.35C574.1 358.864 574.254 359.531 574.254 360.352C574.254 361.775 573.762 362.875 572.78 363.652C571.812 364.43 570.484 364.818 568.798 364.818H563.276V349.11ZM565.256 355.798H568.16C569.509 355.798 570.433 355.586 570.932 355.16C571.43 354.72 571.68 354.075 571.68 353.224C571.68 352.359 571.372 351.743 570.756 351.376C570.154 350.995 569.186 350.804 567.852 350.804H565.256V355.798ZM565.256 357.448V363.146H568.424C569.817 363.146 570.785 362.875 571.328 362.332C571.87 361.79 572.142 361.078 572.142 360.198C572.142 359.377 571.856 358.717 571.284 358.218C570.726 357.705 569.722 357.448 568.27 357.448H565.256ZM595.316 350.628C593.63 350.628 592.302 351.193 591.334 352.322C590.366 353.452 589.882 354.999 589.882 356.964C589.882 358.915 590.33 360.462 591.224 361.606C592.134 362.736 593.49 363.3 595.294 363.3C595.984 363.3 596.636 363.242 597.252 363.124C597.868 363.007 598.47 362.86 599.056 362.684V364.4C598.47 364.62 597.861 364.782 597.23 364.884C596.614 364.987 595.874 365.038 595.008 365.038C593.41 365.038 592.075 364.708 591.004 364.048C589.934 363.388 589.127 362.45 588.584 361.232C588.056 360.015 587.792 358.585 587.792 356.942C587.792 355.358 588.078 353.965 588.65 352.762C589.237 351.545 590.095 350.599 591.224 349.924C592.354 349.235 593.725 348.89 595.338 348.89C596.996 348.89 598.44 349.198 599.672 349.814L598.88 351.486C598.396 351.266 597.854 351.068 597.252 350.892C596.666 350.716 596.02 350.628 595.316 350.628ZM626.069 356.81C626.069 359.465 625.343 361.467 623.891 362.816C622.453 364.151 620.444 364.818 617.863 364.818H613.485V349.11H618.325C619.909 349.11 621.28 349.404 622.439 349.99C623.597 350.577 624.492 351.442 625.123 352.586C625.753 353.716 626.069 355.124 626.069 356.81ZM623.979 356.876C623.979 354.779 623.458 353.246 622.417 352.278C621.39 351.296 619.931 350.804 618.039 350.804H615.465V363.124H617.599C621.852 363.124 623.979 361.042 623.979 356.876ZM649.333 364.818H640.555V349.11H649.333V350.848H642.535V355.754H648.937V357.47H642.535V363.08H649.333V364.818ZM665.76 364.818H663.78V349.11H672.558V350.848H665.76V356.414H672.14V358.152H665.76V364.818ZM693.008 356.524H698.442V364.224C697.591 364.503 696.733 364.708 695.868 364.84C695.002 364.972 694.02 365.038 692.92 365.038C691.292 365.038 689.92 364.716 688.806 364.07C687.691 363.41 686.84 362.479 686.254 361.276C685.682 360.059 685.396 358.622 685.396 356.964C685.396 355.322 685.718 353.899 686.364 352.696C687.009 351.494 687.933 350.562 689.136 349.902C690.353 349.228 691.82 348.89 693.536 348.89C694.416 348.89 695.244 348.971 696.022 349.132C696.814 349.294 697.547 349.521 698.222 349.814L697.474 351.53C696.916 351.281 696.286 351.068 695.582 350.892C694.892 350.716 694.174 350.628 693.426 350.628C691.548 350.628 690.082 351.193 689.026 352.322C687.984 353.452 687.464 354.999 687.464 356.964C687.464 358.211 687.662 359.318 688.058 360.286C688.468 361.24 689.106 361.988 689.972 362.53C690.837 363.058 691.974 363.322 693.382 363.322C694.071 363.322 694.658 363.286 695.142 363.212C695.626 363.139 696.066 363.051 696.462 362.948V358.284H693.008V356.524ZM725.206 364.818H723.226V357.492H715.174V364.818H713.194V349.11H715.174V355.754H723.226V349.11H725.206V364.818ZM738.278 368.998C737.926 368.998 737.618 368.969 737.354 368.91C737.09 368.866 736.856 368.8 736.65 368.712V367.04C736.885 367.099 737.134 367.15 737.398 367.194C737.662 367.238 737.941 367.26 738.234 367.26C738.601 367.26 738.946 367.187 739.268 367.04C739.606 366.894 739.877 366.637 740.082 366.27C740.288 365.904 740.39 365.39 740.39 364.73V349.11H742.37V364.576C742.37 366.087 741.996 367.202 741.248 367.92C740.5 368.639 739.51 368.998 738.278 368.998ZM769 364.818H766.668L761.102 357.316L759.496 358.724V364.818H757.516V349.11H759.496V356.854C759.936 356.356 760.383 355.857 760.838 355.358C761.293 354.86 761.747 354.361 762.202 353.862L766.448 349.11H768.758L762.532 355.952L769 364.818ZM782.137 364.818V349.11H784.117V363.058H790.981V364.818H782.137ZM811.604 364.818L806.434 351.046H806.346C806.39 351.501 806.427 352.117 806.456 352.894C806.485 353.657 806.5 354.456 806.5 355.292V364.818H804.674V349.11H807.6L812.44 361.98H812.528L817.456 349.11H820.36V364.818H818.402V355.16C818.402 354.398 818.417 353.642 818.446 352.894C818.49 352.146 818.527 351.538 818.556 351.068H818.468L813.232 364.818H811.604ZM848.085 364.818H845.775L837.371 351.772H837.283C837.312 352.286 837.349 352.924 837.393 353.686C837.437 354.449 837.459 355.234 837.459 356.04V364.818H835.633V349.11H837.921L846.303 362.112H846.391C846.376 361.878 846.354 361.526 846.325 361.056C846.31 360.587 846.288 360.074 846.259 359.516C846.244 358.959 846.237 358.446 846.237 357.976V349.11H848.085V364.818ZM877.054 356.942C877.054 358.57 876.775 359.993 876.218 361.21C875.675 362.413 874.869 363.352 873.798 364.026C872.727 364.701 871.4 365.038 869.816 365.038C868.188 365.038 866.831 364.701 865.746 364.026C864.675 363.352 863.876 362.406 863.348 361.188C862.82 359.971 862.556 358.548 862.556 356.92C862.556 355.307 862.82 353.899 863.348 352.696C863.876 351.494 864.675 350.555 865.746 349.88C866.831 349.206 868.195 348.868 869.838 348.868C871.407 348.868 872.727 349.206 873.798 349.88C874.869 350.54 875.675 351.479 876.218 352.696C876.775 353.899 877.054 355.314 877.054 356.942ZM864.646 356.942C864.646 358.922 865.064 360.484 865.9 361.628C866.736 362.758 868.041 363.322 869.816 363.322C871.605 363.322 872.911 362.758 873.732 361.628C874.553 360.484 874.964 358.922 874.964 356.942C874.964 354.962 874.553 353.415 873.732 352.3C872.911 351.171 871.613 350.606 869.838 350.606C868.063 350.606 866.751 351.171 865.9 352.3C865.064 353.415 864.646 354.962 864.646 356.942ZM895.693 349.11C897.747 349.11 899.243 349.514 900.181 350.32C901.12 351.127 901.589 352.264 901.589 353.73C901.589 354.596 901.391 355.41 900.995 356.172C900.614 356.92 899.961 357.529 899.037 357.998C898.128 358.468 896.889 358.702 895.319 358.702H893.515V364.818H891.535V349.11H895.693ZM895.517 350.804H893.515V357.008H895.099C896.595 357.008 897.71 356.766 898.443 356.282C899.177 355.798 899.543 354.977 899.543 353.818C899.543 352.806 899.221 352.051 898.575 351.552C897.93 351.054 896.911 350.804 895.517 350.804ZM929.562 356.942C929.562 358.864 929.173 360.499 928.396 361.848C927.633 363.198 926.496 364.129 924.986 364.642L928.748 368.558H925.91L922.874 365.016C922.786 365.016 922.69 365.016 922.588 365.016C922.5 365.031 922.412 365.038 922.324 365.038C920.696 365.038 919.339 364.701 918.254 364.026C917.183 363.352 916.384 362.406 915.856 361.188C915.328 359.971 915.064 358.548 915.064 356.92C915.064 355.307 915.328 353.899 915.856 352.696C916.384 351.494 917.183 350.555 918.254 349.88C919.339 349.206 920.703 348.868 922.346 348.868C923.915 348.868 925.235 349.206 926.306 349.88C927.376 350.54 928.183 351.479 928.726 352.696C929.283 353.899 929.562 355.314 929.562 356.942ZM917.154 356.942C917.154 358.922 917.572 360.484 918.408 361.628C919.244 362.758 920.549 363.322 922.324 363.322C924.113 363.322 925.418 362.758 926.24 361.628C927.061 360.484 927.472 358.922 927.472 356.942C927.472 354.962 927.061 353.415 926.24 352.3C925.418 351.171 924.12 350.606 922.346 350.606C920.571 350.606 919.258 351.171 918.408 352.3C917.572 353.415 917.154 354.962 917.154 356.942ZM633.137 381.11C635.088 381.11 636.525 381.484 637.449 382.232C638.388 382.966 638.857 384.08 638.857 385.576C638.857 386.412 638.703 387.109 638.395 387.666C638.087 388.224 637.691 388.671 637.207 389.008C636.738 389.331 636.239 389.588 635.711 389.778L640.023 396.818H637.713L633.907 390.328H630.783V396.818H628.803V381.11H633.137ZM633.027 382.826H630.783V388.656H633.137C634.413 388.656 635.344 388.407 635.931 387.908C636.518 387.395 636.811 386.647 636.811 385.664C636.811 384.638 636.503 383.912 635.887 383.486C635.271 383.046 634.318 382.826 633.027 382.826ZM662.398 392.616C662.398 394.01 661.892 395.095 660.88 395.872C659.868 396.65 658.504 397.038 656.788 397.038C655.908 397.038 655.094 396.972 654.346 396.84C653.598 396.708 652.975 396.525 652.476 396.29V394.398C653.004 394.633 653.657 394.846 654.434 395.036C655.226 395.227 656.04 395.322 656.876 395.322C658.05 395.322 658.93 395.095 659.516 394.64C660.118 394.186 660.418 393.57 660.418 392.792C660.418 392.279 660.308 391.846 660.088 391.494C659.868 391.142 659.487 390.82 658.944 390.526C658.416 390.218 657.676 389.896 656.722 389.558C655.388 389.074 654.376 388.48 653.686 387.776C653.012 387.072 652.674 386.112 652.674 384.894C652.674 384.058 652.887 383.347 653.312 382.76C653.738 382.159 654.324 381.697 655.072 381.374C655.835 381.052 656.708 380.89 657.69 380.89C658.556 380.89 659.348 380.971 660.066 381.132C660.785 381.294 661.438 381.506 662.024 381.77L661.408 383.464C660.866 383.23 660.272 383.032 659.626 382.87C658.996 382.709 658.336 382.628 657.646 382.628C656.664 382.628 655.923 382.841 655.424 383.266C654.926 383.677 654.676 384.227 654.676 384.916C654.676 385.444 654.786 385.884 655.006 386.236C655.226 386.588 655.586 386.904 656.084 387.182C656.583 387.461 657.258 387.762 658.108 388.084C659.032 388.422 659.81 388.788 660.44 389.184C661.086 389.566 661.57 390.028 661.892 390.57C662.23 391.113 662.398 391.795 662.398 392.616ZM681.535 396.818H679.555V382.848H674.649V381.11H686.419V382.848H681.535V396.818ZM711.733 381.11V391.274C711.733 392.36 711.513 393.342 711.073 394.222C710.633 395.088 709.959 395.777 709.049 396.29C708.155 396.789 707.011 397.038 705.617 397.038C703.667 397.038 702.178 396.51 701.151 395.454C700.139 394.384 699.633 392.976 699.633 391.23V381.11H701.613V391.296C701.613 392.572 701.951 393.562 702.625 394.266C703.315 394.97 704.349 395.322 705.727 395.322C707.15 395.322 708.177 394.948 708.807 394.2C709.453 393.438 709.775 392.462 709.775 391.274V381.11H711.733ZM737.945 381.11L732.335 396.818H730.355L724.745 381.11H726.813L730.355 391.186C730.59 391.832 730.788 392.44 730.949 393.012C731.11 393.57 731.242 394.105 731.345 394.618C731.448 394.105 731.58 393.562 731.741 392.99C731.902 392.418 732.1 391.802 732.335 391.142L735.855 381.11H737.945ZM769.111 381.11L764.931 396.818H762.929L759.871 386.522C759.753 386.097 759.636 385.672 759.519 385.246C759.401 384.821 759.306 384.447 759.233 384.124C759.159 383.787 759.108 383.552 759.079 383.42C759.064 383.611 758.983 384.022 758.837 384.652C758.705 385.268 758.536 385.914 758.331 386.588L755.361 396.818H753.359L749.201 381.11H751.269L753.711 390.702C753.887 391.377 754.033 392.03 754.151 392.66C754.283 393.291 754.385 393.885 754.459 394.442C754.532 393.87 754.642 393.247 754.789 392.572C754.935 391.898 755.104 391.238 755.295 390.592L758.067 381.11H760.113L762.995 390.658C763.2 391.333 763.376 392.008 763.523 392.682C763.669 393.342 763.779 393.929 763.853 394.442C763.926 393.9 764.029 393.313 764.161 392.682C764.293 392.037 764.447 391.37 764.623 390.68L767.043 381.11H769.111ZM793.194 396.818H790.95L786.792 389.998L782.568 396.818H780.478L785.692 388.634L780.808 381.11H783.008L786.858 387.27L790.73 381.11H792.82L787.958 388.59L793.194 396.818ZM810.506 388.832L814.598 381.11H816.732L811.496 390.724V396.818H809.516V390.812L804.28 381.11H806.436L810.506 388.832ZM839.467 396.818H828.577V395.322L836.849 382.87H828.841V381.11H839.247V382.606L830.975 395.058H839.467V396.818Z" fill="white"/>
</svg>
