<svg width="532" height="184" viewBox="0 0 532 184" fill="none" xmlns="http://www.w3.org/2000/svg">
<mask id="mask0_213_256" style="mask-type:alpha" maskUnits="userSpaceOnUse" x="0" y="0" width="532" height="184">
<rect x="0.783691" width="531" height="184" rx="4" fill="#349080"/>
</mask>
<g mask="url(#mask0_213_256)">
<path opacity="0.12" fill-rule="evenodd" clip-rule="evenodd" d="M522.08 -453.341C519.979 -453.434 516.34 -456.127 515.335 -454.368C515.971 -452.703 521.494 -450.947 522.08 -453.341ZM498.44 -454.667C499.005 -456.094 498.524 -457.075 497.565 -457.862C497.836 -458.594 499.376 -457.49 500.165 -457.471C497.844 -454.238 504.388 -454.109 507.892 -453.009C506.373 -449.707 500.606 -452.777 498.44 -454.667ZM544.642 -436.591C542.493 -439.701 538.925 -442.06 538.801 -446.245C543.846 -443.162 548.117 -440.022 551.598 -435.443C551.362 -434.425 551.091 -433.464 550.469 -433.122C557.745 -425.835 559.285 -415.516 565.878 -407.865C564.823 -405.588 565.67 -404.313 565.714 -402.611C566.801 -401.81 568.584 -401.375 569.675 -400.576C567.825 -396.96 570.026 -392.814 573.175 -390.719C572.938 -387.953 574.67 -386.226 574.214 -383.349C578.613 -377.063 583.471 -371.022 582.542 -361.927C587.469 -355.576 587.304 -346.536 593.742 -340.988C592.583 -334.293 599.459 -331.838 600.915 -326.526C601.796 -311.385 611.237 -300.762 616.004 -287.67C617.231 -287.217 617.87 -288.756 618.641 -287.345C619.54 -285.245 618.934 -283.858 617.516 -281.931C619.26 -278.945 623.718 -277.4 625.866 -274.633C625.459 -273.098 622.865 -275.397 622.455 -273.863C622.31 -271.492 623.365 -269.755 626.542 -269.137C626.365 -266.287 628.432 -264.627 629.614 -262.497C629.339 -261.135 627.734 -262.108 627.342 -260.951C628.066 -259.613 630.709 -259.287 632.023 -258.261C633.464 -251.676 633.448 -244.324 638.969 -239.89C638.705 -239.335 637.675 -240.113 637.47 -239.445C639.045 -231.899 646.035 -227.214 646.035 -218.834C648.091 -217.509 648.352 -215.237 651.621 -214.556C652.966 -206.313 657.561 -199.791 661.745 -193.048C661.462 -185.781 663.312 -179.642 670.544 -176.346C670.816 -170.981 676.492 -166.16 669.984 -161.938C669.707 -163.165 667.962 -163.625 667.099 -164.542C667.414 -174.467 656.438 -178.425 655.65 -187.76C655.682 -188.732 656.62 -188.106 656.843 -188.739C651.579 -195.37 647.617 -202.687 645.04 -210.734C627.166 -226.887 629.435 -253.678 617.121 -272.769C615.424 -274.17 612.765 -275.058 611.42 -276.643C615.6 -280.629 609.076 -283.534 605.879 -285.768C601.298 -308.596 588.72 -327.204 584.073 -349.994C583.806 -351.116 582.029 -351.441 581.067 -352.196C580.85 -355.41 580.042 -358.307 576.973 -360.016C577.143 -361.353 578.414 -360.761 578.828 -361.681C572.572 -369.856 570.982 -380.495 565.926 -389.302C560.698 -406.051 551.32 -420.607 544.642 -436.591ZM521.268 -450.358C521.354 -449.398 524.004 -449.303 524.136 -450.467C523.159 -450.463 521.314 -452.049 521.268 -450.358ZM654.852 -167.419C659.335 -158.424 667.012 -151.122 665.135 -138.752C661.324 -143.625 655.843 -147.61 656.13 -154.658C648.624 -158.373 650.366 -166.993 643.654 -171.129C643.281 -173.115 642.811 -175.05 642.683 -177.166C640.892 -180.351 638.259 -183.089 636.205 -186.136C636.899 -186.514 637.182 -187.484 636.8 -188.176C633.103 -194.6 628.428 -200.507 626.649 -207.95C622.393 -211.552 620.24 -216.274 619.268 -221.611C610.605 -226.324 607.575 -234.024 604.689 -241.797C604.362 -243.001 603.225 -243.778 602.349 -244.691C594.781 -258.944 595.431 -277.555 585.749 -290.687C584.162 -300.413 580.812 -309.21 580.555 -319.636C571.594 -338.667 566.821 -359.914 554.06 -376.93C552.339 -383.024 550.057 -388.823 547.327 -394.38C547.197 -395.85 548.772 -394.298 548.641 -395.768C541.784 -408.214 538.692 -422.658 529.784 -434.017C529.941 -434.763 530.547 -434.725 530.678 -435.524C527.973 -438.571 525.358 -441.663 524.554 -445.717C529.874 -444.039 535.481 -439.579 534.632 -433.486C538.526 -427.853 541.498 -421.734 547.109 -417.011C546.964 -416.015 547.326 -415.289 546.695 -414.035C553.137 -403.779 554.909 -391.052 563.209 -381.781C563.514 -373.309 568.908 -364.602 572.769 -356.868C572.46 -355.147 570.907 -355.623 570.86 -353.44C571.959 -352.489 573.177 -352.397 573.729 -353.929C575.005 -347.367 579.191 -342.349 579.151 -335.089C583.492 -331.302 585.404 -326.234 585.76 -320.331C585.231 -319.611 583.449 -321.114 583.007 -320.25C583.931 -318.862 587.001 -318.933 588.454 -318.66C588.062 -314.424 587.73 -310.846 590.149 -308.873C590.098 -307.525 588.766 -308.425 588.716 -307.077C589.119 -304.881 591.725 -303.85 592.673 -301.94C592.59 -300.434 591.705 -300.356 591.122 -299.741C591.138 -298.483 593.559 -298.502 594.121 -297.536C593.369 -293.694 596.465 -291.89 596.466 -288.443C597.36 -287.601 598.25 -289.674 598.264 -288.363C599.464 -282.936 601.307 -278.06 600.624 -273.07C606.283 -264.932 601.852 -251.437 610.608 -244.936C609.772 -242.656 610.317 -241.105 610.855 -239.556C616.586 -237.995 614.932 -232.527 618.472 -229.807C620.173 -245.301 604.305 -256.296 607.807 -272.745C613.15 -266.847 616.952 -260.129 618.673 -252.317C621.285 -249.215 624.81 -245.165 622.527 -240.573C625.913 -233.293 623.947 -223.175 629.268 -216.924L628.554 -214.477C637.037 -210.355 634.423 -200.354 642.234 -195.88C644.688 -185.465 653.679 -178.516 654.852 -167.419ZM586.056 -427.754C586.831 -429.637 585.385 -430.308 583.641 -430.814C582.887 -428.943 584.061 -428.126 586.056 -427.754ZM581.628 -402.445C570.801 -409.137 571.442 -421.894 564.831 -430.816C573.528 -436.319 569.814 -418.052 579.492 -418.568C579.711 -417.305 580.935 -416.572 580.218 -414.813C577.339 -415.119 577.265 -418.392 575.231 -418.038C574.517 -415.474 578.184 -415.229 579.98 -413.998C584.385 -400.458 589.403 -387.244 595.896 -374.811L595.063 -371.957C600.833 -357.395 606.628 -341.069 612.734 -327.831C617.305 -324.618 616.775 -318.702 624.152 -316.971C624.444 -315.863 625.445 -315.125 624.455 -313.341C623.496 -313.802 623.326 -312.861 622.238 -313.546C620.318 -313.792 621.964 -315.927 620.854 -316.607C619.265 -314.611 620.188 -310.971 622.547 -309.913C624.076 -309.107 625.018 -312.51 625.961 -310.686C623.476 -301.508 633.29 -297.147 631.103 -289.258C631.234 -288.065 632.421 -287.428 634.11 -287.054C634.909 -282.186 639.428 -279.292 642.108 -275.42C641.394 -267.909 645.128 -262.756 649.284 -257.829C649.349 -256.06 647.777 -257.196 647.429 -256.155C647.618 -250.151 654.302 -245.78 652.739 -239.994C653.117 -239.273 654.447 -239.056 655.56 -238.724C656.276 -237.149 656.904 -235.526 656.772 -233.501C663.47 -226.812 662.196 -215.904 669.898 -209.744C671.18 -205.134 673.978 -201.329 675.744 -196.968L675.029 -194.519C678.294 -191.882 677.918 -187.311 678.054 -183.013C671.264 -197.015 658.536 -207.87 655.295 -223.748C653.727 -224.07 652.58 -224.613 651.63 -225.26C650.383 -233.574 647.54 -241.036 640.972 -246.528C641.146 -247.867 641.982 -248.042 642.83 -248.201C639.533 -252.438 637.101 -257.126 638.238 -263.71C636.063 -265.204 634.187 -266.857 635.044 -269.955C634.199 -271.462 632.35 -272.441 631.677 -274.037C630.358 -281.045 626.135 -286.513 624.019 -293.099C622.649 -293.179 622.609 -293.963 621.617 -294.243C618.58 -301.144 617.756 -309.218 613.18 -315.305L613.656 -316.935C602.446 -338.49 591.005 -359.917 586.042 -384.775C585.868 -385.602 584.787 -385.95 584.3 -386.611C584.354 -387.958 585.679 -387.06 585.731 -388.405C580.811 -390.693 577.907 -398.968 581.628 -402.445ZM484.784 -454.309C481.734 -454.64 477.719 -453.849 474.709 -456.004C475.206 -457.059 476.045 -457.503 477.218 -457.346C478.777 -457.538 477.072 -455.982 478.053 -455.857C479.594 -456.894 484.013 -457.311 485.118 -455.455L484.784 -454.309ZM659.769 -128.202C657.587 -122.654 660.697 -118.839 657.77 -115.128C655.638 -118.24 653.304 -121.241 654.092 -125.891C651.112 -129.701 647.303 -133.069 648.374 -139.017C642.257 -145.86 637.632 -153.494 633.542 -161.408C630.503 -162.666 628.793 -164.623 628.981 -167.587C625.129 -175.514 619.776 -182.643 617.793 -191.559C615.305 -193.907 613.966 -196.867 614.059 -200.577C602.645 -214.587 597.111 -231.696 588.579 -247.222C580.075 -264.941 574.621 -284.276 569.108 -303.57C569.252 -304.96 569.947 -305.378 570.356 -306.29C568.455 -320.17 559.825 -330.493 557.279 -344.032C556.66 -344.965 555.139 -345.419 554.283 -346.227C555.508 -350.656 552.602 -354.982 549.05 -354.8C552.083 -363.483 538.414 -366.678 543.325 -374.099C541.5 -376.8 538.405 -378.83 536.904 -381.699C536.877 -385.917 537.126 -390.289 534.303 -393.031C534.703 -393.751 535.5 -393.788 535.729 -394.815C526.825 -407.974 527.068 -425.958 512.292 -436.022C511.627 -437.136 512.842 -437.117 513.002 -438.456C509.103 -440.402 505.914 -442.726 507.481 -447.56C508.884 -448.257 511.166 -447.505 512.088 -446.215C517.885 -437.254 528.298 -430.73 530.281 -419.755C531.165 -417.362 533.359 -415.658 534.841 -413.58C534.737 -404.689 541.815 -396.668 541.496 -386.527C550.423 -374.412 554.098 -359.528 563.305 -347.559C562.728 -346.338 563.649 -345.904 562.894 -344.594C562.822 -343.177 564.631 -342.764 565.774 -341.99C565.632 -340.399 564.554 -340.457 564.408 -338.864C568.771 -336.93 565.176 -330.803 570.77 -329.518C570.923 -328.242 570.639 -327.268 569.822 -326.271C570.406 -324.287 572.966 -323.35 573.906 -321.554C572.34 -314.864 576.398 -308.027 575.211 -302.672C576.177 -300.662 578.483 -299.365 579.591 -297.426C579.794 -287.24 583.565 -279.081 588.09 -272.035C591.11 -251.538 603.764 -236.119 610.904 -217.799C612.976 -217.06 613.887 -215.71 615.461 -214.705C615.288 -213.367 614.285 -213.495 614.21 -211.986C625.377 -190.636 636.761 -169.402 649.966 -149.125C649.37 -147.456 650.084 -147.011 649.018 -145.877C653.558 -141.865 655.738 -136.605 656.351 -130.52C656.594 -129.273 658.998 -129.173 659.769 -128.202ZM592.885 -418.294C592.563 -420.422 591.014 -422.03 587.109 -422.647C586.681 -420.375 590.018 -417.237 592.885 -418.294ZM495.35 -429.196C496.449 -438.833 481.985 -442.856 483.705 -450.612C486.533 -449.33 489.814 -448.288 493.31 -447.361C496.449 -438.775 508.072 -434.735 509.303 -425.124C510.15 -423.829 512.06 -423.103 513.468 -422.105C513.457 -419.065 514.045 -416.345 517.392 -415.106C520.569 -403.157 531.102 -395.15 533.137 -382.584C526.09 -383.029 523.944 -389.075 523.178 -394.047C518.031 -400.98 512.617 -407.762 507.663 -414.792C509.148 -419.95 503.156 -426.73 495.35 -429.196ZM589.658 -410.548C590.498 -412.14 590.076 -414.105 590.844 -414.61C592.417 -414.289 593.568 -413.746 594.52 -413.097C594.652 -410.185 595.939 -407.88 598.454 -406.215C595.283 -402.325 602.518 -399.306 599.77 -393.487C605.231 -384.283 613.008 -373.508 610.296 -362.196C610.624 -360.528 612.556 -359.708 613.257 -358.244C616.105 -344.024 628.2 -334.655 631.028 -320.427C633.722 -317.941 635.784 -315.126 638.875 -312.844C641.201 -302.444 649.11 -292.097 654.088 -281.949C655.482 -268.459 662.169 -257.746 670.16 -247.714C671.382 -238.495 673.851 -229.924 677.778 -222.121C677.217 -221.262 676.06 -221.445 675.501 -220.579C682.741 -216.806 681.535 -206.789 682.013 -200.601C679.438 -204.755 675.137 -208.006 675.826 -213.87C674.581 -215.746 674.081 -212.374 672.1 -213.636C671.054 -215.039 672.161 -215.782 673.05 -216.89C665.384 -231.445 665.098 -249.876 651.766 -261.463C651.999 -263.101 653.327 -262.818 653.862 -263.938C653.469 -265.417 652.634 -264.53 651.03 -265.202C650.687 -265.825 650.975 -266.776 651.318 -267.764C646.354 -285.574 635.389 -300.238 629.777 -317.705C627.195 -319.218 625.924 -321.417 624.1 -323.33C625.017 -327.139 622.029 -328.895 622.137 -332.279C611.903 -335.97 614.776 -346.535 608.294 -352.195C608.485 -353.703 610.078 -352.759 610.269 -354.268C605.554 -362.242 605.785 -370.705 600.371 -378.321C600.722 -379.346 601.172 -380.188 601.927 -380.51C598.47 -384.432 597.318 -389.561 597.057 -395.16C594.022 -398.436 591.172 -403.084 592.436 -407.531C592.595 -409.106 590.11 -409.292 589.658 -410.548ZM411.5 -438.909C409.934 -439.922 414.061 -440.747 414.965 -441.428C415.406 -442.464 414.396 -442.732 413.639 -443.137C417.863 -445.784 425.086 -440.536 428.115 -445.976C432.178 -443.741 433.639 -446.095 435.768 -447.27C438.101 -446.898 438.092 -445.288 439.484 -444.422C456.261 -443.068 465.088 -428.587 480.687 -426.657C477.77 -435.204 465.777 -438.951 462.094 -447.091C459.826 -448.009 458.247 -447.7 456.41 -447.865C456.377 -447.276 457.359 -447.223 457.966 -446.97C452.268 -445.928 450.798 -452.402 446.996 -454.584C455.853 -454.075 458.474 -449.615 466.515 -449.772C470.515 -445.926 475.273 -442.481 480.24 -439.146C479.4 -435.722 482.942 -434.616 485.22 -432.836C481.783 -423.57 492.968 -422.036 494.713 -415.505L498.065 -414.526C499.173 -412.13 500.333 -409.761 501.433 -407.364C503.279 -406.914 505.099 -407.192 506.46 -405.897C509.307 -395.02 518.04 -387.256 523.214 -377.616C527.876 -375.689 528.561 -371.531 533.465 -370.652C533.657 -358.603 546.069 -353.015 545.615 -340.622C546.014 -339.225 548.109 -341.43 548.549 -339.765C551.373 -334.038 552.525 -327.427 557.205 -322.679C557.603 -314.867 558.275 -307.192 562.879 -301.603C563.069 -298.735 562.712 -297.082 562.654 -294.608C560.902 -294.82 559.688 -294.085 557.99 -294.206C551.93 -320.58 539.569 -343.617 524.079 -365.005C523.985 -365.983 523.403 -366.709 524.076 -368.095C522.687 -368.737 522.163 -369.835 520.661 -370.415C520.05 -379.951 506.774 -382.789 506.132 -392.308C504.703 -392.929 503.975 -393.921 502.177 -394.347C493.916 -404.54 486.511 -417.004 469.627 -421.501C464.167 -425.362 455.553 -429.028 451.112 -434.407C438.28 -440.078 424.126 -441.139 413.778 -437.362C412.715 -437.718 411.849 -438.175 411.5 -438.909ZM610.674 -402.795C609.751 -403.233 608.951 -405.575 607.682 -404.614C608.467 -404.096 609.729 -402.03 610.674 -402.795ZM625.514 -370.56C616.022 -374.892 613.824 -389.004 610.724 -398.944C611.993 -399.574 614.904 -398.08 615.931 -397.424C616.105 -395.689 614.51 -396.985 614.464 -395.623C617.038 -393.193 620.651 -389.594 622.959 -386.012L621.88 -382.317C623.472 -380.397 627.427 -378.016 624.424 -374.889C624.812 -373.679 627.396 -371.775 625.514 -370.56ZM639.037 -371.299C640.023 -373.241 635.606 -375.618 633.827 -377.506C635.129 -375.266 635.84 -372.791 639.037 -371.299ZM637.481 -88.0791C643.647 -85.212 644.143 -78.2217 643.842 -73.8522C641.995 -73.212 641.182 -75.5082 641.606 -77.157C639.967 -78.1295 635.446 -77.5911 637.026 -80.2595C632.441 -79.4564 632.507 -83.7 629.969 -85.8542C630.093 -87.4847 631.05 -87.6536 631.34 -88.9886C624.531 -96.7772 620.335 -105.948 618.256 -116.227C608.751 -125.128 608.948 -139.131 600.222 -148.445C599.849 -152.727 597.508 -155.977 597.836 -160.628C597.026 -161.813 595.348 -162.537 594.638 -163.772C586.303 -181.329 585.111 -202.648 571.958 -217.668C567.013 -235.405 556.358 -250.131 553.562 -268.993C553.719 -270.769 554.813 -270.894 555.046 -272.536C549.625 -287.262 546.124 -302.997 537.037 -315.792C530.506 -342.112 511.522 -361.882 495.426 -383.173L491.634 -384.28C490.477 -389.296 486.179 -392.665 481.253 -395.704C479.042 -397.647 478.209 -400.305 476.896 -402.721C462.817 -409.607 448.883 -417.7 433.593 -421.988C431.958 -421.771 430.315 -421.575 428.786 -421.181C421.912 -426.179 415.799 -423.549 408.081 -425.456C401.001 -423.203 393.565 -422.91 384.216 -423.586C384.917 -426.257 387.319 -425.945 388.29 -428.139C403.667 -431.053 421.689 -433.415 438.617 -429.799C439.259 -429.335 438.953 -428.367 439.405 -427.803C460.705 -422.133 477.082 -411.782 488.933 -400.09L492.725 -398.983C494.715 -393.478 502.397 -390.972 502.157 -384.298C503.599 -383.677 504.328 -382.683 506.136 -382.254C515.254 -371.199 521.459 -358.609 531.872 -348.23C531.271 -344.699 534.818 -343.348 533.949 -339.671C539.69 -333.617 542.557 -326.05 544.006 -317.734C547.031 -315.224 551.205 -307.555 550.069 -304.039C551.124 -303.787 552.12 -303.506 552.479 -302.891C552.423 -295.05 555.646 -288.934 555.74 -281.172C556.283 -280.193 557.595 -279.619 558.755 -278.968C559.446 -275.076 556.162 -269.104 560.841 -267.31C560.773 -259.463 563.835 -253.262 567.887 -247.579C567.483 -241.514 570.681 -237.332 574.251 -233.349C579.073 -218.309 589.248 -206.089 591.178 -189.525C592.213 -187.886 593.88 -186.579 595.407 -185.198C595.571 -184.135 594.957 -182.664 595.295 -181.695C599.648 -179.041 601.973 -175.329 599.909 -169.306C607.12 -163.331 604.043 -151.948 612.497 -146.627C611.935 -145.184 611.793 -143.96 611.848 -142.84C619.808 -136.228 615.709 -123.269 625.531 -117.638C625.067 -113.26 628.716 -111.042 628.273 -106.675C629.227 -105.681 631.577 -105.427 632.129 -104.222C632.474 -103.139 632.618 -101.951 631.904 -100.311C634.745 -96.751 637.863 -93.3372 637.481 -88.0791ZM643.443 -346.049C637.727 -350.426 638.791 -358.336 638.566 -365.579L639.41 -365.332C647.209 -351.465 649.266 -334.601 656.701 -320.543C656.21 -321.197 655.767 -321.326 655.007 -321.038C658.414 -304.307 665.879 -290.741 670.124 -275.119C675.235 -267.438 681.353 -260.276 680.602 -249.539C680.967 -248.699 682.965 -248.702 683.33 -247.861C683.064 -243.662 684.488 -242.157 681.869 -238.132C679.307 -239.439 677.605 -241.197 678.631 -244.373C672.696 -259.445 663.847 -272.994 658.324 -288.278C658.603 -289.787 658.248 -290.427 659.273 -291.53C657.035 -298.067 653.744 -304.054 649.865 -309.732C651.019 -317.35 647.709 -322.638 647.884 -329.737L644.913 -330.604C644.144 -335.642 642.916 -341.376 643.443 -346.049ZM631.826 -350.557C631.773 -348.801 630.66 -348.946 629.885 -348.491C635.264 -337.389 642.574 -327.329 643.414 -313.789C634.941 -322.544 633.581 -338.077 624.239 -347.502C624.647 -348.821 625.859 -348.709 626.009 -350.5C625.972 -352.414 623.195 -352.854 622.188 -354.248C623.965 -357.29 623.209 -362.627 619.973 -365.003C621.006 -366.788 619.986 -368.592 621.272 -369.455C625.972 -367.883 627.207 -364.454 631.316 -362.57C630.273 -361.142 627.498 -362.829 626.784 -360.817C627.666 -356.963 627.548 -352.579 631.826 -350.557ZM664.825 -322.769C663.49 -332.355 660.643 -341.068 654.894 -349.098C657.732 -339.785 657.675 -330.285 664.825 -322.769ZM372.843 -406.433C369.156 -406.046 368.637 -407.74 365.958 -409.32C367.491 -410.448 370.245 -412.227 372.233 -410.57C373.521 -415.47 379.198 -412.66 381.49 -415.796C387.695 -413.981 394.831 -415.624 401.652 -414.756C403.029 -414.223 402.345 -412.6 403.575 -411.992C406.398 -412.766 409.364 -413.283 412.305 -413.846C414.755 -413.419 416.107 -412.418 416.978 -411.162C462.237 -404.94 495.14 -377.404 509.116 -348.167C519.507 -342.77 517.239 -330.699 524.745 -323.791C524.569 -322.457 523.302 -323.044 522.895 -322.125C529.088 -319.444 529.757 -313.846 530.173 -308.115C536.045 -295.529 547.067 -283.836 547.042 -269.285C539.849 -274.08 540.204 -282.849 533.887 -288.1C533.51 -292.133 532.848 -296.022 527.515 -297.441C528.352 -298.949 528.475 -299.373 528.581 -301.095C520.417 -320.13 506.878 -336.343 497.906 -354.957C493.533 -355.856 493.832 -359.216 490.476 -360.648C487.345 -373.993 467.984 -378.775 460.298 -389.714C457.167 -390.348 455.028 -391.511 454.062 -393.29C448.687 -393.5 446.863 -398.057 441.782 -399.517C436.39 -398.678 428.462 -404.071 422.745 -402.874C421.015 -403.478 423.37 -404.087 421.962 -404.862C417.093 -406.71 413.831 -403.762 410.829 -407.232C399.015 -407.723 386.832 -408.863 375.35 -408.781C374.07 -408.777 373.84 -406.93 372.843 -406.433ZM665.427 -330.311C666.096 -331.89 665.089 -332.557 664.447 -333.423C663.799 -331.855 664.05 -330.773 665.427 -330.311ZM355.104 -392.618C353.79 -390.772 356.019 -390.801 356.612 -389.965C354.753 -389.122 352.157 -389.573 349.71 -389.766C350.205 -392.185 351.483 -393.23 352.217 -395.229C361.42 -395.287 366.324 -402.904 378.796 -397.205C397.805 -399.454 420.461 -394.411 438.594 -386.384C440.053 -385.675 440.916 -386.007 441.776 -386.343C443.774 -382.224 451.166 -380.96 454.219 -377.4C466.307 -375.069 471.221 -367.829 478.442 -361.925C481.07 -359.776 480.902 -358.908 482.838 -356.661C484.704 -354.49 487.872 -353.796 489.692 -352.004C493.431 -348.324 493.921 -340.202 501.548 -337.923C506.034 -328.799 509.198 -318.979 517.697 -311.973C517.384 -310.89 516.857 -309.691 517.284 -308.999C517.977 -308.098 519.991 -307.902 520.827 -307.081C521.016 -295.913 528.774 -288.747 532.901 -279.662C534.459 -278.383 535.23 -279.708 536.264 -278.681C535.944 -272.424 542.157 -269.611 544.519 -264.769C544.229 -263.811 544.896 -263.356 544.228 -262.199C555.821 -236.371 569.37 -211.58 576.952 -183.628C577.63 -182.153 579.76 -181.433 580.44 -179.954C581.167 -165.628 592.404 -156.852 591.099 -141.45C595.902 -137.782 597.997 -132.677 597.614 -126.274C600.141 -122.895 603.233 -119.818 602.446 -114.688C607.668 -109.169 609.988 -102.119 611.138 -94.4541C617.215 -87.6667 622.293 -80.3493 627.217 -72.9481C627.02 -71.2344 627.727 -69.9988 627.707 -68.3817C629.136 -66.6453 630.862 -65.871 631.682 -63.237C629.237 -60.0583 631.775 -58.196 632.719 -55.8589C627.261 -53.1505 627.434 -60.3602 622.924 -61.3733C622.874 -75.1987 611.202 -81.0038 604.664 -91.0332C606.21 -94.8372 602.504 -95.8693 603.982 -99.6402C592.709 -119.199 583.262 -139.726 578.085 -162.503C570.169 -178.324 571.824 -199.2 557.794 -211.785C554.636 -228.619 542.198 -240.552 541.354 -258.611C533.764 -262.766 533.37 -270.715 527.151 -275.591C527.513 -276.934 526.409 -277.5 527.26 -279.099C518.2 -288.561 514.846 -301.042 506.418 -310.842L507.132 -313.289C501.996 -318.964 499.347 -325.955 495.323 -332.222C486.96 -335.046 489.535 -343.646 480.702 -346.221C480.603 -347.434 480.464 -348.622 480.933 -350.135L476.73 -351.361C471.122 -359.895 459.313 -365.15 453.029 -373.324C448.943 -373.936 444.892 -374.485 440.781 -375.128C439.098 -375.619 439.946 -377.443 438.978 -378.309C427.792 -379.114 421.237 -384.916 411.047 -387.349C403.076 -387.413 393.473 -389.214 384.573 -391.98C379.621 -392.05 374.705 -392.059 369.927 -391.828C368.026 -392.201 366.712 -392.885 365.959 -393.87C362.692 -392.838 358.614 -393.223 355.104 -392.618ZM670.742 -298.783C668.731 -301.247 667.469 -304.14 664.848 -306.254C666.67 -311.962 661.602 -315.447 664.353 -320.564C667.377 -315.286 668.653 -309.011 672.289 -304.083L670.742 -298.783ZM352.643 -373.749C349.839 -376.135 347.13 -376.61 346.46 -372.915C344.299 -373.222 342.322 -373.205 340.211 -373.418C341.661 -375.981 344.753 -375.688 345.891 -378.795C346.723 -379.381 348.662 -378.042 349.493 -378.625C352.693 -383.558 361.462 -384.198 367.078 -380.966C369.183 -380.964 370.486 -382.361 371.629 -384.036C384.95 -381.754 400.504 -384.111 413.042 -377.222C418.269 -378.444 426.997 -374.568 429.281 -370.283C436.13 -370.319 440.294 -364.666 446.121 -365.367C449.876 -359.784 460.615 -357.849 462.581 -351.333C464.528 -350.977 465.674 -350.204 467.094 -349.573C467.875 -348.152 468.18 -346.479 468.974 -345.068C475.34 -342.223 476.711 -336.758 480.384 -332.504C487.803 -330.095 488.847 -324.35 491.672 -319.536L495.036 -318.554C494.729 -317.477 494.208 -316.288 494.633 -315.597C495.373 -314.608 497.745 -314.475 498.607 -313.555C499.827 -310.534 499.867 -306.891 503.99 -305.392C503.52 -299.885 508.25 -297.095 512.568 -294.094C512.605 -293.08 512.336 -291.913 512.584 -291.012C518.981 -285.893 518.134 -276.982 524.856 -272.043C525.195 -268.899 525.233 -265.6 529.517 -264.527C529.184 -257.351 536.003 -256.036 538.112 -250.146C536.737 -250.301 535.273 -250.617 534.086 -250.439C550.873 -229.612 554.421 -201.151 567.744 -179.506C566.978 -164.809 579.155 -156.879 579.381 -142.695C570.95 -147.552 570.456 -156.56 564.157 -162.528C559.511 -181.149 551.805 -198.165 542.781 -214.49C543.252 -215.766 542.535 -216.424 543.303 -217.855C530.821 -243.358 517.035 -268.177 503.622 -293.188C501.979 -293.812 501.08 -293.147 499.299 -294.011C497.644 -302.984 489.754 -308.695 486.281 -316.714C477.22 -323.869 471.499 -332.776 464.07 -340.786C455.604 -344.932 450.514 -350.849 444.9 -356.493C424.482 -359.267 414.492 -378.887 393.535 -374.564C391.944 -374.878 393.824 -377.001 391.481 -376.921C389.123 -377.534 390.828 -374.836 388.971 -374.575C379.744 -377.128 372.99 -374.559 365.593 -377.44L364.529 -373.797C361.16 -373.853 358.107 -374.091 354.611 -375.81C353.21 -376.426 353.727 -373.682 352.643 -373.749ZM675.291 -296.284C678.511 -295.323 679.426 -293.648 679.221 -291.622C677.737 -292.726 675.698 -293.662 674.332 -294.808C674.395 -295.604 674.774 -296.026 675.291 -296.284ZM674.787 -292.523C675.278 -291.452 675.58 -290.278 676.766 -289.587C677.464 -291.085 676.136 -293.356 674.787 -292.523ZM351.324 -359.679C343.849 -360.701 338.476 -358.123 332.545 -356.496C330.469 -357.134 328.249 -357.688 327.833 -359.173C328.74 -361.614 331.275 -361.262 334.132 -360.366C335.47 -361.151 334.317 -362.718 335.297 -364.357C347.096 -366.516 359.218 -368.122 371.241 -369.893C373.042 -369.797 372.163 -368.329 373.958 -368.234C378.339 -370.117 385.916 -366.533 389.508 -369.757C397.276 -367.935 412.731 -372.253 418.583 -364.303C410.262 -360.789 399.31 -362.068 391.166 -359.746C387.991 -363.776 384.043 -359.975 379.777 -363.071C371.198 -360.392 358.993 -363.915 351.324 -359.679ZM612.452 -63.7666C620.907 -55.7075 621.284 -43.398 627.569 -34.192C626.848 -32.5858 625.686 -31.7565 624.396 -31.1493C615.726 -38.6359 613.941 -49.7503 607.186 -58.2445C607.765 -59.4677 606.849 -59.8996 607.596 -61.2117C606.376 -62.1766 605.27 -63.2038 603.861 -64.0692C604.721 -66.8193 602.11 -67.7397 602.458 -70.2149C592.665 -75.4165 593.578 -85.0915 588.269 -92.0154L588.862 -94.0472C579.346 -106.826 577.742 -123.772 565.717 -135.232C550.811 -158.832 539.883 -184.525 528.646 -210.057C529.336 -212.716 528.266 -214.45 528.321 -216.773C523.268 -225.59 515.156 -232.796 514.834 -244.105C514.334 -244.992 512.457 -245.151 511.166 -245.617C510.241 -247.078 509.937 -248.872 510.483 -251.115C502.864 -261.105 500.72 -273.976 489.9 -282.285C487.351 -286.909 484.148 -291.194 481.503 -295.767C479.107 -295.946 477.824 -296.508 476.153 -297.772C475.48 -299.025 477.512 -298.998 477.523 -300.904C465.331 -307.799 461.895 -319.3 451.366 -327.076C450.761 -328.365 450.446 -329.806 449.79 -331.068C440.884 -335.563 436.104 -342.227 426.916 -346.573C418.885 -350.672 406.524 -350.13 400.875 -355.939C416.819 -365.932 438.31 -349.155 452.34 -341.357C452.195 -339.764 451.11 -339.824 450.967 -338.227C466.19 -327.854 477.099 -312.282 487.203 -298.078L490.149 -297.218C501.943 -282.192 513.155 -266.861 518.365 -248.373C526.181 -238.941 528.833 -226.796 535.649 -216.843C535.589 -215.508 534.574 -215.857 534.516 -214.524C538.409 -203.95 543.147 -193.819 549.511 -184.544C550.363 -175.812 556.835 -170.033 557.282 -161.089C563.236 -152.977 568.521 -144.51 576.404 -137.411C577.125 -133.545 577.967 -129.745 582.259 -127.758L581.546 -125.314C582.518 -124.852 582.68 -125.792 583.77 -125.109C584.955 -109.779 596.799 -100.056 599.101 -85.3226C600.411 -82.4521 602.588 -80.0397 606.213 -78.3924C606.052 -72.3348 614.176 -70.6415 612.452 -63.7666ZM680.854 -273.787C678.868 -274.166 678.307 -275.321 678.433 -276.852C678.882 -276.928 679.33 -277.002 679.56 -277.465C681.069 -276.828 681.257 -275.469 680.854 -273.787ZM338.384 -373.535C336.657 -374.015 335.533 -373.401 335.01 -371.691C336.343 -371.927 337.13 -373.149 338.384 -373.535ZM592.927 -26.2069C600.866 -19.8249 598.561 -8.04587 606.274 -1.54511C606.115 2.55889 610.114 4.47405 607.514 9.86173C605.996 10.2785 603.996 9.84285 601.805 9.07826C601.519 5.55577 599.946 2.71161 599.67 -0.821208C589.816 -7.68651 592.944 -21.3894 581.93 -27.6512C581.053 -33.1582 578.719 -37.9008 574.078 -41.4298C576.75 -56.0432 562.854 -61.9241 564.006 -75.7392C561.926 -76.0202 561.244 -77.0428 559.494 -77.4976C550.645 -94.1957 544.923 -112.544 534.648 -128.489C535.319 -129.644 534.656 -130.101 534.944 -131.054C532.969 -133.92 531.629 -137.121 529.27 -139.78C526.003 -157.583 513.389 -170.458 509 -187.673C505.756 -195.837 501.045 -203.234 498.719 -211.884C496.589 -215.586 493.718 -218.895 493.997 -223.863C488.49 -231.298 483.599 -239.06 481.488 -248.283C470.502 -258.115 470.337 -273.645 461.495 -284.606C462.162 -286.216 461.863 -287.325 461.723 -288.512C460.708 -291.427 457.397 -293.125 456.112 -295.895C458.603 -304.441 446.568 -305.338 446.331 -312.447C444.384 -312.797 443.242 -313.572 441.826 -314.203C439.825 -321.191 429.148 -323.602 425.322 -329.624C417.542 -332.468 411.672 -339.834 403.118 -342.733C395.429 -345.339 388.156 -343.806 381.008 -345.21C368.434 -343.666 352.936 -344.013 340.835 -343.681C330.208 -341.608 321.115 -336.84 310.414 -334.888C311.011 -342.662 317.77 -339.632 319.45 -345.506C335.477 -345.699 347.893 -352.231 365.438 -349.755C367.796 -349.726 369.558 -350.737 371.443 -351.537C372.877 -351.375 373.319 -350.686 374.264 -350.275C392.259 -355.953 410.743 -346.38 428.722 -336.584C428.788 -335.586 429.14 -334.739 428.731 -333.488C433.383 -331.465 441.148 -331.079 440.825 -326.426C454.951 -318.347 462.994 -304.124 469.759 -291.029L468.69 -287.365C472.541 -277.557 479.265 -269.277 481.275 -258.505C490.172 -248.723 496.612 -237.65 501.918 -225.972C501.321 -224.624 501.415 -223.641 501.384 -222.59C502.424 -220.497 503.54 -218.442 505.667 -216.922C504.596 -214.175 506.769 -213.142 506.644 -210.892C507.484 -209.955 508.899 -209.321 509.538 -208.282C512.416 -193.718 520.434 -181.868 524.739 -168.054C532.253 -155.017 534.988 -139.461 546.003 -128.271C544.328 -123.255 548.875 -121.513 548.741 -117.309C550.69 -116.955 551.834 -116.183 553.25 -115.552C553.832 -111.495 556.72 -108.652 555.75 -103.777C558.389 -99.7686 560.526 -95.4951 561.495 -90.6138C562.711 -88.4963 564.745 -86.8091 566.739 -85.1037C566.91 -82.8996 567.731 -81.036 569.758 -79.8052C570.432 -66.251 585.007 -58.2314 582.12 -43.9411C586.969 -38.6849 591.075 -33.0425 592.927 -26.2069ZM642.764 -112.367C642.959 -110.179 647.202 -110.134 647.917 -108.215C647.753 -103.545 652.46 -101.451 650.156 -95.6483C646.64 -94.9372 646.293 -98.0886 642.08 -97.5647C641.583 -99.2528 643.581 -102.256 643.023 -103.909C642.112 -105.201 640.754 -103.344 639.013 -104.197C638.651 -105.57 638.723 -107.556 639.899 -108.788C639.468 -112.572 634.93 -114.187 633.301 -117.337C635.321 -122.689 628.536 -125.314 629.623 -131.208C628.485 -132.209 627.316 -133.198 625.909 -134.056C621.057 -145.243 616.918 -156.805 606.822 -165.223C602.517 -186.098 593.218 -204.331 585.643 -223.475C571.873 -240.032 567.705 -261.67 563.02 -283.03C561.185 -285.043 559.937 -289.187 562.581 -292.426C564.362 -293.117 565.489 -291.163 566.534 -290.387C569.79 -273.316 578.459 -259.103 582.545 -242.471C583.23 -241.228 584.738 -240.416 585.722 -239.339C584.489 -236.393 587.205 -235.537 585.5 -232.344C595.753 -224.929 594.853 -211.614 603.927 -203.573C605.323 -186.667 615.137 -174.202 620.588 -159.438C629.931 -151.539 627.208 -137.263 637.939 -130.104C637.545 -128.406 639.283 -127.833 638.548 -125.955C638.46 -124.99 640.768 -125.294 640.824 -124.405C640.414 -122.127 640.812 -120.277 639.759 -117.656C643.923 -117.164 644.745 -116.007 647.967 -113.056C646.114 -110.491 644.841 -114.225 642.764 -112.367ZM408.872 -331.033C407.152 -336.952 390.914 -345.37 386.146 -337.667C389.912 -331.574 401.712 -331.329 408.872 -331.033ZM367.482 -338.097C363.288 -339.33 359.445 -340.052 357.891 -337.426C360.684 -336.298 365.573 -336.259 367.482 -338.097ZM589.002 2.77593C589.814 3.72339 591.505 4.20729 592.432 5.09943C594.978 12.7082 595.578 21.976 594.609 30.4467C591.303 29.3174 592.202 23.0004 584.985 22.7822C583.448 19.9517 585.639 17.7689 587.728 16.5198C587.749 15.48 585.121 15.828 585.022 14.8486C582.421 -1.67136 570.148 -13.0963 563.116 -27.2876C564.323 -32.8566 559.531 -35.2652 559.054 -39.9442C558.052 -41.4506 556.755 -40.7499 556.046 -42.1412C556.275 -43.7522 555.392 -44.7798 555.974 -46.577C554.353 -48.9351 552.869 -51.365 550.671 -53.4213C550.988 -54.73 550.243 -55.4869 550.784 -56.9181C542.892 -64.574 543.917 -76.9298 537.673 -85.4535C532.122 -108.565 517.331 -126.811 511.793 -149.928C501.543 -162.414 497.529 -178.195 492.042 -193.195C489.458 -194.933 488.701 -197.628 486.62 -199.633C483.376 -216.617 471.778 -229.203 465.003 -244.333C463.118 -244.712 463.182 -246.121 461.577 -246.656C458.649 -265.412 449.305 -280.792 436.234 -294.203C432.094 -305.208 420.394 -317.373 404.663 -318.863C403.193 -319.351 403.122 -320.576 401.654 -321.067C390.795 -320.236 373.336 -330.997 366.314 -323.437C362.776 -324.724 360.916 -323.069 358.64 -322.148C347.433 -326.028 341.363 -320.904 332.911 -319.953C331.991 -320.728 330.087 -320.985 330.446 -322.436C328.588 -322.419 327.299 -321.404 325.532 -321.222C315.019 -326.143 310.637 -320.3 305.635 -315.559C303.167 -316.052 300.537 -314.043 298.734 -315.366C299.091 -320.538 305.785 -319.755 308.008 -323.689C310.487 -324.666 313.222 -325.194 315.317 -326.852C323.905 -329.816 335.037 -328.32 345.361 -328.228C353.586 -331.837 363.461 -332.547 372.699 -334.371C376.727 -332.211 382.954 -332.459 385.791 -329.223C388.828 -328.84 391.127 -328.956 393.355 -327.016C401.283 -326.017 408.699 -325.922 417.421 -323.521C431.361 -316.712 437.146 -306.95 446.062 -296.63C453.793 -287.686 459.411 -279.276 463.007 -268.739C462.864 -266.781 462.193 -266.335 462.356 -264.959C464.094 -260.254 467.627 -256.492 471.094 -252.7C470.533 -251.255 470.391 -250.034 470.447 -248.922C475.757 -236.917 483.954 -226.439 488.556 -214.069C497.657 -206.363 497.385 -193.721 503.644 -184.515L502.933 -182.078C504.169 -179.056 505.342 -176.003 507.761 -173.606C507.323 -167.072 511.129 -162.764 515.785 -158.911C521.566 -143.72 527.279 -128.493 535.724 -114.705C535.051 -113.088 535.347 -111.982 535.495 -110.801C541.778 -103.213 546.338 -94.7177 547.395 -84.3823C552.442 -75.1126 557.1 -65.6375 558.765 -54.5886C566.607 -50.8059 564.125 -41.5793 569.983 -36.754C570.234 -20.3708 586.948 -12.6599 589.002 2.77593ZM349.407 -336.524C343.76 -341.711 336.234 -337.112 331.334 -334.959C338.251 -331.362 345.27 -333.03 349.407 -336.524ZM683.061 -233.097C681.142 -233.825 680.232 -234.931 680.772 -236.576C681.204 -236.753 682.023 -236.42 682.27 -236.843C683.097 -235.803 683.667 -234.665 683.061 -233.097ZM389.742 -312.932C386.419 -311.882 367.408 -314.217 369.078 -319.421C370.983 -325.348 395.823 -314.972 403.158 -313.135C418.082 -304.585 436.628 -296.118 439.193 -282.021C426.092 -295.17 408.235 -304.248 389.742 -312.932ZM602.309 -45.7215C609.417 -38.4473 612.893 -29.2546 616.792 -20.2776C615.932 -15.4313 614.584 -11.8148 616.05 -6.80026C615.077 -6.65934 614.141 -6.45127 613.168 -6.31032C608.365 -13.999 609.496 -24.8194 602.168 -31.1791C602.52 -32.1637 602.807 -33.1244 602.461 -33.746C595.515 -39.2662 596.288 -48.8629 589.855 -54.6617C589.677 -60.882 586.777 -65.6693 581.291 -69.0928C574.738 -82.8641 566.716 -95.8651 562.978 -111.121C556.597 -116.944 557.095 -126.391 550.369 -132.038C548.952 -137.605 546.908 -142.841 542.886 -147.04C543.199 -148.355 542.453 -149.11 542.994 -150.544C528.03 -172.51 520.002 -198.142 508.631 -222.006C509.366 -223.429 508.419 -223.962 509.158 -225.387C508.492 -226.182 506.87 -226.477 506.034 -227.179C500.339 -240.601 495.579 -254.521 484.731 -265.22C484.544 -275.575 473.627 -280.267 473.428 -290.616C473.505 -291.308 474.032 -291.204 474.206 -291.717C483.765 -288.363 483.065 -276.639 492.692 -272.178C493.634 -267.617 496.581 -264.121 499.869 -260.802C499.281 -249.006 510.581 -243.48 511.179 -232.31C515.321 -227.487 517.971 -221.876 521.191 -216.567C518.555 -211.089 523.303 -207.331 526.63 -203.934C530.949 -185.425 538.222 -168.468 550.427 -154.117C549.376 -148.279 555.784 -146.382 554.129 -140.222C569.2 -124.627 572.861 -103.011 583.701 -85.1839C583.412 -80.6619 586.465 -77.9124 586.736 -73.6912C592.845 -70.0203 595.048 -64.2929 596.329 -58.0736C600.955 -55.3495 601.864 -50.6555 602.309 -45.7215ZM366.663 -320.764C366.464 -319.346 365.717 -318.935 364.413 -319.537L364.92 -321.273L366.663 -320.764ZM568.376 3.81603C570.012 7.38798 572.743 8.34679 575.764 11.2807C573.931 22.9395 584.201 28.2005 582.485 39.7946C570.701 31.779 572.623 16.5104 561.13 8.33572C562.932 4.51339 559.915 3.23334 560.867 -0.144331C550.768 -7.10039 549.657 -18.8135 545.578 -28.9484C538.197 -41.5941 533.873 -55.8618 526.599 -68.5589C526.355 -84.5224 515.613 -94.9324 514.694 -110.539C512.192 -113.925 510.137 -117.55 507.174 -120.695C507.769 -122.045 507.672 -123.03 507.704 -124.08C494.428 -148.78 487.791 -176.988 471.016 -199.839C470.628 -207.336 464.721 -211.91 463.36 -218.889C451.24 -231.444 445.492 -247.368 438.261 -262.504C429.596 -273.894 418.582 -284.047 404.135 -292.378C401.905 -295.949 392.699 -299.642 387.688 -298.505C378.822 -302.489 367.654 -307.362 358.769 -305.62C352.68 -308.117 347.684 -306.078 343.355 -307.463C330.142 -301.723 313.122 -302.685 297.978 -300.352C292.191 -296.954 287.781 -291.148 279.887 -291.473C284.872 -296.21 289.974 -298.845 293.35 -304.801C297.352 -304.54 299.658 -307.272 303.9 -306.588C310.704 -312.167 329.621 -309.578 338.179 -314.728C345.092 -313.251 350.412 -314.585 356.412 -314.718C374.851 -310.365 400.822 -304.279 415.468 -292.168C425.673 -290.783 435.857 -283.492 437.152 -274.331C446.394 -268.305 445.517 -256.918 454.954 -250.993C452.617 -244.754 460.931 -242.561 462.902 -237.611C458.647 -229.427 471.549 -225.16 470.923 -216.682C471.47 -215.368 473.94 -215.062 474.647 -213.827C473.918 -209.536 477.932 -207.747 477.066 -203.385C481.9 -199.163 483.847 -193.408 485.677 -187.595C492.34 -184.225 493.813 -178.107 494.169 -171.398C500.842 -164.931 499.632 -154.291 506.456 -147.898C507.986 -137.448 514.198 -129.472 515.814 -119.057C517.511 -118.35 518.887 -117.467 520.073 -116.487C523.464 -111.271 521.373 -103.152 526.291 -98.7407C529.64 -85.3451 535.945 -73.5082 541.847 -61.4557C544.148 -52.678 545.691 -43.4944 552.511 -37.1026C551.975 -32.6798 556.498 -30.9339 555.235 -26.1295C557.864 -21.888 559.828 -17.2997 560.721 -12.1397C562.929 -6.63897 570.615 -4.0392 568.376 3.81603ZM322.038 -315.181C321.321 -320.247 314.693 -318.182 313.415 -313.8C315.687 -310.769 320.646 -311.824 322.038 -315.181ZM440.248 -281.612C440.084 -279.994 441.78 -276.496 445.508 -275.493C445.812 -278.236 443.366 -281.326 440.248 -281.612ZM435.35 -259.923C435.124 -254.765 442.753 -253.73 440.926 -247.726C429.969 -251.834 427.712 -260.497 417.68 -265.08C415.466 -273.156 402.207 -278.849 394.203 -281.618C392.645 -282.753 392.998 -284.885 391.365 -285.973C378.322 -290.538 363.435 -293.17 353.097 -290.977C346.307 -293.382 338.269 -292.856 333.231 -290.173C328.652 -292.665 327.497 -289.164 323.077 -291.374C307.483 -288.41 292.43 -284.491 277.738 -279.944C279.436 -288.641 290.56 -286.11 294.98 -292.086C310.066 -298.402 330.457 -295.431 345.979 -300.98C361.037 -299.658 378.759 -298.179 398.846 -291.275C399.837 -290.309 399.291 -288.532 400.542 -287.697C412.434 -280.542 426.108 -274.315 430.356 -263.143C432.362 -262.246 432.25 -260.243 435.35 -259.923ZM446.847 -271.586C445.822 -270.439 447.372 -268.247 449.028 -267.435C449.334 -269.33 448.782 -270.8 446.847 -271.586ZM488.237 -153.723C496.64 -151.264 490.006 -140.897 496.751 -137.567C493.479 -130.042 502.846 -126.388 501.792 -118.896C503.968 -114.198 506.704 -109.789 508.135 -104.696C509.156 -103.74 510.803 -103.115 511.447 -101.967C509.607 -95.6749 517.215 -91.2381 514.257 -86.5911C518.098 -82.0177 521.048 -73.5158 520.495 -68.8965C527.737 -64.5668 524.452 -54.6987 530.399 -49.6879C529.984 -48.0435 527.843 -47.2448 528.672 -45.3425C529.423 -44.3606 530.881 -43.754 532.64 -43.2999C534.418 -32.9634 541.853 -22.7278 542.769 -10.7985C554.04 4.01862 559.279 22.0135 567.645 38.3598C568.58 38.8958 569.393 39.5013 570.889 39.7473C570.578 43.2339 573.984 44.7672 572.841 48.6946C567.005 46.7971 558.629 42.2284 559.593 34.6847C557.562 33.6873 552.749 30.3459 555.49 26.8719C553.034 25.6388 551.717 23.8142 550.551 21.9022C548.757 9.6638 537.615 2.34798 535.633 -9.79404C533.233 -9.96183 532.922 -10.4801 531.665 -11.8366C532.023 -14.3558 533.292 -15.498 533.261 -18.8639C531 -21 529.816 -23.6998 528.078 -26.1108C526.38 -42.1875 515.311 -53.3259 513.838 -69.518C508.94 -74.8535 509.251 -81.8612 506.994 -88.2707C502.11 -102.124 493.217 -115.231 491.551 -130.704C490.224 -131.496 488.721 -132.194 487.704 -133.152C487.895 -138.524 484.254 -141.882 481.306 -145.603C478.317 -167.761 462.429 -183.13 455.735 -203.342C450.401 -205.691 448.272 -209.732 448.68 -215.103C429.463 -236.698 412.58 -263.231 380.333 -274.741C366.863 -277.062 352.967 -279.168 339.761 -279.528C326.14 -278.43 311.761 -278.662 298.14 -277.565C310.483 -289.093 333.594 -281.738 349.333 -287.317C362.027 -281.373 374.032 -289.83 381.756 -279.616C394.023 -279.057 403.678 -269.179 414.802 -264.68C421.892 -256.15 430.469 -248.392 440.371 -241.339C444.514 -232.976 452.069 -226.401 454.251 -217.005C460.004 -215.102 460.181 -210.267 465.32 -208.043C462.188 -198.117 473.27 -192.752 473.14 -183.265C475.785 -178.127 480.338 -173.987 481.47 -168.044C485.727 -164.326 487.15 -159.11 488.237 -153.723ZM551.639 43.998C558.628 49.6184 557.74 59.3885 560.361 67.3105C557.507 66.1712 556.399 64.112 554.461 62.4956C554.399 61.4928 554.039 60.65 554.449 59.3993C549.996 53.136 543.595 47.8916 542.317 39.9531C536.459 33.4642 530.261 25.8581 530.175 17.4146C526.352 12.4221 525.618 5.80802 521.235 1.11015C523.505 -13.9085 509.931 -23.4466 509.403 -38.1291C493.846 -77.5862 479.819 -117.855 462.129 -156.185C461.009 -158.007 459.517 -159.635 457.608 -161.039C456.642 -162.826 456.722 -165.164 456.207 -167.192C455.279 -168.886 453.433 -170.097 451.989 -171.516C452.574 -176.075 446.725 -179.91 448.523 -186.223C442.922 -193.381 437.79 -200.781 435.233 -209.538C427.293 -216.266 422.122 -224.451 417.387 -232.862C409.454 -238.445 400.928 -243.713 395.649 -250.692C383.822 -256.486 367.321 -266.526 352.546 -264.159C351.803 -264.798 351.122 -265.474 350.38 -266.115C348.148 -266.131 346.211 -265.629 344.796 -264.211C343.066 -264.674 341.328 -265.135 340.291 -265.968C326.535 -264.604 311.262 -270.676 297.467 -267.865C295.607 -268.036 295.709 -269.238 294.335 -269.662C284.713 -267.253 275.662 -260.584 266.924 -258.665C266.627 -260.293 269.479 -260.337 268.113 -262.738C275.78 -270.216 285.316 -274.416 297.148 -274.585C298.918 -274.375 299.43 -273.494 300.812 -273.074C306.785 -273.465 314.694 -270.458 318.886 -273.984C326.899 -274.903 338.124 -270.184 344.468 -274.027C351.058 -271.902 357.039 -270.838 362.011 -271.557C366.096 -267.846 374.109 -270.375 376.381 -266.039C393.922 -267.157 404.66 -249.175 418.618 -241.781C419.564 -239.868 420.023 -237.695 421.52 -236.072C432.229 -234.34 428.462 -223.233 436.879 -221.428C440.64 -208.865 453.399 -199.463 453.504 -186.096C454.455 -185.447 455.604 -184.904 457.174 -184.58C459.087 -178.014 464.401 -173.232 467.68 -167.378C468.428 -166.115 466.828 -166.803 466.659 -165.466C473.753 -147.957 485.655 -132.985 488.927 -113.464C489.309 -112.055 490.345 -110.998 492.12 -110.325C492.041 -93.6327 504.888 -83.7501 505.107 -67.2147C510.912 -53.8539 517.634 -40.9703 519.952 -25.7719C527.311 -18.2815 524.384 -5.3718 533.549 1.16699C533.043 18.8907 549.01 27.9284 551.639 43.998ZM528.87 37.4311C541.379 45.2886 540.731 60.0997 548.937 70.2386C547.536 71.4272 546.422 74.185 545.473 75.8514C542.984 73.7217 543.771 69.8604 539.871 68.4751C538.403 62.7073 533.987 58.487 533.708 52.0944C530.493 50.5762 528.381 48.481 526.792 46.0999C525.284 45.0902 525.542 47.191 524.034 46.1812C524.231 42.0618 521.834 39.9164 522.805 34.7747C517.316 31.7036 514.771 27.074 514.966 21.0011C511.542 16.543 506.287 11.4355 509.762 4.45879C505.448 1.59219 506.895 -4.21421 502.896 -6.37936C503.71 -10.4831 502.768 -13.6632 498.075 -14.8585C496.691 -24.8047 491.003 -32.4796 492.415 -43.8989C491.797 -45.9864 489.561 -47.2153 487.363 -48.4663C484.49 -70.0265 473.056 -87.0662 470.281 -108.68C464.17 -115.899 461.604 -124.998 458.456 -133.779C455.785 -138.455 451.61 -142.335 451.813 -148.528C449.419 -150.936 447.586 -153.648 446.992 -157.007C445.59 -157.528 445.272 -158.626 443.448 -158.924C440.558 -171.329 435.089 -182.339 427.64 -192.254C424.601 -196.296 424.041 -202.692 420.582 -207.127C416.707 -212.092 410.848 -215.99 407.767 -221.029C403.005 -228.816 386.029 -242.256 374.105 -246.316C370.8 -247.445 367.036 -246.966 365.098 -249.831C356.174 -251.744 348.049 -249.02 339.419 -252.465C333.169 -249.875 324.822 -253.346 317.393 -256.687C316.274 -255.567 315.048 -254.651 313.501 -254.289C289.305 -255.956 273.303 -239.945 254.05 -234.971C255.727 -243.873 267.927 -244.567 272.72 -252.052C286.846 -259.121 302.102 -261.792 319.78 -261.731C321.773 -261.291 321.749 -259.786 323.086 -258.998C337.614 -257.906 353.776 -260.29 366.341 -255.651C371.153 -256.773 382.209 -253.967 384.174 -249.563C389.079 -249.409 392.307 -245.977 393.071 -242.549C394.362 -242.126 394.644 -243.476 396.249 -242.501C403.589 -235.243 414.17 -229.691 420.299 -221.788C427.371 -205.659 440.094 -192.509 446.637 -176.106C446.373 -175.548 445.344 -176.332 445.14 -175.657C445.664 -173.867 447.513 -172.781 448.933 -171.46C447.153 -168.146 451.096 -165.233 449.918 -162.335C457.057 -152.9 460.616 -141.577 467.515 -132.017C468.525 -126.812 469.936 -121.815 473.434 -117.922C477.623 -103.141 481.796 -88.3528 489.267 -75.3023C487.134 -69.1262 491.89 -66.5852 491.047 -61.0869C497.154 -55.5822 498.06 -47.3401 499.265 -39.248C505.064 -21.7613 516.762 -7.38493 517.882 12.5734C522.896 20.147 527.517 27.9254 528.87 37.4311ZM538.047 87.4294C537.103 87.2099 537.361 89.103 536.912 89.7538C534.512 86.8099 531.25 82.7107 531.174 79.6699C523.243 77.2032 525.145 66.8256 516.165 63.7857C515.308 61.589 513.557 59.8739 515.123 56.3987C512.72 52.6128 508.807 49.6133 509.561 44.1593C505.544 42.4852 504.884 39.0398 503.231 36.116C505.284 26.2939 495.396 22.7712 497.699 12.8174C487.896 -2.02236 484.074 -20.0121 476.286 -35.9099L477.119 -38.7644C469.538 -60.8664 460.376 -82.1369 456.076 -105.97C447.042 -130.409 432.698 -152.048 424.751 -177.061C417.544 -189.243 406.789 -199.55 400.794 -212.371C393.297 -219.683 385.543 -226.865 374.66 -232.391C362.406 -235.344 348.101 -240.057 337.873 -237.817C324.965 -241.786 314.626 -241.241 305.3 -238.916C291.846 -233.16 275.898 -231.778 265.031 -221.467C261.631 -220.451 257.884 -220.05 255.852 -216.625C251.767 -217.075 248.744 -212.867 245.162 -214.434C244.351 -216.498 246.017 -217.82 246.528 -220.676C247.623 -221.244 247.3 -220.253 248.09 -219.775L248.923 -222.629C259.59 -227.12 269.687 -232.611 279.284 -238.991C287.653 -241.351 295.953 -243.824 303.651 -247.364C305.452 -247.277 304.57 -245.773 306.364 -245.688C308.696 -246.106 310.468 -247.521 312.604 -248.29C326.088 -247.231 340.821 -247.206 354.319 -244.078C361.515 -242.304 371.514 -244.611 376.564 -238.914C387.065 -236.291 392.593 -231.042 396.734 -225.063C406.695 -219.741 409.6 -210.695 414.403 -202.646L418.614 -201.417C427.861 -186.175 433.776 -169.171 443.143 -153.994C442.83 -152.91 442.302 -151.709 442.73 -151.016C449.597 -139.115 456.729 -127.354 461.76 -114.485C462.708 -105.703 468.634 -96.7885 468.631 -86.3712C469.536 -85.5859 470.94 -85.0608 472.182 -84.4508C472.155 -83.4029 472.245 -82.4166 471.648 -81.0701C477.77 -73.3748 474.883 -60.9293 482.482 -54.0104C484.396 -42.5982 485.907 -30.9837 491.771 -21.6581C491.628 -20.0602 490.54 -20.1138 490.398 -18.5159C502.766 -5.26624 500.398 15.7628 512.581 29.1102C512.357 30.5687 511.754 31.3495 511.212 32.2502C516.65 38.6937 517.411 47.6051 522.088 54.4499C521.348 62.7747 530.831 65.7109 533.316 72.3315C532.122 78.825 537.611 81.793 538.047 87.4294ZM360.162 -229.286C378.865 -230.481 394.587 -214.563 400.968 -203.367C390.485 -203.247 386.434 -215.093 376.714 -218.765C362.447 -221.683 350.695 -225.737 338.11 -225.653C316.672 -229.858 299.846 -220.826 283.597 -213.983C281.65 -214.342 280.507 -215.11 279.091 -215.738C276.167 -215.547 274.645 -212.93 273 -210.512C260.105 -210.973 252.053 -197.912 239.19 -196.304C243.487 -206.049 254.372 -208.56 261.578 -215.158C262.586 -215.233 263.319 -215.786 264.758 -215.108C273.69 -222.899 285.446 -225.773 296.767 -229.405C303.832 -229.692 311.429 -229.051 315.574 -234.418C319.334 -233.441 323.064 -235.949 325.717 -233.21C335.737 -234.505 347.619 -230.443 357.454 -230.954C358.296 -230.365 358.849 -229.626 360.162 -229.286ZM265.004 -257.909C263.657 -257.855 264.396 -255.288 261.501 -256.638C262.602 -257.621 261.937 -258.348 262.428 -259.811C264.786 -258.772 266.043 -258.979 267.681 -257.895C267.701 -256.843 266.654 -257.425 266.442 -256.725C265.246 -256.797 265.821 -257.668 265.004 -257.909ZM325.774 -210.322C306.006 -209.977 293.26 -197.26 273.354 -197.157C272.239 -194.986 273.994 -193.953 272.461 -192.527C259.748 -191.535 253.561 -179.062 240.78 -178.2C238.305 -176.767 236.965 -173.335 232.89 -174.72C234.964 -179.99 241.671 -182.4 244.315 -188.731C245.289 -189.28 245.292 -188.085 246.847 -187.992C250.242 -193.395 257.422 -192.125 260.996 -197.203C260.94 -200.091 259.577 -202.084 263.092 -202.819C265.412 -202.666 262.699 -199.843 264.369 -199.336C268.232 -198.314 269.094 -202.589 271.345 -204.413C276.451 -203.085 278.67 -206.824 282.129 -208.385C289.181 -208.992 295.518 -210.87 300.564 -215.011C307.859 -215.611 313.89 -218.431 321.357 -218.728C322.747 -218.541 322.63 -217.554 324.194 -217.456C327.309 -217.757 330.181 -218.5 332.689 -219.871C354.92 -214.665 380.207 -214.181 392.726 -197.896C407.452 -192.51 413.744 -182.669 420.818 -173.239C421.503 -162.51 432.468 -157.22 431.011 -145.356C415.447 -150.894 419.202 -169.599 406.042 -177.552C403.273 -184.525 396.968 -189.625 386.59 -192.571C380.887 -196.026 377.988 -200.961 372.153 -204.346C367.835 -204.641 364.719 -206.927 360.45 -208.209C349.629 -206.337 334.345 -215.278 325.774 -210.322ZM523.244 100.252C522.501 101.563 523.418 101.998 522.837 103.218C520.138 102.227 514.883 98.505 512.143 99.213C510.711 97.6781 511.344 95.0546 509.129 93.9286C507.638 93.1549 506.977 93.8357 505.646 93.3519C498.582 85.2136 491.314 79.0325 485.355 70.6877C477.884 65.9153 470.472 61.1012 469.578 52.8652C464.986 48.9793 463.037 43.7036 461.55 38.1881C453.923 28.45 453.441 14.9573 448.83 3.63594C445.169 -18.0369 438.931 -38.3569 437.688 -61.2983C437.512 -63.0378 435.438 -63.7844 434.732 -65.2452C430.988 -83.8943 421.823 -99.695 417.268 -117.92C415.97 -119.646 414.473 -121.262 413.29 -123.046C408.638 -144.082 389.734 -157.624 382.095 -177.092C380.163 -178.71 378.585 -180.514 375.659 -181.615C375.127 -183.393 373.175 -184.429 372.407 -186.085C366.579 -188.065 364.883 -192.213 359.84 -194.601C348.082 -192.712 335.765 -198.938 323.363 -197.759C315.598 -192.136 302.537 -195.801 295.932 -188.141C294.107 -188.066 292.609 -187.416 290.413 -187.991C284.62 -185.455 278.798 -182.983 272.808 -180.796C267.155 -172.484 258.006 -170.319 250.49 -165.281L247.547 -166.139C243.208 -163.307 240.779 -157.141 234.266 -158.123C233.615 -161.683 238.532 -160.822 236.462 -164.087C239.438 -166.641 243.946 -166.521 245.492 -171.584C246.5 -171.661 247.234 -172.219 248.668 -171.541C257.298 -179.332 267.647 -184.106 277.03 -190.577C287.188 -189.754 291.344 -199.449 301.955 -197.84C313.239 -201.178 324.12 -205.231 338.277 -203.539C340.17 -203.499 341.794 -203.925 343.491 -204.218C350.531 -202.732 358.072 -200.356 363.954 -200.889C372.123 -195.677 378.265 -189.401 385.908 -183.911C386.822 -175.338 394.603 -170.38 397.015 -162.601C405.43 -154.538 410.347 -144.638 417.506 -135.917C424.881 -116.881 431.431 -97.4194 438.524 -78.236C444.352 -75.2308 445.544 -69.7852 446.791 -64.3662L445.843 -61.1184C446.496 -59.9754 446.546 -58.5157 446.996 -57.261C450.831 -55.9544 452.309 -53.411 452.714 -50.3036C451.968 -47.9332 450.183 -47.3767 449.078 -45.6398C444.563 -33.4118 452.611 -27.7946 450.732 -16.9551C452.051 -10.4281 453.64 -4.04858 456.742 1.53761C456.634 5.0304 457.467 8.02595 460.189 10.0327C460.856 17.3583 465.039 22.8327 466.255 29.8719C467.837 30.7541 469.739 31.4734 470.407 32.8411C470.163 34.6553 468.552 34.0962 468.196 35.7233C472.834 48.9774 479.758 61.0328 495.607 68.3918C495.341 69.6742 495.355 70.8147 495.495 71.8867C503.718 77.9855 504.313 88.0983 515.423 92.6814C515.695 96.433 520.089 98.0145 523.244 100.252ZM519.277 81.9069C521.538 85.8206 528.916 88.6993 526.749 93.8163C512.925 87.5592 511.086 71.9931 498.532 63.9144C498.249 54.9935 492.425 48.9916 490.674 40.8388C490.733 39.9132 491.505 40.2406 492.175 40.3901C482.376 22.8236 477.902 2.43666 468.276 -15.2212C466.46 -28.9643 460.433 -40.4914 454.384 -51.9987L455.455 -55.6653C452.385 -63.8106 448.371 -71.4569 446.694 -80.3298C449.434 -91.5463 442.902 -97.8573 442.247 -107.276C437.067 -119.476 437.582 -134.684 419.422 -140.028C417.218 -144.838 411.139 -147.598 411.59 -153.806C401.621 -164.054 392.614 -174.806 388.289 -188.026C388.352 -188.521 388.591 -188.722 388.946 -188.717C391.997 -188.766 393.996 -185.47 394.593 -183.09C412.857 -172.286 409.374 -149.999 431.659 -141.322C436.796 -134.04 440.618 -126.064 446.652 -119.256C446.178 -117.97 446.892 -117.317 446.12 -115.874C456.629 -102.695 450.848 -80.9206 461.241 -67.6839C460.988 -52.1514 472.713 -42.9564 472.803 -27.6074C479.264 -15.9734 480.795 -1.73001 489.036 8.96649C486.488 20.6544 496.77 25.5579 495.047 36.8075C495.102 38.8444 497.9 39.4371 498.835 41.0089C497.16 47.2615 501.893 52.889 505.415 57.5238C504.661 57.8939 504.146 59.6588 504.583 60.3763C507.98 64.3249 509.226 69.4095 515.354 71.9203C516.331 75.423 518.06 78.5285 519.277 81.9069ZM476.293 72.8804C482.857 86.0557 495.222 96.1486 506.397 106.88C506.449 108.828 504.749 108.889 503.947 110.591C494.925 102.628 480.023 97.7769 478.411 85.8856C471.363 83.1921 466.596 79.2875 465.701 73.3274C456.529 71.3001 459.029 63.0857 450.237 60.8494C450.025 55.092 443.74 50.7642 446.319 44.6704C440.434 27.6899 437.469 9.16399 433.24 -8.69193C426.739 -23.7351 425.269 -41.4485 422.259 -58.3451C420.99 -59.3883 420.03 -60.6053 419.201 -61.8894C417.622 -75.7531 412.411 -87.689 407.527 -99.8032C407.074 -129.076 384.623 -146.69 369.764 -168.328C365.477 -170.078 364.554 -173.609 359.939 -175.177C359.245 -176.53 358.762 -178 357.419 -179.009C354.169 -179.285 351.743 -180.418 349.153 -181.864C321.145 -187.46 301.434 -178.412 281.187 -170.296C272.62 -163.81 264.715 -156.131 253.688 -153.994C248.45 -149.237 243.396 -144.166 235.992 -143.233C234.043 -140.296 231.299 -138.759 229.603 -135.366C224.348 -135.383 222.862 -128.736 217.646 -128.685C217.263 -131.59 219.236 -135.226 221.765 -135.002L222.717 -138.263C244.927 -154.222 265.262 -173.503 292.422 -180.729C309.779 -192.934 337.413 -194.109 363.037 -182.679C364.201 -180.766 365.592 -178.978 366.879 -177.135C383.611 -167.053 391.042 -152.046 399.441 -137.547C401.055 -136.568 402.57 -135.532 404.535 -134.734C404.394 -133.753 404.01 -133.192 403.518 -132.821C415.28 -117.921 413.488 -95.8403 424.675 -80.6431C427.041 -65.5834 430.83 -51.2857 434.152 -36.7353C433.625 -34.8508 432.798 -32.8068 433.02 -31.3139C437.803 -18.6886 438.939 -4.13287 445.301 7.65753C445.903 8.71034 444.601 9.55721 444.044 10.3841C447.121 15.0747 445.257 22.3796 450.955 25.6753C449.775 35.7128 455.825 41.9276 455.189 51.6788C457.373 52.4479 458.315 51.0212 459.976 50.8697C460.93 53.2358 459.982 54.6738 458.312 56.5709C459.357 57.9742 460.947 56.199 463.043 57.513C463.794 59.0515 464.469 60.5019 462.99 62.3622C468.823 65.1267 469.705 70.5188 476.293 72.8804ZM222.131 -94.9202C220.862 -95.139 218.287 -95.5775 217.074 -96.3963C230.215 -115.832 246.711 -137.863 265.231 -151.741C266.826 -152.228 269.08 -151.567 270.461 -152.422C271.557 -152.966 271.884 -154.858 272.795 -155.722C281.753 -162.181 291.597 -167.088 302.874 -169.485C311.518 -176.483 325.272 -175.607 339.352 -173.866C345.712 -173.084 349.427 -169.087 355.136 -165.281C367.555 -157.006 375.491 -152.01 381.792 -140.703C384.669 -138.884 386.082 -136.296 389.689 -134.864C394.647 -122.42 406.559 -113.637 405.442 -97.9916C402.081 -97.2325 399.805 -99.7226 397.796 -101.552C396.732 -104.785 396.565 -108.486 395.776 -111.867C390.706 -120.001 386.088 -128.375 381.56 -136.792C373.632 -142.267 367.505 -148.696 362.384 -155.651C351.273 -157.942 348.489 -165.676 338.112 -168.042C334.531 -167.753 331.998 -165.628 328.258 -165.612C319.696 -168.873 311.097 -167.566 305.957 -162.838C285.042 -162.592 275.524 -143.658 258.188 -136.999C255.838 -131.881 251.615 -130.048 247.694 -127.683C246.52 -122.598 242.415 -118.331 238.112 -116.776C233.405 -108.401 227.126 -102.783 222.131 -94.9202ZM470.59 101.091C480.752 98.0107 484.137 109.123 491.826 112.597C491.953 115.746 491.498 119.2 492.806 121.721C485.026 119.572 485.503 111.13 476.297 108.064C476.485 106.336 478.586 107.981 479.292 107.168C470.439 106.364 463.528 98.3173 459.367 91.1817C457.272 92.2515 453.896 91.2298 452.648 89.2207C452.368 87.7378 453.404 87.503 454.018 86.0865C452.789 84.3661 451.605 86.8493 449.582 85.672C446.389 79.0926 440.312 74.0387 436.063 68.0181C433.167 55.0774 425.991 44.4046 419.271 33.4926C414.907 36.0629 418.54 48.6057 423.557 48.4482C423.988 50.5191 425.26 52.1429 426.026 54.0314C424.958 66.0558 435.742 74.5607 439.215 85.2998C445.671 89.6962 448.541 95.9867 454.831 100.473C454.421 101.807 453.53 102.289 453.342 104.014C457.372 103.565 458.839 107.927 462.332 107.522C465.114 111.779 459.422 116.817 462.424 121.26C468.452 124.935 470.588 127.447 477.068 130.397C476.724 132.462 475.562 133.102 474.318 133.573C467.461 131.565 451.668 121.222 455.212 111.638C453.528 111.546 451.944 111.631 450.541 112.042C448.817 110.77 448.63 108.688 445.259 108.288C446.388 105.97 444.296 105.353 443.273 104.171C443.813 102.657 445.171 102.576 445.904 101.402C444.801 100.493 442.815 100.051 440.986 99.5241C435.214 86.5022 421.594 75.7883 419.632 61.8968C415.727 56.2769 415.901 48.2244 413.359 42.8209C413.612 16.7322 412.482 -8.6295 410.073 -33.3096C405.848 -82.2954 382.284 -121.053 344.623 -152.346C335.64 -157.635 325.682 -156.441 317.892 -154.403C303.52 -146.815 287.944 -141.356 273.901 -133.195C267.457 -125.416 259.809 -119.76 251.711 -114.91C240.313 -95.9052 222.137 -83.5173 212.649 -59.0956C211.904 -58.3471 210.815 -58.2132 209.654 -58.2026C208.804 -57.1749 211.628 -55.6121 209.48 -56.0448C209.462 -57.3556 208.574 -55.2806 207.677 -56.1261C210.983 -67.9323 215.23 -76.629 221.997 -83.3405C232.084 -101.821 244.849 -120.714 262.645 -128.964C262.806 -130.736 263.897 -130.866 264.135 -132.508C278.533 -141.073 289.254 -156.119 307.819 -157.343C319.214 -163.145 338.787 -163.729 352.824 -153.932C355.278 -149.948 359.807 -147.06 364.59 -144.309C364.934 -143.685 364.645 -142.731 364.295 -141.742C367.32 -141.159 366.969 -138.792 368.503 -137.418C375.931 -132.965 380.164 -126.821 383.519 -120.211C390.651 -116.401 392.55 -109.831 393.984 -103.007C403.976 -92.4484 409.496 -79.5196 410.964 -64.4472C415.002 -56.2466 418.874 -47.956 415.88 -36.0354C418.817 -28.7397 427.938 -18.1654 419.474 -9.3413C419.035 -2.33536 419.612 4.42631 418.8 11.6861C418.894 13.0157 420.285 13.6591 421.146 14.583C418.34 27.7814 426.907 34.96 431.637 44.1736C435.317 37.6489 429.037 27.7092 426.553 21.0239C425.71 13.548 424.88 6.05978 422.909 -0.819081C423.526 -4.43348 422.448 -9.80508 425.401 -12.4741C431.474 -5.58166 431.121 4.71312 432.168 14.2594C433.343 17.7737 433.628 21.7636 435.43 24.9434C433.626 34.3927 442.281 38.3166 438.477 48.8239C440.711 51.7773 439.175 56.7256 440.659 60.0763C447.625 65.1195 451.821 71.6286 455.322 78.5022L458.679 79.4822C461.559 82.67 462.729 86.7597 465.115 90.2058C470.038 90.1263 472.493 95.4649 470.59 101.091ZM444.815 -77.709C435.824 -86.8939 436.609 -101.283 429.859 -111.654C429.741 -119.612 423.352 -124.225 423.716 -132.434C424.163 -133.91 425.464 -133.863 427.108 -133.212C431.044 -129.123 433.357 -124.172 434.081 -118.372C435.39 -117.463 436.829 -116.631 437.771 -115.527C439.381 -110.778 439.763 -105.366 440.517 -100.156C441.768 -93.1019 449.77 -84.6962 444.815 -77.709ZM283.922 -122.219C282.977 -120.404 281.898 -118.822 281.004 -116.917C278.736 -117.196 277.392 -115.874 275.541 -115.432C275.267 -113.467 274.113 -113.027 273.514 -111.632C260.311 -110.395 254.663 -95.9976 244.891 -88.784C239.019 -78.4205 230.791 -66.9261 223.346 -57.2738C224.138 -52.1115 221.296 -44.2119 215.65 -45.0212C215.493 -45.9649 215.691 -47.0997 214.556 -47.5358C217.262 -56.1989 221.955 -63.4893 224.176 -71.0981C236.352 -87.7182 249.737 -106.554 266.45 -117.21C267.847 -116.609 268.859 -116.677 269.943 -116.63C273.636 -123.625 279.065 -127.621 285.326 -130.158C286.473 -133.388 290.226 -136.444 294.431 -136.291C302.944 -143.459 314.66 -145.056 324.483 -149.935C331.613 -149.534 338.916 -148.831 347.535 -145.844C348.87 -144.612 350.769 -142.17 349.723 -140.805C336.684 -141.93 321.618 -146.58 313.842 -138.538C301.559 -137.114 294.543 -126.534 283.922 -122.219ZM231.163 -170.532C232.712 -170.96 233.23 -173.764 230.795 -174.123C229.764 -173.04 229.183 -171.051 231.163 -170.532ZM632.159 -53.9408C632.095 -50.754 635.941 -51.9231 635.737 -54.7835C634.266 -55.2023 632.989 -55.1289 632.159 -53.9408ZM237.857 -25.0495C237.747 -23.3952 235.696 -25.1566 235.586 -23.5024C232.996 2.64491 230.681 28.6548 236.806 50.1884C226 25.6283 224.624 -2.88831 235.32 -38.1613C243.227 -48.6724 248.992 -62.9643 258.162 -71.2525C258.639 -74.1072 259.996 -75.4138 260.598 -78.0544C266.118 -82.5003 269.522 -90.6796 274.2 -96.6164C275.356 -103.41 278.948 -105.919 282.911 -107.766C292.943 -120.693 304.867 -130.289 319.519 -135.077C320.274 -135.587 321.931 -134.518 322.688 -135.034C326.747 -136.33 331.481 -139.615 337.1 -136.131C348.416 -139.514 360.099 -131.819 368.037 -125.332C369.346 -123.27 371.723 -121.776 371.637 -118.975C364.011 -120.446 361.644 -124.701 356.371 -127.406C344.863 -130.301 332.52 -131.924 322.336 -130.717C313.563 -126.667 306.981 -118.747 297.546 -115.865C280.786 -96.6901 265.975 -71.1425 252.701 -49.4345C246.018 -47.2385 243.406 -37.8727 238.618 -32.3369C237.557 -29.4782 237.555 -27.1831 237.857 -25.0495ZM231.869 -156.956C232.414 -155.539 231.04 -153.124 230.689 -151.239C229.176 -151.062 227.139 -151.802 225.194 -152.377C226.42 -155.314 228.372 -160.093 231.869 -156.956ZM448.108 117.256C448.563 125.769 457.87 129.599 460.114 137.161C447.446 136.619 446.354 122.451 436.575 119.209C433.341 109.75 425.513 102.72 419.512 94.7256C419.182 88.5652 415.966 83.9354 412.025 79.6887C402.084 43.2588 397.153 2.34641 395.456 -37.2883C394 -54.365 389.616 -69.8939 385.308 -85.4632C376.643 -97.2322 371.807 -112.86 348.993 -116.003C347.192 -116.892 345.827 -118.014 344.424 -119.114C326.868 -124.46 316.161 -117.758 308.515 -105.657C307.177 -105.962 305.508 -106.836 304.609 -106.358C301.339 -101.212 295.922 -97.8797 295.575 -89.4915C287.798 -86.6988 283.008 -78.6426 278.498 -70.0983C266.666 -57.6964 259.675 -37.9667 255.182 -18.3966C255.589 -11.6255 254.832 -4.58631 252.589 3.00702C252.7 28.0981 253.769 50.8646 261.345 71.6079C256.124 67.3478 253.204 61.8659 254.033 54.405C242.8 25.4695 247.69 -13.1049 258.284 -52.5029C274.081 -76.2718 288.864 -102.801 308.185 -118.609C309.425 -118.901 310.489 -119.503 312.03 -119.261C320.863 -129.861 337.47 -127.297 354.692 -121.434C357.453 -119.108 362.791 -115.597 367.385 -116.401C387.393 -106.946 390.944 -88.785 397.421 -72.176C396.812 -70.1264 396.644 -68.3118 396.708 -66.6207C396.674 -64.2977 399.565 -63.5235 399.728 -61.3079C400.236 -60.1056 398.505 -59.1006 399.076 -57.5096C402.884 -42.4594 405.547 -24.7661 403.577 -8.76533C405.817 -2.6952 404.39 5.3114 409.573 9.82824C409.762 15.121 411.702 21.6588 407.749 27.0216C407.596 29.0652 409.135 30.2085 409.5 31.9674C407.435 49.0671 413.654 61.7843 417.781 75.6055C423.462 77.6572 424.619 84.4982 425.927 89.9491C426.427 90.8385 428.305 90.9968 429.598 91.4668C428.69 93.9015 429.487 95.4397 429.731 97.2655L433.098 98.2485C432.686 99.1722 431.034 97.9104 430.939 99.3927C431.605 101.322 433.699 98.6982 434.31 100.377C435.767 107.087 444.956 109.713 445.462 116.929C445.651 118.148 447.464 115.425 448.108 117.256ZM273.972 31.1579C275.218 42.4342 283.138 50.2384 283.863 61.7861C290.566 76.1853 293.773 92.4038 301.14 106.455C295.602 103.607 295.77 97.7864 291.895 94.0749C291.982 92.3931 293.349 92.93 293.874 92.0099C292.304 91.1147 292.245 92.8509 290.678 91.9567C288.544 87.4433 287.306 82.4729 285.647 77.7173C279.006 66.7277 278.84 52.3621 271.316 41.8304C271.838 51.7627 277.441 62.0358 277.232 73.4981C277.658 75.5693 280.552 76.3549 280.82 78.5081C277.124 84.4844 283.205 86.4104 283.003 91.4794C279.816 87.8636 276.099 84.5234 273.287 80.7149C274.649 79.5793 275.27 82.7647 276.676 81.7041C273.654 64.6962 263.833 49.7873 268.895 29.6759C268.749 27.5716 266.984 26.3111 266.809 24.2215C269.107 15.1647 268.305 5.04222 271.312 -2.20884C270.64 -8.97432 271.139 -20.6672 275.756 -26.89C276.919 -28.9835 273.98 -28.9451 274.59 -30.7532C281.934 -44.6304 288.763 -57.8539 293.236 -74.1878C283.8 -70.8849 283.181 -50.7569 275.369 -42.8566C270.981 -52.1415 279.681 -61.7098 283.115 -70.9766C286.8 -77.419 292.003 -81.2254 297.895 -83.839C301.706 -99.2272 312.059 -103.267 320.135 -111.251C326.677 -112.395 340.567 -121.489 344.222 -110.386C339.709 -107.629 332.746 -109.113 327.397 -107.811C317.977 -100.325 309.624 -90.9836 301.041 -82.0378C299.016 -77.5172 299.561 -75.2899 299.232 -71.1146C291.247 -62.0238 291.264 -46.8186 283.257 -35.2719C283.377 -22.7679 276.148 -8.55832 277.559 3.13721C276.08 5.87026 275.223 9.68762 274.172 13.1566C274.088 19.1695 275.355 24.4735 273.972 31.1579ZM285.621 7.03309C287.352 19.1705 287.458 33.991 288.443 45.345C280.46 36.6399 281.085 19.9366 285.621 7.03309ZM435.653 125.247C434.948 126.649 435.305 127.492 435.669 128.333C442.893 130.734 441.35 137.725 448.698 140.063C447.726 141.512 445.666 138.791 445.341 142.165C444.811 141.636 445.111 140.68 445.088 139.892C443.44 138.85 443 139.309 440.878 138.663C418.249 119.366 402.236 96.607 392.699 70.4507C392.972 68.2758 394.15 67.6741 394.538 65.7031C381.428 53.6777 381.444 34.7705 376.312 18.5616C378.106 15.0416 376.618 11.6073 378.615 9.10819C389.099 14.3837 380.182 32.7936 387.644 40.7977C387.179 46.7669 387.836 52.1511 391.973 55.7086C396.872 50.8172 391.689 40.0124 390.078 34.0246C389.035 26.5551 389.268 18.4144 385.418 12.4134C385.61 10.7068 385.184 9.32873 384.917 7.86241C384.467 6.38201 383.149 5.3539 382.376 4.0421C383.135 -0.820644 382.003 -4.69258 379.983 -8.10465C381.017 -30.1811 381.345 -51.8855 374.727 -69.9492C374.426 -84.7087 365.957 -100.598 348.749 -103.064C348.113 -98.3759 353.1 -95.2101 358.697 -94.8826C377.286 -79.0784 368.951 -49.1685 374.918 -26.7491L372.195 -17.4184C376.052 -12.0028 371.04 -1.93185 375.823 3.00891C367.875 24.0747 376.99 45.4667 382.274 63.8862C387.011 64.2578 386.767 69.3069 390.662 71.1724C390.224 72.6595 388.01 71.0482 387.845 72.9922C387.231 75.6064 388.944 76.999 390.331 78.5625C388.026 81.1849 392.051 82.8129 390.001 85.9496C397.28 91.7569 396.21 101.935 405.411 106.737C406.301 117.838 415.423 124.626 423.664 131.876C423.887 133.238 423.462 134.541 422.294 134.995C423.322 135.568 427.684 135.308 429.458 137.086C427 140.77 433.316 142.522 432.072 145.336C427.729 145.719 425.32 142.275 422.443 140.763C421.576 139.613 422.092 137.739 421.939 136.211C414.944 134.156 412.839 129.534 408.438 126.109C407.836 125.113 408.743 124.587 409.149 123.675C393.726 108.847 384.651 90.7029 377.803 71.384C377.161 70.2708 378.762 69.944 379.355 69.1949C378.939 67.2354 377.199 65.9725 375.672 64.5979C373.441 57.2872 368.863 51.2147 369.866 42.2091C367.642 32.4945 365.869 22.5439 364.929 12.1538C365.661 5.01203 367.559 -2.73806 363.819 -7.53862C365.986 -11.2647 365.925 -14.476 363.781 -16.7955C368.257 -36.108 362.543 -54.8431 363.54 -72.335C360.707 -79.1355 358.445 -87.9357 350.186 -90.7599C348.741 -85.1196 347.21 -79.629 343.633 -77.7058C339.43 -57.7494 342.745 -41.7361 341.462 -23.3101C348.495 -13.9282 343.989 0.10755 346.007 12.7945C346.468 15.7191 346.15 19.2137 346.649 23.1076C347.011 25.9177 349.929 27.8724 348.188 31.9231C353.41 47.6265 354.049 65.7339 364.195 78.8569C363.824 84.6666 366.594 88.8228 370.801 92.2335C373.805 104.749 383.703 113.644 388.609 125.163C375.566 118.946 373.152 107.151 367.037 97.2956C366.87 95.9077 367.178 95.6233 368.171 94.9876C360.489 88.4718 361.883 77.2042 352.63 71.5196C347.857 58.327 344.173 43.9161 341.22 30.769C341.89 21.0261 337.82 13.7626 340.674 2.87496C338.525 -4.12976 339.188 -12.611 335.597 -18.858C336.88 -33.0467 336.932 -46.5903 336.618 -59.942C327.502 -25.3828 335.751 3.04954 336.244 33.7178C335.566 35.3974 335.432 38.0168 334.28 38.8689C337.79 42.7553 340.675 46.9715 338.612 53.7807C339.563 55.1677 342.379 56.4459 339.956 58.5743C345.294 61.9607 344.73 68.4457 348.131 72.8452C345.05 83.4008 349.647 91.7405 355.918 96.2524C356.702 89.1092 347.401 83.8901 351.929 77.036C358.4 78.2815 357.371 86.2915 360.879 90.217C361.364 101.301 368.072 109.125 372.899 117.938C373.065 119.657 370.993 117.467 371.158 119.189C379.69 122.395 380.412 129.692 388.045 133.364C387.56 140.5 398.132 143.641 399.046 148.9C396.637 148.601 391.58 146.911 389.601 145.264C389.995 144.532 391.324 145.419 391.335 144.014C390.715 142.379 389.663 145.121 388.151 143.961C381.516 137.816 377.404 130.344 370.043 124.585C368.511 114.508 357.747 109.268 355.391 99.6205C354.715 98.5072 353.398 99.7377 351.904 99.0424C338.707 82.8231 336.31 60.9434 331.045 40.5668C331.541 39.7923 332.314 39.5126 332.903 38.9067C328.003 24.1901 326.702 5.66314 326.91 -12.591C327.084 -28.0024 327.075 -46.5989 331.8 -62.2279C335.209 -73.4755 343.411 -83.1566 344.396 -95.9718C344.133 -97.3252 342.969 -98.2034 341.619 -98.9846C322.174 -94.8468 308.644 -74.2549 303.985 -48.3365C302.891 -46.1646 300.639 -46.0144 299.195 -44.4503C299.22 -39.4605 298.639 -37.5754 295.275 -34.1494C294.723 -32.1411 296.307 -31.2551 297.812 -30.327C295.672 -29.3696 295.026 -25.8032 292.364 -25.7531C293.299 -24.0655 293.873 -22.1913 294.43 -20.3056C289.984 -15.8004 295.128 -7.82642 291.209 -1.43773C293.123 13.1065 294.947 31.3495 291.185 48.7433C292.584 54.8858 293.556 61.2448 297.032 66.2965C296.051 68.7575 297.291 70.0547 297.176 72.0594C297.797 73.2221 299.339 73.9052 299.412 75.3577C299.237 77.499 297.844 77.5222 297.082 78.6359C306.018 88.6193 314.666 98.7483 319.691 110.771C312.762 99.8565 299.143 92.4451 295.885 79.6092C293.84 74.2662 291.943 68.8482 288.49 64.2431C283.143 44.4759 270.955 26.48 282.38 -0.93273C282.447 -2.57402 283.016 -4.47577 282.957 -6.04871C283.381 -6.53215 284.598 -5.6354 284.879 -6.36717C284.592 -10.2257 285.353 -14.6313 284.707 -18.3022C291.14 -36.0915 296.513 -66.4624 310.444 -82.9917C317.231 -102.578 335.148 -102.728 348.96 -110.046C363.73 -107.396 372.923 -99.9993 375.005 -89.6797C390.764 -69.9947 386.527 -39.8242 388.734 -13.034C392.089 0.555562 393.103 15.372 394.446 30.0186C398.669 37.9962 400.209 47.383 397.935 58.7682C404.542 65.6168 401.187 77.6842 408.861 83.9711C407.724 86.3962 410.422 86.8162 409.123 89.3287C412.214 90.9136 412.873 93.7809 416.596 95.0318C417.235 100.407 418.487 107.557 424.721 111.051C424.793 117.656 429.94 121.603 435.653 125.247ZM239.493 -130.487C234.82 -125.728 228.989 -123.056 226.023 -115.206C221.093 -112.374 216.309 -109.276 213.985 -101.739C212.416 -110.26 222.056 -118.553 225.587 -126.058C232.115 -127.68 234.268 -137.206 241.832 -136.957C240.792 -135.269 240.147 -132.865 239.493 -130.487ZM368.782 129.882C368.647 131.215 368.357 132.63 368.564 133.79C376.34 138.12 379.198 145.019 385.934 149.897C381.875 148.91 378.523 147.556 375.579 145.989C359.385 127.313 344.312 108.056 333.077 86.7997C332.904 85.7388 333.525 84.2682 333.178 83.295C320.548 61.6149 319.987 33.6348 317.904 6.45117C316.507 5.22399 315.881 3.5968 312.869 3.21464C318.278 -12.1077 316.86 -25.8654 318.556 -41.4718C324.157 -56.9977 325.58 -73.3223 331.239 -88.0844C333.435 -89.464 336.008 -93.1717 339.33 -90.5764C339.219 -85.5906 334.841 -82.8899 332.799 -79.241C332.873 -74.0924 331.097 -67.23 327.747 -63.5054C328.601 -57.165 324.905 -47.3089 324.558 -38.3935C324.246 -30.4882 323.996 -24.9802 321.159 -17.3151C321.205 -15.3831 323.142 -14.4427 323.484 -12.6678C321.86 -9.0647 324.399 -4.07873 321.058 -2.78006C323.425 1.0436 323.528 6.04593 325.055 10.3024C323.859 28.121 327.16 45.6105 329.387 63.2077C333.508 65.2759 334.408 72.4328 333.318 74.9477C334.466 75.9576 336.248 76.6421 337.075 77.8117C340.291 89.2409 343.965 100.426 354.463 108.047C356.254 113.549 361.48 117.256 362.463 123.18C365.435 124.966 366.019 127.992 368.782 129.882ZM216.932 -124.736C216.197 -125.067 216.158 -125.778 216.566 -126.73C217.745 -126.52 218.396 -126.024 217.93 -124.92C217.444 -125.139 217.125 -125.049 216.932 -124.736ZM231.992 -45.4928C223.544 -27.2175 219.87 -4.30758 222.28 15.4818C220.638 15.1083 220.388 13.9783 219.322 13.2938C219.275 12.1731 219.421 10.9473 219.982 9.49552C215.944 -2.93602 220.349 -21.8926 223.575 -38.1999C226.495 -44.5796 229.825 -50.2155 231.725 -58.4225C239.287 -63.695 240.842 -77.0641 249.224 -79.9036C250.647 -86.0528 253.157 -90.2593 257.172 -91.7635C260.861 -97.6446 264.24 -107.214 271.339 -104.911C272.969 -96.7435 263.792 -95.2428 264.087 -89.2993C259.496 -87.3255 257.545 -83.7025 254.84 -79.1499L252.356 -79.8748C251.311 -79.2878 254.091 -77.8454 252.524 -75.8381C248.481 -70.4766 245.279 -65.1274 241.66 -58.6247C239.126 -54.0586 234.256 -50.3954 231.992 -45.4928ZM353.324 -48.1817C355.99 -42.2504 355.394 -34.7111 354.144 -26.8553C349.84 -31.8657 351.202 -41.0909 353.324 -48.1817ZM408.477 140.601C409.386 140.384 410.627 140.651 412.076 141.284C412.064 142.582 411.178 142.216 411.046 143.29C415.027 144.431 419.743 145.147 417.58 149.814C412.94 148.46 409.775 146.262 406.867 143.919C406.732 142.033 407.263 141.012 408.26 140.664C406.089 140.178 404.571 140.851 402.629 140.764C398.029 134.01 391.868 128.078 392.155 118.754C390.664 117.948 389.784 119.528 389.088 118.306C388.805 114.553 386.028 112.119 383.412 109.594C367.788 78.9442 352.893 47.9087 352.934 9.02604C350.793 2.9335 351.014 -4.40186 350.155 -11.1751L351.578 -16.05C341.389 -31.5597 350.128 -57.0108 348.879 -77.2155C349.953 -80.0433 351.31 -82.3712 355.235 -80.2102C356.94 -77.8986 356.734 -74.5778 355.153 -70.5376C354.993 -67.7027 357.986 -66.5266 356.081 -62.775C356.535 -60.2601 358.241 -58.4052 359.17 -56.1426C357.88 -51.5116 360.643 -48.5199 360.903 -43.2983C361.405 -33.2452 354.591 -20.9502 358.619 -13.5544C354.244 6.62835 364.393 21.0027 362.543 38.7156C366.088 56.9093 369.989 74.9241 380.089 89.6783C379.548 92.5957 380.335 94.8201 380.601 97.3161C385.152 103.294 389.627 109.309 391.366 116.766C398.847 123.775 403.038 132.517 408.477 140.601ZM485.556 55.8916C479.932 42.5867 475.6 28.5941 466.848 16.9294C464.791 -1.23977 455.525 -15.6044 453.919 -34.0105C454.114 -37.4402 449.354 -40.0818 452.206 -43.7648C452.39 -44.8743 453.389 -44.5598 454.244 -44.4975C458.795 -37.9572 461.155 -30.2584 462.228 -21.8869C465.601 -19.7653 463.788 -14.9147 467.351 -12.8955C465.746 -6.66305 469.453 -3.23109 471.471 1.09106C472.088 1.90888 470.745 3.76158 471.365 4.58333C476.681 15.5338 482.116 26.4209 483.525 39.4288C484.166 40.2369 484.903 40.9943 486.109 41.5074C485.679 49.5222 495.023 52.3975 494.2 60.6196C490.871 60.5913 487.426 57.8209 485.556 55.8916ZM330.329 113.294C330.415 115.546 331.752 117.13 330.649 120.001C335.108 124.993 341.64 130.698 344.345 135.467C340.598 134.094 336.981 129.752 333.067 127.324C329.915 119.54 321.559 111.004 323.357 102.876C322.204 101.178 320.841 103.415 319.582 101.774C317.005 97.4047 314.352 93.075 310.445 89.4022C306.552 76.9001 301.341 65.0916 297.527 52.5501C302.121 38.2299 295.217 23.3588 297.291 9.69432C300.309 -10.1802 300.67 -30.6594 311.258 -50.6328C311.789 -58.999 316.19 -69.3535 319.089 -77.4624C319.522 -78.747 320.563 -78.976 322.079 -78.3559C323.542 -76.8336 322.595 -74.0417 322.936 -71.9295C317.441 -62.8252 318.134 -52.5954 314.748 -43.8786C313.898 -41.6865 311.912 -40.0002 311.174 -37.8674C307.896 -28.3823 308.884 -18.277 307.415 -9.40838C306.615 -4.5509 309.003 1.97716 304.104 5.06269C307.538 16.3948 300.556 31.1625 305.284 41.5802C303.042 49.3088 304.316 60.7934 309.249 66.9986C308.709 67.8506 307.697 69.2097 308.3 70.2505C311.629 79.2633 317.603 86.8907 320.283 96.2465C325.095 101.157 323.439 109.481 330.329 113.294ZM209.012 -100.964C209.925 -102.612 210.939 -104.065 213.139 -103.125C212.656 -101.429 212.301 -99.4703 211.176 -99.0672C209.78 -99.2896 209.723 -100.323 209.012 -100.964ZM207.887 -76.5748C213.057 -79.3737 216.049 -86.6479 220.714 -92.7711C214.776 -100.36 209.548 -83.7946 207.887 -76.5748ZM208.417 -98.6757C207.464 -97.1615 209.243 -95.2646 210.524 -96.177C209.42 -96.7907 209.972 -98.3062 208.417 -98.6757ZM268.072 70.5259C270.229 72.8531 272.371 75.1857 271.551 79.0744C264.588 73.7988 264.317 64.8099 262.278 57.3196C257.88 41.1653 254.013 19.5551 257.814 0.206387C259.628 -9.06209 260.528 -18.0363 260.897 -27.6835C262.061 -29.8736 263.103 -32.634 262.496 -34.7462C264.894 -37.9597 265.725 -43.8957 268.001 -47.3133L269.273 -46.9419C271.278 -27.1897 262.976 -6.04738 263.184 13.2892C262.67 15.0712 262.329 17.1445 261.023 17.5329C263.006 35.3896 264.118 53.7054 268.072 70.5259ZM571.436 49.4856C572.883 49.1133 574.547 49.0412 576.921 49.9221C577.315 51.8143 575.118 53.0888 573.319 53.5202C571.721 52.5479 571.63 50.9958 571.436 49.4856ZM242.46 6.66072C244.841 19.2123 243.564 33.707 245.245 46.6281C246.941 52.2366 249.998 57.1204 250.264 63.4888C239.579 51.3505 237.895 28.4969 238.42 8.12178C238.687 6.53998 239.838 6.53146 240.794 6.17431C235.24 -0.00585772 238.543 -9.69773 238.625 -17.3388C244.362 -25.0413 242.585 -41.0473 251.365 -43.9685C252.939 -35.7128 246.884 -25.8238 245.341 -17.1333C243.719 -8.85295 246.55 -2.93285 242.46 6.66072ZM207.646 -54.3867C205.463 -50.7838 205.673 -47.5915 204.933 -43.4634C207.284 -44.2151 211.763 -51.8713 207.646 -54.3867ZM213.828 -32.6903C215.154 -29.6049 215.241 -26.4042 212.249 -23.7553C207.749 -29.3682 212.749 -38.6856 213.635 -44.3775C215.172 -44.2523 214.825 -43.2596 216.361 -43.1313C217.308 -39.4193 217.593 -34.987 213.828 -32.6903ZM328.426 85.0134C338.269 106.475 347.809 128.1 367.606 144.288C366.995 145.684 365.437 145.401 364.373 145.999C358.203 142.484 356.09 136.821 350.386 133.059C350.2 131.892 349.11 131.204 349.543 129.709C336.056 116.849 330.877 99.5823 320.696 84.9697C313.911 68.4126 308.685 48.0637 309.804 25.5345C310.064 20.198 311.028 15.3706 309.357 9.90599C310.328 8.11244 310.784 5.41194 312.886 5.61948C318.568 10.4249 312.315 21.5616 316.1 27.3723C314.042 48.2467 318.846 65.725 326.503 82.2361C326.357 83.214 325.16 82.3361 324.887 83.0954C325.303 84.138 327.781 84.0821 328.426 85.0134ZM211.563 -20.441L212.704 -20.1079C212.727 -16.5871 212.432 -12.8735 211.458 -8.75661C208.741 -11.3873 210.293 -18.0636 211.563 -20.441ZM224.257 21.5997C224.251 22.5677 223.211 21.9158 222.98 22.5386C223.482 24.3971 224.662 25.9363 225.496 27.6411C224.739 28.4095 222.555 26.9455 221.232 26.8293C224.867 21.6832 218.257 19.7603 220.822 16.2354C222.853 17.6092 223.44 19.6618 224.257 21.5997ZM460.537 103.644C460.71 102.668 461.043 102.098 461.455 101.702C462.618 102.598 463.763 103.5 463.515 105.393C462.201 106.091 461.057 104.518 460.537 103.644ZM468.849 111.261C476.868 108.323 476.429 118.11 482.597 120.486C481.731 122.684 479.073 121.466 477.791 122.872C473.2 120.773 470.769 117.432 467.956 114.32L468.849 111.261ZM488.929 129.637C490.447 129.26 492.197 129.185 492.371 126.959C489.217 122.499 483.155 127.674 488.929 129.637ZM261.668 72.7047C261.245 73.959 263.69 75.2386 264.154 73.9015C263.785 73.2489 262.759 72.96 261.668 72.7047ZM458.344 139.351C459.739 139.677 461.031 139.801 461.462 138.374C460.762 137.294 458.524 137.442 458.344 139.351ZM301.044 94.7119C301.192 102.597 309.108 106.627 313.496 112.404C309.952 106.205 308.326 99.0516 301.044 94.7119ZM312.788 114.829C314.374 116.146 315.638 120.363 318.578 119.132C316.313 118.039 316.042 114.482 312.788 114.829Z" fill="white"/>
</g>
</svg>
