<svg width="1400" height="521" viewBox="0 0 1400 521" fill="none" xmlns="http://www.w3.org/2000/svg">
<mask id="mask0" mask-type="alpha" maskUnits="userSpaceOnUse" x="0" y="0" width="1400" height="521">
<path d="M0 0H1400V521H0V0Z" fill="#333333"/>
</mask>
<g mask="url(#mask0)">
<path d="M0 0H1400V521H0V0Z" fill="#333333"/>
<line opacity="0.07" x1="160.5" y1="110.26" x2="160.5" y2="420" stroke="white"/>
<line opacity="0.07" x1="268.5" y1="110.26" x2="268.5" y2="420" stroke="white"/>
<line opacity="0.07" x1="376.5" y1="110.26" x2="376.5" y2="420" stroke="white"/>
<line opacity="0.1" x1="484.5" y1="110.26" x2="484.5" y2="420" stroke="white"/>
<line opacity="0.1" x1="592.5" y1="110.26" x2="592.5" y2="420" stroke="white"/>
<line opacity="0.1" x1="700.5" y1="110.26" x2="700.5" y2="420" stroke="white"/>
<line opacity="0.1" x1="808.5" y1="110.26" x2="808.5" y2="420" stroke="white"/>
<line opacity="0.07" x1="916.5" y1="110.26" x2="916.5" y2="420" stroke="white"/>
<line opacity="0.07" x1="1024.5" y1="110.26" x2="1024.5" y2="420" stroke="white"/>
<line opacity="0.07" x1="1132.5" y1="110.26" x2="1132.5" y2="420" stroke="white"/>
<path opacity="0.07" d="M1239.5 106L1239.5 420" stroke="white"/>
<rect x="160" y="177" width="108" height="20" rx="2" fill="#222222"/>
<path d="M187.458 183.86H190.608C191.115 183.86 191.528 183.933 191.848 184.08C192.168 184.227 192.415 184.41 192.588 184.63C192.761 184.85 192.878 185.09 192.938 185.35C193.005 185.61 193.038 185.85 193.038 186.07C193.038 186.29 193.005 186.53 192.938 186.79C192.878 187.043 192.761 187.28 192.588 187.5C192.415 187.72 192.168 187.903 191.848 188.05C191.528 188.19 191.115 188.26 190.608 188.26H188.708V191H187.458V183.86ZM188.708 187.24H190.538C190.678 187.24 190.821 187.22 190.968 187.18C191.115 187.14 191.248 187.077 191.368 186.99C191.495 186.897 191.595 186.777 191.668 186.63C191.748 186.477 191.788 186.287 191.788 186.06C191.788 185.827 191.755 185.633 191.688 185.48C191.621 185.327 191.531 185.207 191.418 185.12C191.305 185.027 191.175 184.963 191.028 184.93C190.881 184.897 190.725 184.88 190.558 184.88H188.708V187.24ZM194.628 183.86H195.878V189.92H199.508V191H194.628V183.86ZM202.78 183.86H204.11L206.86 191H205.52L204.85 189.11H202L201.33 191H200.04L202.78 183.86ZM202.34 188.16H204.52L203.45 185.09H203.42L202.34 188.16ZM207.99 183.86H209.31L212.57 189.12H212.59V183.86H213.78V191H212.46L209.21 185.75H209.18V191H207.99V183.86ZM215.707 183.86H217.027L220.287 189.12H220.307V183.86H221.497V191H220.177L216.927 185.75H216.897V191H215.707V183.86ZM223.474 183.86H224.724V191H223.474V183.86ZM226.707 183.86H228.027L231.287 189.12H231.307V183.86H232.497V191H231.177L227.927 185.75H227.897V191H226.707V183.86ZM240.704 191H239.904L239.714 190.16C239.38 190.54 239.047 190.803 238.714 190.95C238.38 191.097 237.997 191.17 237.564 191.17C237.03 191.17 236.55 191.073 236.124 190.88C235.704 190.68 235.347 190.41 235.054 190.07C234.76 189.73 234.534 189.333 234.374 188.88C234.22 188.427 234.144 187.943 234.144 187.43C234.144 186.923 234.22 186.443 234.374 185.99C234.534 185.537 234.76 185.14 235.054 184.8C235.347 184.46 235.704 184.19 236.124 183.99C236.55 183.79 237.03 183.69 237.564 183.69C237.95 183.69 238.317 183.743 238.664 183.85C239.017 183.95 239.33 184.103 239.604 184.31C239.877 184.51 240.104 184.763 240.284 185.07C240.464 185.377 240.577 185.73 240.624 186.13H239.404C239.37 185.897 239.297 185.693 239.184 185.52C239.077 185.34 238.94 185.19 238.774 185.07C238.607 184.95 238.42 184.86 238.214 184.8C238.007 184.74 237.79 184.71 237.564 184.71C237.184 184.71 236.854 184.787 236.574 184.94C236.3 185.093 236.077 185.3 235.904 185.56C235.73 185.813 235.6 186.103 235.514 186.43C235.434 186.757 235.394 187.09 235.394 187.43C235.394 187.77 235.434 188.103 235.514 188.43C235.6 188.757 235.73 189.05 235.904 189.31C236.077 189.563 236.3 189.767 236.574 189.92C236.854 190.073 237.184 190.15 237.564 190.15C237.884 190.157 238.167 190.117 238.414 190.03C238.66 189.937 238.867 189.807 239.034 189.64C239.207 189.467 239.337 189.257 239.424 189.01C239.51 188.763 239.557 188.49 239.564 188.19H237.664V187.24H240.704V191Z" fill="white"/>
<rect x="216" y="207" width="268" height="20" rx="2" fill="#222222"/>
<path d="M291.913 216.13C291.86 215.923 291.786 215.733 291.693 215.56C291.6 215.387 291.48 215.237 291.333 215.11C291.186 214.983 291.013 214.887 290.813 214.82C290.62 214.747 290.393 214.71 290.133 214.71C289.753 214.71 289.423 214.787 289.143 214.94C288.87 215.093 288.646 215.3 288.473 215.56C288.3 215.813 288.17 216.103 288.083 216.43C288.003 216.757 287.963 217.09 287.963 217.43C287.963 217.77 288.003 218.103 288.083 218.43C288.17 218.757 288.3 219.05 288.473 219.31C288.646 219.563 288.87 219.767 289.143 219.92C289.423 220.073 289.753 220.15 290.133 220.15C290.413 220.15 290.66 220.103 290.873 220.01C291.086 219.91 291.27 219.777 291.423 219.61C291.576 219.437 291.696 219.237 291.783 219.01C291.87 218.783 291.926 218.54 291.953 218.28H293.173C293.146 218.707 293.053 219.097 292.893 219.45C292.74 219.803 292.53 220.11 292.263 220.37C291.996 220.623 291.683 220.82 291.323 220.96C290.963 221.1 290.566 221.17 290.133 221.17C289.6 221.17 289.12 221.073 288.693 220.88C288.273 220.68 287.916 220.41 287.623 220.07C287.33 219.73 287.103 219.333 286.943 218.88C286.79 218.427 286.713 217.943 286.713 217.43C286.713 216.923 286.79 216.443 286.943 215.99C287.103 215.537 287.33 215.14 287.623 214.8C287.916 214.46 288.273 214.19 288.693 213.99C289.12 213.79 289.6 213.69 290.133 213.69C290.533 213.69 290.91 213.747 291.263 213.86C291.616 213.967 291.926 214.127 292.193 214.34C292.466 214.547 292.686 214.8 292.853 215.1C293.02 215.4 293.123 215.743 293.163 216.13H291.913ZM297.85 214.71C297.47 214.71 297.14 214.787 296.86 214.94C296.586 215.093 296.363 215.3 296.19 215.56C296.016 215.813 295.886 216.103 295.8 216.43C295.72 216.757 295.68 217.09 295.68 217.43C295.68 217.77 295.72 218.103 295.8 218.43C295.886 218.757 296.016 219.05 296.19 219.31C296.363 219.563 296.586 219.767 296.86 219.92C297.14 220.073 297.47 220.15 297.85 220.15C298.23 220.15 298.556 220.073 298.83 219.92C299.11 219.767 299.336 219.563 299.51 219.31C299.683 219.05 299.81 218.757 299.89 218.43C299.976 218.103 300.02 217.77 300.02 217.43C300.02 217.09 299.976 216.757 299.89 216.43C299.81 216.103 299.683 215.813 299.51 215.56C299.336 215.3 299.11 215.093 298.83 214.94C298.556 214.787 298.23 214.71 297.85 214.71ZM297.85 213.69C298.383 213.69 298.86 213.79 299.28 213.99C299.706 214.19 300.066 214.46 300.36 214.8C300.653 215.14 300.876 215.537 301.03 215.99C301.19 216.443 301.27 216.923 301.27 217.43C301.27 217.943 301.19 218.427 301.03 218.88C300.876 219.333 300.653 219.73 300.36 220.07C300.066 220.41 299.706 220.68 299.28 220.88C298.86 221.073 298.383 221.17 297.85 221.17C297.316 221.17 296.836 221.073 296.41 220.88C295.99 220.68 295.633 220.41 295.34 220.07C295.046 219.73 294.82 219.333 294.66 218.88C294.506 218.427 294.43 217.943 294.43 217.43C294.43 216.923 294.506 216.443 294.66 215.99C294.82 215.537 295.046 215.14 295.34 214.8C295.633 214.46 295.99 214.19 296.41 213.99C296.836 213.79 297.316 213.69 297.85 213.69ZM302.857 213.86H304.177L307.437 219.12H307.457V213.86H308.647V221H307.327L304.077 215.75H304.047V221H302.857V213.86ZM309.944 213.86H315.724V214.94H313.454V221H312.204V214.94H309.944V213.86ZM317.052 213.86H322.192V214.94H318.302V216.81H321.902V217.83H318.302V219.92H322.262V221H317.052V213.86ZM323.801 213.86H325.121L328.381 219.12H328.401V213.86H329.591V221H328.271L325.021 215.75H324.991V221H323.801V213.86ZM330.888 213.86H336.668V214.94H334.398V221H333.148V214.94H330.888V213.86ZM341.279 213.86H344.429C344.935 213.86 345.349 213.933 345.669 214.08C345.989 214.227 346.235 214.41 346.409 214.63C346.582 214.85 346.699 215.09 346.759 215.35C346.825 215.61 346.859 215.85 346.859 216.07C346.859 216.29 346.825 216.53 346.759 216.79C346.699 217.043 346.582 217.28 346.409 217.5C346.235 217.72 345.989 217.903 345.669 218.05C345.349 218.19 344.935 218.26 344.429 218.26H342.529V221H341.279V213.86ZM342.529 217.24H344.359C344.499 217.24 344.642 217.22 344.789 217.18C344.935 217.14 345.069 217.077 345.189 216.99C345.315 216.897 345.415 216.777 345.489 216.63C345.569 216.477 345.609 216.287 345.609 216.06C345.609 215.827 345.575 215.633 345.509 215.48C345.442 215.327 345.352 215.207 345.239 215.12C345.125 215.027 344.995 214.963 344.849 214.93C344.702 214.897 344.545 214.88 344.379 214.88H342.529V217.24ZM348.448 213.86H351.858C352.645 213.86 353.235 214.03 353.628 214.37C354.022 214.71 354.218 215.183 354.218 215.79C354.218 216.13 354.168 216.413 354.068 216.64C353.968 216.86 353.852 217.04 353.718 217.18C353.585 217.313 353.452 217.41 353.318 217.47C353.192 217.53 353.098 217.57 353.038 217.59V217.61C353.145 217.623 353.258 217.657 353.378 217.71C353.505 217.763 353.622 217.85 353.728 217.97C353.835 218.083 353.922 218.233 353.988 218.42C354.062 218.607 354.098 218.84 354.098 219.12C354.098 219.54 354.128 219.923 354.188 220.27C354.255 220.61 354.355 220.853 354.488 221H353.148C353.055 220.847 352.998 220.677 352.978 220.49C352.965 220.303 352.958 220.123 352.958 219.95C352.958 219.623 352.938 219.343 352.898 219.11C352.858 218.87 352.785 218.673 352.678 218.52C352.572 218.36 352.425 218.243 352.238 218.17C352.058 218.097 351.825 218.06 351.538 218.06H349.698V221H348.448V213.86ZM349.698 217.11H351.748C352.148 217.11 352.452 217.017 352.658 216.83C352.865 216.637 352.968 216.35 352.968 215.97C352.968 215.743 352.935 215.56 352.868 215.42C352.802 215.273 352.708 215.16 352.588 215.08C352.475 215 352.342 214.947 352.188 214.92C352.042 214.893 351.888 214.88 351.728 214.88H349.698V217.11ZM355.989 213.86H361.129V214.94H357.239V216.81H360.839V217.83H357.239V219.92H361.199V221H355.989V213.86ZM362.788 213.86H365.938C366.445 213.86 366.858 213.933 367.178 214.08C367.498 214.227 367.745 214.41 367.918 214.63C368.092 214.85 368.208 215.09 368.268 215.35C368.335 215.61 368.368 215.85 368.368 216.07C368.368 216.29 368.335 216.53 368.268 216.79C368.208 217.043 368.092 217.28 367.918 217.5C367.745 217.72 367.498 217.903 367.178 218.05C366.858 218.19 366.445 218.26 365.938 218.26H364.038V221H362.788V213.86ZM364.038 217.24H365.868C366.008 217.24 366.152 217.22 366.298 217.18C366.445 217.14 366.578 217.077 366.698 216.99C366.825 216.897 366.925 216.777 366.998 216.63C367.078 216.477 367.118 216.287 367.118 216.06C367.118 215.827 367.085 215.633 367.018 215.48C366.952 215.327 366.862 215.207 366.748 215.12C366.635 215.027 366.505 214.963 366.358 214.93C366.212 214.897 366.055 214.88 365.888 214.88H364.038V217.24ZM371.126 213.86H372.456L375.206 221H373.866L373.196 219.11H370.346L369.676 221H368.386L371.126 213.86ZM370.686 218.16H372.866L371.796 215.09H371.766L370.686 218.16ZM376.386 213.86H379.796C380.583 213.86 381.173 214.03 381.566 214.37C381.959 214.71 382.156 215.183 382.156 215.79C382.156 216.13 382.106 216.413 382.006 216.64C381.906 216.86 381.789 217.04 381.656 217.18C381.523 217.313 381.389 217.41 381.256 217.47C381.129 217.53 381.036 217.57 380.976 217.59V217.61C381.083 217.623 381.196 217.657 381.316 217.71C381.443 217.763 381.559 217.85 381.666 217.97C381.773 218.083 381.859 218.233 381.926 218.42C381.999 218.607 382.036 218.84 382.036 219.12C382.036 219.54 382.066 219.923 382.126 220.27C382.193 220.61 382.293 220.853 382.426 221H381.086C380.993 220.847 380.936 220.677 380.916 220.49C380.903 220.303 380.896 220.123 380.896 219.95C380.896 219.623 380.876 219.343 380.836 219.11C380.796 218.87 380.723 218.673 380.616 218.52C380.509 218.36 380.363 218.243 380.176 218.17C379.996 218.097 379.763 218.06 379.476 218.06H377.636V221H376.386V213.86ZM377.636 217.11H379.686C380.086 217.11 380.389 217.017 380.596 216.83C380.803 216.637 380.906 216.35 380.906 215.97C380.906 215.743 380.873 215.56 380.806 215.42C380.739 215.273 380.646 215.16 380.526 215.08C380.413 215 380.279 214.947 380.126 214.92C379.979 214.893 379.826 214.88 379.666 214.88H377.636V217.11ZM385.837 213.86H387.167L389.917 221H388.577L387.907 219.11H385.057L384.387 221H383.097L385.837 213.86ZM385.397 218.16H387.577L386.507 215.09H386.477L385.397 218.16ZM389.499 213.86H395.279V214.94H393.009V221H391.759V214.94H389.499V213.86ZM396.607 213.86H397.857V221H396.607V213.86ZM402.93 214.71C402.55 214.71 402.22 214.787 401.94 214.94C401.667 215.093 401.443 215.3 401.27 215.56C401.097 215.813 400.967 216.103 400.88 216.43C400.8 216.757 400.76 217.09 400.76 217.43C400.76 217.77 400.8 218.103 400.88 218.43C400.967 218.757 401.097 219.05 401.27 219.31C401.443 219.563 401.667 219.767 401.94 219.92C402.22 220.073 402.55 220.15 402.93 220.15C403.31 220.15 403.637 220.073 403.91 219.92C404.19 219.767 404.417 219.563 404.59 219.31C404.763 219.05 404.89 218.757 404.97 218.43C405.057 218.103 405.1 217.77 405.1 217.43C405.1 217.09 405.057 216.757 404.97 216.43C404.89 216.103 404.763 215.813 404.59 215.56C404.417 215.3 404.19 215.093 403.91 214.94C403.637 214.787 403.31 214.71 402.93 214.71ZM402.93 213.69C403.463 213.69 403.94 213.79 404.36 213.99C404.787 214.19 405.147 214.46 405.44 214.8C405.733 215.14 405.957 215.537 406.11 215.99C406.27 216.443 406.35 216.923 406.35 217.43C406.35 217.943 406.27 218.427 406.11 218.88C405.957 219.333 405.733 219.73 405.44 220.07C405.147 220.41 404.787 220.68 404.36 220.88C403.94 221.073 403.463 221.17 402.93 221.17C402.397 221.17 401.917 221.073 401.49 220.88C401.07 220.68 400.713 220.41 400.42 220.07C400.127 219.73 399.9 219.333 399.74 218.88C399.587 218.427 399.51 217.943 399.51 217.43C399.51 216.923 399.587 216.443 399.74 215.99C399.9 215.537 400.127 215.14 400.42 214.8C400.713 214.46 401.07 214.19 401.49 213.99C401.917 213.79 402.397 213.69 402.93 213.69ZM407.938 213.86H409.258L412.518 219.12H412.538V213.86H413.728V221H412.408L409.158 215.75H409.128V221H407.938V213.86Z" fill="white"/>
<rect x="484" y="237" width="324" height="20" rx="2" fill="#1BB35B"/>
<path d="M604.127 243.86H605.377V249.92H609.007V251H604.127V243.86ZM612.279 243.86H613.609L616.359 251H615.019L614.349 249.11H611.499L610.829 251H609.539L612.279 243.86ZM611.839 248.16H614.019L612.949 245.09H612.919L611.839 248.16ZM618.656 248.2L615.976 243.86H617.426L619.316 247.06L621.176 243.86H622.576L619.906 248.2V251H618.656V248.2ZM626.821 244.71C626.441 244.71 626.111 244.787 625.831 244.94C625.557 245.093 625.334 245.3 625.161 245.56C624.987 245.813 624.857 246.103 624.771 246.43C624.691 246.757 624.651 247.09 624.651 247.43C624.651 247.77 624.691 248.103 624.771 248.43C624.857 248.757 624.987 249.05 625.161 249.31C625.334 249.563 625.557 249.767 625.831 249.92C626.111 250.073 626.441 250.15 626.821 250.15C627.201 250.15 627.527 250.073 627.801 249.92C628.081 249.767 628.307 249.563 628.481 249.31C628.654 249.05 628.781 248.757 628.861 248.43C628.947 248.103 628.991 247.77 628.991 247.43C628.991 247.09 628.947 246.757 628.861 246.43C628.781 246.103 628.654 245.813 628.481 245.56C628.307 245.3 628.081 245.093 627.801 244.94C627.527 244.787 627.201 244.71 626.821 244.71ZM626.821 243.69C627.354 243.69 627.831 243.79 628.251 243.99C628.677 244.19 629.037 244.46 629.331 244.8C629.624 245.14 629.847 245.537 630.001 245.99C630.161 246.443 630.241 246.923 630.241 247.43C630.241 247.943 630.161 248.427 630.001 248.88C629.847 249.333 629.624 249.73 629.331 250.07C629.037 250.41 628.677 250.68 628.251 250.88C627.831 251.073 627.354 251.17 626.821 251.17C626.287 251.17 625.807 251.073 625.381 250.88C624.961 250.68 624.604 250.41 624.311 250.07C624.017 249.73 623.791 249.333 623.631 248.88C623.477 248.427 623.401 247.943 623.401 247.43C623.401 246.923 623.477 246.443 623.631 245.99C623.791 245.537 624.017 245.14 624.311 244.8C624.604 244.46 624.961 244.19 625.381 243.99C625.807 243.79 626.287 243.69 626.821 243.69ZM631.798 243.86H633.048V248.02C633.048 248.26 633.058 248.503 633.078 248.75C633.105 248.997 633.172 249.22 633.278 249.42C633.392 249.613 633.558 249.773 633.778 249.9C634.005 250.027 634.322 250.09 634.728 250.09C635.135 250.09 635.448 250.027 635.668 249.9C635.895 249.773 636.062 249.613 636.168 249.42C636.282 249.22 636.348 248.997 636.368 248.75C636.395 248.503 636.408 248.26 636.408 248.02V243.86H637.658V248.43C637.658 248.89 637.588 249.29 637.448 249.63C637.308 249.97 637.108 250.257 636.848 250.49C636.595 250.717 636.288 250.887 635.928 251C635.568 251.113 635.168 251.17 634.728 251.17C634.288 251.17 633.888 251.113 633.528 251C633.168 250.887 632.858 250.717 632.598 250.49C632.345 250.257 632.148 249.97 632.008 249.63C631.868 249.29 631.798 248.89 631.798 248.43V243.86ZM638.915 243.86H644.695V244.94H642.425V251H641.175V244.94H638.915V243.86ZM649.306 243.86H652.266C652.813 243.86 653.286 243.953 653.686 244.14C654.086 244.327 654.413 244.583 654.666 244.91C654.92 245.23 655.106 245.607 655.226 246.04C655.353 246.473 655.416 246.937 655.416 247.43C655.416 247.923 655.353 248.387 655.226 248.82C655.106 249.253 654.92 249.633 654.666 249.96C654.413 250.28 654.086 250.533 653.686 250.72C653.286 250.907 652.813 251 652.266 251H649.306V243.86ZM650.556 249.98H651.786C652.273 249.98 652.67 249.917 652.976 249.79C653.29 249.657 653.533 249.477 653.706 249.25C653.886 249.017 654.006 248.747 654.066 248.44C654.133 248.127 654.166 247.79 654.166 247.43C654.166 247.07 654.133 246.737 654.066 246.43C654.006 246.117 653.886 245.847 653.706 245.62C653.533 245.387 653.29 245.207 652.976 245.08C652.67 244.947 652.273 244.88 651.786 244.88H650.556V249.98ZM657.023 243.86H662.163V244.94H658.273V246.81H661.873V247.83H658.273V249.92H662.233V251H657.023V243.86ZM664.642 248.62C664.642 248.893 664.688 249.127 664.782 249.32C664.875 249.513 665.005 249.673 665.172 249.8C665.338 249.92 665.528 250.01 665.742 250.07C665.962 250.123 666.198 250.15 666.452 250.15C666.725 250.15 666.958 250.12 667.152 250.06C667.345 249.993 667.502 249.91 667.622 249.81C667.742 249.71 667.828 249.597 667.882 249.47C667.935 249.337 667.962 249.203 667.962 249.07C667.962 248.797 667.898 248.597 667.772 248.47C667.652 248.337 667.518 248.243 667.372 248.19C667.118 248.097 666.822 248.01 666.482 247.93C666.148 247.843 665.735 247.733 665.242 247.6C664.935 247.52 664.678 247.417 664.472 247.29C664.272 247.157 664.112 247.01 663.992 246.85C663.872 246.69 663.785 246.52 663.732 246.34C663.685 246.16 663.662 245.977 663.662 245.79C663.662 245.43 663.735 245.12 663.882 244.86C664.035 244.593 664.235 244.373 664.482 244.2C664.728 244.027 665.008 243.9 665.322 243.82C665.635 243.733 665.952 243.69 666.272 243.69C666.645 243.69 666.995 243.74 667.322 243.84C667.655 243.933 667.945 244.077 668.192 244.27C668.445 244.463 668.645 244.703 668.792 244.99C668.938 245.27 669.012 245.597 669.012 245.97H667.762C667.728 245.51 667.572 245.187 667.292 245C667.012 244.807 666.655 244.71 666.222 244.71C666.075 244.71 665.925 244.727 665.772 244.76C665.618 244.787 665.478 244.837 665.352 244.91C665.225 244.977 665.118 245.07 665.032 245.19C664.952 245.31 664.912 245.46 664.912 245.64C664.912 245.893 664.988 246.093 665.142 246.24C665.302 246.38 665.508 246.487 665.762 246.56C665.788 246.567 665.892 246.597 666.072 246.65C666.258 246.697 666.465 246.75 666.692 246.81C666.918 246.87 667.138 246.93 667.352 246.99C667.572 247.043 667.728 247.083 667.822 247.11C668.055 247.183 668.258 247.283 668.432 247.41C668.605 247.537 668.748 247.683 668.862 247.85C668.982 248.01 669.068 248.183 669.122 248.37C669.182 248.557 669.212 248.743 669.212 248.93C669.212 249.33 669.128 249.673 668.962 249.96C668.802 250.24 668.588 250.47 668.322 250.65C668.055 250.83 667.752 250.96 667.412 251.04C667.072 251.127 666.725 251.17 666.372 251.17C665.965 251.17 665.582 251.12 665.222 251.02C664.862 250.92 664.548 250.767 664.282 250.56C664.015 250.353 663.802 250.09 663.642 249.77C663.482 249.443 663.398 249.06 663.392 248.62H664.642ZM670.806 243.86H672.056V251H670.806V243.86ZM680.319 251H679.519L679.329 250.16C678.996 250.54 678.663 250.803 678.329 250.95C677.996 251.097 677.613 251.17 677.179 251.17C676.646 251.17 676.166 251.073 675.739 250.88C675.319 250.68 674.963 250.41 674.669 250.07C674.376 249.73 674.149 249.333 673.989 248.88C673.836 248.427 673.759 247.943 673.759 247.43C673.759 246.923 673.836 246.443 673.989 245.99C674.149 245.537 674.376 245.14 674.669 244.8C674.963 244.46 675.319 244.19 675.739 243.99C676.166 243.79 676.646 243.69 677.179 243.69C677.566 243.69 677.933 243.743 678.279 243.85C678.633 243.95 678.946 244.103 679.219 244.31C679.493 244.51 679.719 244.763 679.899 245.07C680.079 245.377 680.193 245.73 680.239 246.13H679.019C678.986 245.897 678.913 245.693 678.799 245.52C678.693 245.34 678.556 245.19 678.389 245.07C678.223 244.95 678.036 244.86 677.829 244.8C677.623 244.74 677.406 244.71 677.179 244.71C676.799 244.71 676.469 244.787 676.189 244.94C675.916 245.093 675.693 245.3 675.519 245.56C675.346 245.813 675.216 246.103 675.129 246.43C675.049 246.757 675.009 247.09 675.009 247.43C675.009 247.77 675.049 248.103 675.129 248.43C675.216 248.757 675.346 249.05 675.519 249.31C675.693 249.563 675.916 249.767 676.189 249.92C676.469 250.073 676.799 250.15 677.179 250.15C677.499 250.157 677.783 250.117 678.029 250.03C678.276 249.937 678.483 249.807 678.649 249.64C678.823 249.467 678.953 249.257 679.039 249.01C679.126 248.763 679.173 248.49 679.179 248.19H677.279V247.24H680.319V251ZM682.127 243.86H683.447L686.707 249.12H686.727V243.86H687.917V251H686.597L683.347 245.75H683.317V251H682.127V243.86Z" fill="white"/>
<rect x="639" y="267" width="169" height="20" rx="2" fill="#1BB35B"/>
<path d="M675.987 273.86H677.287L679.077 279.51H679.097L680.927 273.86H682.197L679.757 281H678.367L675.987 273.86ZM683.41 273.86H684.66V281H683.41V273.86ZM687.514 278.62C687.514 278.893 687.56 279.127 687.654 279.32C687.747 279.513 687.877 279.673 688.044 279.8C688.21 279.92 688.4 280.01 688.614 280.07C688.834 280.123 689.07 280.15 689.324 280.15C689.597 280.15 689.83 280.12 690.024 280.06C690.217 279.993 690.374 279.91 690.494 279.81C690.614 279.71 690.7 279.597 690.754 279.47C690.807 279.337 690.834 279.203 690.834 279.07C690.834 278.797 690.77 278.597 690.644 278.47C690.524 278.337 690.39 278.243 690.244 278.19C689.99 278.097 689.694 278.01 689.354 277.93C689.02 277.843 688.607 277.733 688.114 277.6C687.807 277.52 687.55 277.417 687.344 277.29C687.144 277.157 686.984 277.01 686.864 276.85C686.744 276.69 686.657 276.52 686.604 276.34C686.557 276.16 686.534 275.977 686.534 275.79C686.534 275.43 686.607 275.12 686.754 274.86C686.907 274.593 687.107 274.373 687.354 274.2C687.6 274.027 687.88 273.9 688.194 273.82C688.507 273.733 688.824 273.69 689.144 273.69C689.517 273.69 689.867 273.74 690.194 273.84C690.527 273.933 690.817 274.077 691.064 274.27C691.317 274.463 691.517 274.703 691.664 274.99C691.81 275.27 691.884 275.597 691.884 275.97H690.634C690.6 275.51 690.444 275.187 690.164 275C689.884 274.807 689.527 274.71 689.094 274.71C688.947 274.71 688.797 274.727 688.644 274.76C688.49 274.787 688.35 274.837 688.224 274.91C688.097 274.977 687.99 275.07 687.904 275.19C687.824 275.31 687.784 275.46 687.784 275.64C687.784 275.893 687.86 276.093 688.014 276.24C688.174 276.38 688.38 276.487 688.634 276.56C688.66 276.567 688.764 276.597 688.944 276.65C689.13 276.697 689.337 276.75 689.564 276.81C689.79 276.87 690.01 276.93 690.224 276.99C690.444 277.043 690.6 277.083 690.694 277.11C690.927 277.183 691.13 277.283 691.304 277.41C691.477 277.537 691.62 277.683 691.734 277.85C691.854 278.01 691.94 278.183 691.994 278.37C692.054 278.557 692.084 278.743 692.084 278.93C692.084 279.33 692 279.673 691.834 279.96C691.674 280.24 691.46 280.47 691.194 280.65C690.927 280.83 690.624 280.96 690.284 281.04C689.944 281.127 689.597 281.17 689.244 281.17C688.837 281.17 688.454 281.12 688.094 281.02C687.734 280.92 687.42 280.767 687.154 280.56C686.887 280.353 686.674 280.09 686.514 279.77C686.354 279.443 686.27 279.06 686.264 278.62H687.514ZM693.598 273.86H694.848V278.02C694.848 278.26 694.858 278.503 694.878 278.75C694.905 278.997 694.971 279.22 695.078 279.42C695.191 279.613 695.358 279.773 695.578 279.9C695.805 280.027 696.121 280.09 696.528 280.09C696.935 280.09 697.248 280.027 697.468 279.9C697.695 279.773 697.861 279.613 697.968 279.42C698.081 279.22 698.148 278.997 698.168 278.75C698.195 278.503 698.208 278.26 698.208 278.02V273.86H699.458V278.43C699.458 278.89 699.388 279.29 699.248 279.63C699.108 279.97 698.908 280.257 698.648 280.49C698.395 280.717 698.088 280.887 697.728 281C697.368 281.113 696.968 281.17 696.528 281.17C696.088 281.17 695.688 281.113 695.328 281C694.968 280.887 694.658 280.717 694.398 280.49C694.145 280.257 693.948 279.97 693.808 279.63C693.668 279.29 693.598 278.89 693.598 278.43V273.86ZM703.305 273.86H704.635L707.385 281H706.045L705.375 279.11H702.525L701.855 281H700.565L703.305 273.86ZM702.865 278.16H705.045L703.975 275.09H703.945L702.865 278.16ZM708.565 273.86H709.815V279.92H713.445V281H708.565V273.86ZM722.91 276.13C722.857 275.923 722.783 275.733 722.69 275.56C722.597 275.387 722.477 275.237 722.33 275.11C722.183 274.983 722.01 274.887 721.81 274.82C721.617 274.747 721.39 274.71 721.13 274.71C720.75 274.71 720.42 274.787 720.14 274.94C719.867 275.093 719.643 275.3 719.47 275.56C719.297 275.813 719.167 276.103 719.08 276.43C719 276.757 718.96 277.09 718.96 277.43C718.96 277.77 719 278.103 719.08 278.43C719.167 278.757 719.297 279.05 719.47 279.31C719.643 279.563 719.867 279.767 720.14 279.92C720.42 280.073 720.75 280.15 721.13 280.15C721.41 280.15 721.657 280.103 721.87 280.01C722.083 279.91 722.267 279.777 722.42 279.61C722.573 279.437 722.693 279.237 722.78 279.01C722.867 278.783 722.923 278.54 722.95 278.28H724.17C724.143 278.707 724.05 279.097 723.89 279.45C723.737 279.803 723.527 280.11 723.26 280.37C722.993 280.623 722.68 280.82 722.32 280.96C721.96 281.1 721.563 281.17 721.13 281.17C720.597 281.17 720.117 281.073 719.69 280.88C719.27 280.68 718.913 280.41 718.62 280.07C718.327 279.73 718.1 279.333 717.94 278.88C717.787 278.427 717.71 277.943 717.71 277.43C717.71 276.923 717.787 276.443 717.94 275.99C718.1 275.537 718.327 275.14 718.62 274.8C718.913 274.46 719.27 274.19 719.69 273.99C720.117 273.79 720.597 273.69 721.13 273.69C721.53 273.69 721.907 273.747 722.26 273.86C722.613 273.967 722.923 274.127 723.19 274.34C723.463 274.547 723.683 274.8 723.85 275.1C724.017 275.4 724.12 275.743 724.16 276.13H722.91ZM725.807 273.86H729.217C730.004 273.86 730.594 274.03 730.987 274.37C731.38 274.71 731.577 275.183 731.577 275.79C731.577 276.13 731.527 276.413 731.427 276.64C731.327 276.86 731.21 277.04 731.077 277.18C730.944 277.313 730.81 277.41 730.677 277.47C730.55 277.53 730.457 277.57 730.397 277.59V277.61C730.504 277.623 730.617 277.657 730.737 277.71C730.864 277.763 730.98 277.85 731.087 277.97C731.194 278.083 731.28 278.233 731.347 278.42C731.42 278.607 731.457 278.84 731.457 279.12C731.457 279.54 731.487 279.923 731.547 280.27C731.614 280.61 731.714 280.853 731.847 281H730.507C730.414 280.847 730.357 280.677 730.337 280.49C730.324 280.303 730.317 280.123 730.317 279.95C730.317 279.623 730.297 279.343 730.257 279.11C730.217 278.87 730.144 278.673 730.037 278.52C729.93 278.36 729.784 278.243 729.597 278.17C729.417 278.097 729.184 278.06 728.897 278.06H727.057V281H725.807V273.86ZM727.057 277.11H729.107C729.507 277.11 729.81 277.017 730.017 276.83C730.224 276.637 730.327 276.35 730.327 275.97C730.327 275.743 730.294 275.56 730.227 275.42C730.16 275.273 730.067 275.16 729.947 275.08C729.834 275 729.7 274.947 729.547 274.92C729.4 274.893 729.247 274.88 729.087 274.88H727.057V277.11ZM733.348 273.86H738.488V274.94H734.598V276.81H738.198V277.83H734.598V279.92H738.558V281H733.348V273.86ZM742.057 273.86H743.387L746.137 281H744.797L744.127 279.11H741.277L740.607 281H739.317L742.057 273.86ZM741.617 278.16H743.797L742.727 275.09H742.697L741.617 278.16ZM745.719 273.86H751.499V274.94H749.229V281H747.979V274.94H745.719V273.86ZM752.826 273.86H754.076V281H752.826V273.86ZM759.15 274.71C758.77 274.71 758.44 274.787 758.16 274.94C757.886 275.093 757.663 275.3 757.49 275.56C757.316 275.813 757.186 276.103 757.1 276.43C757.02 276.757 756.98 277.09 756.98 277.43C756.98 277.77 757.02 278.103 757.1 278.43C757.186 278.757 757.316 279.05 757.49 279.31C757.663 279.563 757.886 279.767 758.16 279.92C758.44 280.073 758.77 280.15 759.15 280.15C759.53 280.15 759.856 280.073 760.13 279.92C760.41 279.767 760.636 279.563 760.81 279.31C760.983 279.05 761.11 278.757 761.19 278.43C761.276 278.103 761.32 277.77 761.32 277.43C761.32 277.09 761.276 276.757 761.19 276.43C761.11 276.103 760.983 275.813 760.81 275.56C760.636 275.3 760.41 275.093 760.13 274.94C759.856 274.787 759.53 274.71 759.15 274.71ZM759.15 273.69C759.683 273.69 760.16 273.79 760.58 273.99C761.006 274.19 761.366 274.46 761.66 274.8C761.953 275.14 762.176 275.537 762.33 275.99C762.49 276.443 762.57 276.923 762.57 277.43C762.57 277.943 762.49 278.427 762.33 278.88C762.176 279.333 761.953 279.73 761.66 280.07C761.366 280.41 761.006 280.68 760.58 280.88C760.16 281.073 759.683 281.17 759.15 281.17C758.616 281.17 758.136 281.073 757.71 280.88C757.29 280.68 756.933 280.41 756.64 280.07C756.346 279.73 756.12 279.333 755.96 278.88C755.806 278.427 755.73 277.943 755.73 277.43C755.73 276.923 755.806 276.443 755.96 275.99C756.12 275.537 756.346 275.14 756.64 274.8C756.933 274.46 757.29 274.19 757.71 273.99C758.136 273.79 758.616 273.69 759.15 273.69ZM764.157 273.86H765.477L768.737 279.12H768.757V273.86H769.947V281H768.627L765.377 275.75H765.347V281H764.157V273.86Z" fill="white"/>
<rect x="808" y="297" width="377" height="20" rx="2" fill="#222222"/>
<path d="M966.74 303.86H971.67V304.94H967.99V306.81H971.22V307.83H967.99V311H966.74V303.86ZM973.168 303.86H976.578C977.364 303.86 977.954 304.03 978.348 304.37C978.741 304.71 978.938 305.183 978.938 305.79C978.938 306.13 978.888 306.413 978.788 306.64C978.688 306.86 978.571 307.04 978.438 307.18C978.304 307.313 978.171 307.41 978.038 307.47C977.911 307.53 977.818 307.57 977.758 307.59V307.61C977.864 307.623 977.978 307.657 978.098 307.71C978.224 307.763 978.341 307.85 978.448 307.97C978.554 308.083 978.641 308.233 978.708 308.42C978.781 308.607 978.818 308.84 978.818 309.12C978.818 309.54 978.848 309.923 978.908 310.27C978.974 310.61 979.074 310.853 979.208 311H977.868C977.774 310.847 977.718 310.677 977.698 310.49C977.684 310.303 977.678 310.123 977.678 309.95C977.678 309.623 977.658 309.343 977.618 309.11C977.578 308.87 977.504 308.673 977.398 308.52C977.291 308.36 977.144 308.243 976.958 308.17C976.778 308.097 976.544 308.06 976.258 308.06H974.418V311H973.168V303.86ZM974.418 307.11H976.468C976.868 307.11 977.171 307.017 977.378 306.83C977.584 306.637 977.688 306.35 977.688 305.97C977.688 305.743 977.654 305.56 977.588 305.42C977.521 305.273 977.428 305.16 977.308 305.08C977.194 305 977.061 304.947 976.908 304.92C976.761 304.893 976.608 304.88 976.448 304.88H974.418V307.11ZM983.749 304.71C983.369 304.71 983.039 304.787 982.759 304.94C982.485 305.093 982.262 305.3 982.089 305.56C981.915 305.813 981.785 306.103 981.699 306.43C981.619 306.757 981.579 307.09 981.579 307.43C981.579 307.77 981.619 308.103 981.699 308.43C981.785 308.757 981.915 309.05 982.089 309.31C982.262 309.563 982.485 309.767 982.759 309.92C983.039 310.073 983.369 310.15 983.749 310.15C984.129 310.15 984.455 310.073 984.729 309.92C985.009 309.767 985.235 309.563 985.409 309.31C985.582 309.05 985.709 308.757 985.789 308.43C985.875 308.103 985.919 307.77 985.919 307.43C985.919 307.09 985.875 306.757 985.789 306.43C985.709 306.103 985.582 305.813 985.409 305.56C985.235 305.3 985.009 305.093 984.729 304.94C984.455 304.787 984.129 304.71 983.749 304.71ZM983.749 303.69C984.282 303.69 984.759 303.79 985.179 303.99C985.605 304.19 985.965 304.46 986.259 304.8C986.552 305.14 986.775 305.537 986.929 305.99C987.089 306.443 987.169 306.923 987.169 307.43C987.169 307.943 987.089 308.427 986.929 308.88C986.775 309.333 986.552 309.73 986.259 310.07C985.965 310.41 985.605 310.68 985.179 310.88C984.759 311.073 984.282 311.17 983.749 311.17C983.215 311.17 982.735 311.073 982.309 310.88C981.889 310.68 981.532 310.41 981.239 310.07C980.945 309.73 980.719 309.333 980.559 308.88C980.405 308.427 980.329 307.943 980.329 307.43C980.329 306.923 980.405 306.443 980.559 305.99C980.719 305.537 980.945 305.14 981.239 304.8C981.532 304.46 981.889 304.19 982.309 303.99C982.735 303.79 983.215 303.69 983.749 303.69ZM988.756 303.86H990.076L993.336 309.12H993.356V303.86H994.546V311H993.226L989.976 305.75H989.946V311H988.756V303.86ZM995.843 303.86H1001.62V304.94H999.353V311H998.103V304.94H995.843V303.86ZM1001.39 307.74H1004.3V308.82H1001.39V307.74ZM1006.05 303.86H1011.19V304.94H1007.3V306.81H1010.9V307.83H1007.3V309.92H1011.26V311H1006.05V303.86ZM1012.8 303.86H1014.12L1017.38 309.12H1017.4V303.86H1018.59V311H1017.27L1014.02 305.75H1013.99V311H1012.8V303.86ZM1020.56 303.86H1023.52C1024.07 303.86 1024.54 303.953 1024.94 304.14C1025.34 304.327 1025.67 304.583 1025.92 304.91C1026.18 305.23 1026.36 305.607 1026.48 306.04C1026.61 306.473 1026.67 306.937 1026.67 307.43C1026.67 307.923 1026.61 308.387 1026.48 308.82C1026.36 309.253 1026.18 309.633 1025.92 309.96C1025.67 310.28 1025.34 310.533 1024.94 310.72C1024.54 310.907 1024.07 311 1023.52 311H1020.56V303.86ZM1021.81 309.98H1023.04C1023.53 309.98 1023.93 309.917 1024.23 309.79C1024.55 309.657 1024.79 309.477 1024.96 309.25C1025.14 309.017 1025.26 308.747 1025.32 308.44C1025.39 308.127 1025.42 307.79 1025.42 307.43C1025.42 307.07 1025.39 306.737 1025.32 306.43C1025.26 306.117 1025.14 305.847 1024.96 305.62C1024.79 305.387 1024.55 305.207 1024.23 305.08C1023.93 304.947 1023.53 304.88 1023.04 304.88H1021.81V309.98Z" fill="white"/>
<rect x="1024" y="327" width="161" height="20" rx="2" fill="#222222"/>
<path d="M1044.22 333.86H1049.36V334.94H1045.47V336.81H1049.07V337.83H1045.47V339.92H1049.43V341H1044.22V333.86ZM1051.02 333.86H1053.98C1054.52 333.86 1055 333.953 1055.4 334.14C1055.8 334.327 1056.12 334.583 1056.38 334.91C1056.63 335.23 1056.82 335.607 1056.94 336.04C1057.06 336.473 1057.13 336.937 1057.13 337.43C1057.13 337.923 1057.06 338.387 1056.94 338.82C1056.82 339.253 1056.63 339.633 1056.38 339.96C1056.12 340.28 1055.8 340.533 1055.4 340.72C1055 340.907 1054.52 341 1053.98 341H1051.02V333.86ZM1052.27 339.98H1053.5C1053.98 339.98 1054.38 339.917 1054.69 339.79C1055 339.657 1055.24 339.477 1055.42 339.25C1055.6 339.017 1055.72 338.747 1055.78 338.44C1055.84 338.127 1055.88 337.79 1055.88 337.43C1055.88 337.07 1055.84 336.737 1055.78 336.43C1055.72 336.117 1055.6 335.847 1055.42 335.62C1055.24 335.387 1055 335.207 1054.69 335.08C1054.38 334.947 1053.98 334.88 1053.5 334.88H1052.27V339.98ZM1058.73 333.86H1059.98V341H1058.73V333.86ZM1061.34 333.86H1067.12V334.94H1064.85V341H1063.6V334.94H1061.34V333.86ZM1069.27 338.62C1069.27 338.893 1069.31 339.127 1069.41 339.32C1069.5 339.513 1069.63 339.673 1069.8 339.8C1069.96 339.92 1070.15 340.01 1070.37 340.07C1070.59 340.123 1070.82 340.15 1071.08 340.15C1071.35 340.15 1071.58 340.12 1071.78 340.06C1071.97 339.993 1072.13 339.91 1072.25 339.81C1072.37 339.71 1072.45 339.597 1072.51 339.47C1072.56 339.337 1072.59 339.203 1072.59 339.07C1072.59 338.797 1072.52 338.597 1072.4 338.47C1072.28 338.337 1072.14 338.243 1072 338.19C1071.74 338.097 1071.45 338.01 1071.11 337.93C1070.77 337.843 1070.36 337.733 1069.87 337.6C1069.56 337.52 1069.3 337.417 1069.1 337.29C1068.9 337.157 1068.74 337.01 1068.62 336.85C1068.5 336.69 1068.41 336.52 1068.36 336.34C1068.31 336.16 1068.29 335.977 1068.29 335.79C1068.29 335.43 1068.36 335.12 1068.51 334.86C1068.66 334.593 1068.86 334.373 1069.11 334.2C1069.35 334.027 1069.63 333.9 1069.95 333.82C1070.26 333.733 1070.58 333.69 1070.9 333.69C1071.27 333.69 1071.62 333.74 1071.95 333.84C1072.28 333.933 1072.57 334.077 1072.82 334.27C1073.07 334.463 1073.27 334.703 1073.42 334.99C1073.56 335.27 1073.64 335.597 1073.64 335.97H1072.39C1072.35 335.51 1072.2 335.187 1071.92 335C1071.64 334.807 1071.28 334.71 1070.85 334.71C1070.7 334.71 1070.55 334.727 1070.4 334.76C1070.24 334.787 1070.1 334.837 1069.98 334.91C1069.85 334.977 1069.74 335.07 1069.66 335.19C1069.58 335.31 1069.54 335.46 1069.54 335.64C1069.54 335.893 1069.61 336.093 1069.77 336.24C1069.93 336.38 1070.13 336.487 1070.39 336.56C1070.41 336.567 1070.52 336.597 1070.7 336.65C1070.88 336.697 1071.09 336.75 1071.32 336.81C1071.54 336.87 1071.76 336.93 1071.98 336.99C1072.2 337.043 1072.35 337.083 1072.45 337.11C1072.68 337.183 1072.88 337.283 1073.06 337.41C1073.23 337.537 1073.37 337.683 1073.49 337.85C1073.61 338.01 1073.69 338.183 1073.75 338.37C1073.81 338.557 1073.84 338.743 1073.84 338.93C1073.84 339.33 1073.75 339.673 1073.59 339.96C1073.43 340.24 1073.21 340.47 1072.95 340.65C1072.68 340.83 1072.38 340.96 1072.04 341.04C1071.7 341.127 1071.35 341.17 1071 341.17C1070.59 341.17 1070.21 341.12 1069.85 341.02C1069.49 340.92 1069.17 340.767 1068.91 340.56C1068.64 340.353 1068.43 340.09 1068.27 339.77C1068.11 339.443 1068.02 339.06 1068.02 338.62H1069.27ZM1080.62 333.86H1081.95L1084.7 341H1083.36L1082.69 339.11H1079.84L1079.17 341H1077.88L1080.62 333.86ZM1080.18 338.16H1082.36L1081.29 335.09H1081.26L1080.18 338.16ZM1085.83 333.86H1087.15L1090.41 339.12H1090.43V333.86H1091.62V341H1090.3L1087.05 335.75H1087.02V341H1085.83V333.86ZM1093.6 333.86H1096.56C1097.11 333.86 1097.58 333.953 1097.98 334.14C1098.38 334.327 1098.71 334.583 1098.96 334.91C1099.21 335.23 1099.4 335.607 1099.52 336.04C1099.65 336.473 1099.71 336.937 1099.71 337.43C1099.71 337.923 1099.65 338.387 1099.52 338.82C1099.4 339.253 1099.21 339.633 1098.96 339.96C1098.71 340.28 1098.38 340.533 1097.98 340.72C1097.58 340.907 1097.11 341 1096.56 341H1093.6V333.86ZM1094.85 339.98H1096.08C1096.57 339.98 1096.96 339.917 1097.27 339.79C1097.58 339.657 1097.83 339.477 1098 339.25C1098.18 339.017 1098.3 338.747 1098.36 338.44C1098.43 338.127 1098.46 337.79 1098.46 337.43C1098.46 337.07 1098.43 336.737 1098.36 336.43C1098.3 336.117 1098.18 335.847 1098 335.62C1097.83 335.387 1097.58 335.207 1097.27 335.08C1096.96 334.947 1096.57 334.88 1096.08 334.88H1094.85V339.98ZM1104.6 333.86H1105.85V341H1104.6V333.86ZM1107.2 333.86H1112.98V334.94H1110.71V341H1109.46V334.94H1107.2V333.86ZM1114.31 333.86H1119.45V334.94H1115.56V336.81H1119.16V337.83H1115.56V339.92H1119.52V341H1114.31V333.86ZM1121.11 333.86H1124.52C1125.31 333.86 1125.9 334.03 1126.29 334.37C1126.68 334.71 1126.88 335.183 1126.88 335.79C1126.88 336.13 1126.83 336.413 1126.73 336.64C1126.63 336.86 1126.51 337.04 1126.38 337.18C1126.25 337.313 1126.11 337.41 1125.98 337.47C1125.85 337.53 1125.76 337.57 1125.7 337.59V337.61C1125.81 337.623 1125.92 337.657 1126.04 337.71C1126.17 337.763 1126.28 337.85 1126.39 337.97C1126.5 338.083 1126.58 338.233 1126.65 338.42C1126.72 338.607 1126.76 338.84 1126.76 339.12C1126.76 339.54 1126.79 339.923 1126.85 340.27C1126.92 340.61 1127.02 340.853 1127.15 341H1125.81C1125.72 340.847 1125.66 340.677 1125.64 340.49C1125.63 340.303 1125.62 340.123 1125.62 339.95C1125.62 339.623 1125.6 339.343 1125.56 339.11C1125.52 338.87 1125.45 338.673 1125.34 338.52C1125.23 338.36 1125.09 338.243 1124.9 338.17C1124.72 338.097 1124.49 338.06 1124.2 338.06H1122.36V341H1121.11V333.86ZM1122.36 337.11H1124.41C1124.81 337.11 1125.11 337.017 1125.32 336.83C1125.53 336.637 1125.63 336.35 1125.63 335.97C1125.63 335.743 1125.6 335.56 1125.53 335.42C1125.46 335.273 1125.37 335.16 1125.25 335.08C1125.14 335 1125 334.947 1124.85 334.92C1124.7 334.893 1124.55 334.88 1124.39 334.88H1122.36V337.11ZM1130.56 333.86H1131.89L1134.64 341H1133.3L1132.63 339.11H1129.78L1129.11 341H1127.82L1130.56 333.86ZM1130.12 338.16H1132.3L1131.23 335.09H1131.2L1130.12 338.16ZM1134.22 333.86H1140V334.94H1137.73V341H1136.48V334.94H1134.22V333.86ZM1141.33 333.86H1142.58V341H1141.33V333.86ZM1147.65 334.71C1147.27 334.71 1146.94 334.787 1146.66 334.94C1146.39 335.093 1146.17 335.3 1145.99 335.56C1145.82 335.813 1145.69 336.103 1145.6 336.43C1145.52 336.757 1145.48 337.09 1145.48 337.43C1145.48 337.77 1145.52 338.103 1145.6 338.43C1145.69 338.757 1145.82 339.05 1145.99 339.31C1146.17 339.563 1146.39 339.767 1146.66 339.92C1146.94 340.073 1147.27 340.15 1147.65 340.15C1148.03 340.15 1148.36 340.073 1148.63 339.92C1148.91 339.767 1149.14 339.563 1149.31 339.31C1149.49 339.05 1149.61 338.757 1149.69 338.43C1149.78 338.103 1149.82 337.77 1149.82 337.43C1149.82 337.09 1149.78 336.757 1149.69 336.43C1149.61 336.103 1149.49 335.813 1149.31 335.56C1149.14 335.3 1148.91 335.093 1148.63 334.94C1148.36 334.787 1148.03 334.71 1147.65 334.71ZM1147.65 333.69C1148.19 333.69 1148.66 333.79 1149.08 333.99C1149.51 334.19 1149.87 334.46 1150.16 334.8C1150.46 335.14 1150.68 335.537 1150.83 335.99C1150.99 336.443 1151.07 336.923 1151.07 337.43C1151.07 337.943 1150.99 338.427 1150.83 338.88C1150.68 339.333 1150.46 339.73 1150.16 340.07C1149.87 340.41 1149.51 340.68 1149.08 340.88C1148.66 341.073 1148.19 341.17 1147.65 341.17C1147.12 341.17 1146.64 341.073 1146.21 340.88C1145.79 340.68 1145.44 340.41 1145.14 340.07C1144.85 339.73 1144.62 339.333 1144.46 338.88C1144.31 338.427 1144.23 337.943 1144.23 337.43C1144.23 336.923 1144.31 336.443 1144.46 335.99C1144.62 335.537 1144.85 335.14 1145.14 334.8C1145.44 334.46 1145.79 334.19 1146.21 333.99C1146.64 333.79 1147.12 333.69 1147.65 333.69ZM1152.66 333.86H1153.98L1157.24 339.12H1157.26V333.86H1158.45V341H1157.13L1153.88 335.75H1153.85V341H1152.66V333.86ZM1161.25 338.62C1161.25 338.893 1161.29 339.127 1161.39 339.32C1161.48 339.513 1161.61 339.673 1161.78 339.8C1161.94 339.92 1162.13 340.01 1162.35 340.07C1162.57 340.123 1162.8 340.15 1163.06 340.15C1163.33 340.15 1163.56 340.12 1163.76 340.06C1163.95 339.993 1164.11 339.91 1164.23 339.81C1164.35 339.71 1164.43 339.597 1164.49 339.47C1164.54 339.337 1164.57 339.203 1164.57 339.07C1164.57 338.797 1164.5 338.597 1164.38 338.47C1164.26 338.337 1164.12 338.243 1163.98 338.19C1163.72 338.097 1163.43 338.01 1163.09 337.93C1162.75 337.843 1162.34 337.733 1161.85 337.6C1161.54 337.52 1161.28 337.417 1161.08 337.29C1160.88 337.157 1160.72 337.01 1160.6 336.85C1160.48 336.69 1160.39 336.52 1160.34 336.34C1160.29 336.16 1160.27 335.977 1160.27 335.79C1160.27 335.43 1160.34 335.12 1160.49 334.86C1160.64 334.593 1160.84 334.373 1161.09 334.2C1161.33 334.027 1161.61 333.9 1161.93 333.82C1162.24 333.733 1162.56 333.69 1162.88 333.69C1163.25 333.69 1163.6 333.74 1163.93 333.84C1164.26 333.933 1164.55 334.077 1164.8 334.27C1165.05 334.463 1165.25 334.703 1165.4 334.99C1165.54 335.27 1165.62 335.597 1165.62 335.97H1164.37C1164.33 335.51 1164.18 335.187 1163.9 335C1163.62 334.807 1163.26 334.71 1162.83 334.71C1162.68 334.71 1162.53 334.727 1162.38 334.76C1162.22 334.787 1162.08 334.837 1161.96 334.91C1161.83 334.977 1161.72 335.07 1161.64 335.19C1161.56 335.31 1161.52 335.46 1161.52 335.64C1161.52 335.893 1161.59 336.093 1161.75 336.24C1161.91 336.38 1162.11 336.487 1162.37 336.56C1162.39 336.567 1162.5 336.597 1162.68 336.65C1162.86 336.697 1163.07 336.75 1163.3 336.81C1163.52 336.87 1163.74 336.93 1163.96 336.99C1164.18 337.043 1164.33 337.083 1164.43 337.11C1164.66 337.183 1164.86 337.283 1165.04 337.41C1165.21 337.537 1165.35 337.683 1165.47 337.85C1165.59 338.01 1165.67 338.183 1165.73 338.37C1165.79 338.557 1165.82 338.743 1165.82 338.93C1165.82 339.33 1165.73 339.673 1165.57 339.96C1165.41 340.24 1165.19 340.47 1164.93 340.65C1164.66 340.83 1164.36 340.96 1164.02 341.04C1163.68 341.127 1163.33 341.17 1162.98 341.17C1162.57 341.17 1162.19 341.12 1161.83 341.02C1161.47 340.92 1161.15 340.767 1160.89 340.56C1160.62 340.353 1160.41 340.09 1160.25 339.77C1160.09 339.443 1160 339.06 1160 338.62H1161.25Z" fill="white"/>
<rect x="1132" y="357" width="108" height="20" rx="2" fill="#222222"/>
<path d="M1171.83 363.86H1174.98C1175.49 363.86 1175.9 363.933 1176.22 364.08C1176.54 364.227 1176.79 364.41 1176.96 364.63C1177.13 364.85 1177.25 365.09 1177.31 365.35C1177.38 365.61 1177.41 365.85 1177.41 366.07C1177.41 366.29 1177.38 366.53 1177.31 366.79C1177.25 367.043 1177.13 367.28 1176.96 367.5C1176.79 367.72 1176.54 367.903 1176.22 368.05C1175.9 368.19 1175.49 368.26 1174.98 368.26H1173.08V371H1171.83V363.86ZM1173.08 367.24H1174.91C1175.05 367.24 1175.19 367.22 1175.34 367.18C1175.49 367.14 1175.62 367.077 1175.74 366.99C1175.87 366.897 1175.97 366.777 1176.04 366.63C1176.12 366.477 1176.16 366.287 1176.16 366.06C1176.16 365.827 1176.13 365.633 1176.06 365.48C1175.99 365.327 1175.9 365.207 1175.79 365.12C1175.68 365.027 1175.55 364.963 1175.4 364.93C1175.25 364.897 1175.1 364.88 1174.93 364.88H1173.08V367.24ZM1179 363.86H1182.41C1183.19 363.86 1183.78 364.03 1184.18 364.37C1184.57 364.71 1184.77 365.183 1184.77 365.79C1184.77 366.13 1184.72 366.413 1184.62 366.64C1184.52 366.86 1184.4 367.04 1184.27 367.18C1184.13 367.313 1184 367.41 1183.87 367.47C1183.74 367.53 1183.65 367.57 1183.59 367.59V367.61C1183.69 367.623 1183.81 367.657 1183.93 367.71C1184.05 367.763 1184.17 367.85 1184.28 367.97C1184.38 368.083 1184.47 368.233 1184.54 368.42C1184.61 368.607 1184.65 368.84 1184.65 369.12C1184.65 369.54 1184.68 369.923 1184.74 370.27C1184.8 370.61 1184.9 370.853 1185.04 371H1183.7C1183.6 370.847 1183.55 370.677 1183.53 370.49C1183.51 370.303 1183.51 370.123 1183.51 369.95C1183.51 369.623 1183.49 369.343 1183.45 369.11C1183.41 368.87 1183.33 368.673 1183.23 368.52C1183.12 368.36 1182.97 368.243 1182.79 368.17C1182.61 368.097 1182.37 368.06 1182.09 368.06H1180.25V371H1179V363.86ZM1180.25 367.11H1182.3C1182.7 367.11 1183 367.017 1183.21 366.83C1183.41 366.637 1183.52 366.35 1183.52 365.97C1183.52 365.743 1183.48 365.56 1183.42 365.42C1183.35 365.273 1183.26 365.16 1183.14 365.08C1183.02 365 1182.89 364.947 1182.74 364.92C1182.59 364.893 1182.44 364.88 1182.28 364.88H1180.25V367.11ZM1189.58 364.71C1189.2 364.71 1188.87 364.787 1188.59 364.94C1188.32 365.093 1188.09 365.3 1187.92 365.56C1187.75 365.813 1187.62 366.103 1187.53 366.43C1187.45 366.757 1187.41 367.09 1187.41 367.43C1187.41 367.77 1187.45 368.103 1187.53 368.43C1187.62 368.757 1187.75 369.05 1187.92 369.31C1188.09 369.563 1188.32 369.767 1188.59 369.92C1188.87 370.073 1189.2 370.15 1189.58 370.15C1189.96 370.15 1190.29 370.073 1190.56 369.92C1190.84 369.767 1191.07 369.563 1191.24 369.31C1191.41 369.05 1191.54 368.757 1191.62 368.43C1191.71 368.103 1191.75 367.77 1191.75 367.43C1191.75 367.09 1191.71 366.757 1191.62 366.43C1191.54 366.103 1191.41 365.813 1191.24 365.56C1191.07 365.3 1190.84 365.093 1190.56 364.94C1190.29 364.787 1189.96 364.71 1189.58 364.71ZM1189.58 363.69C1190.11 363.69 1190.59 363.79 1191.01 363.99C1191.44 364.19 1191.8 364.46 1192.09 364.8C1192.38 365.14 1192.61 365.537 1192.76 365.99C1192.92 366.443 1193 366.923 1193 367.43C1193 367.943 1192.92 368.427 1192.76 368.88C1192.61 369.333 1192.38 369.73 1192.09 370.07C1191.8 370.41 1191.44 370.68 1191.01 370.88C1190.59 371.073 1190.11 371.17 1189.58 371.17C1189.05 371.17 1188.57 371.073 1188.14 370.88C1187.72 370.68 1187.36 370.41 1187.07 370.07C1186.78 369.73 1186.55 369.333 1186.39 368.88C1186.24 368.427 1186.16 367.943 1186.16 367.43C1186.16 366.923 1186.24 366.443 1186.39 365.99C1186.55 365.537 1186.78 365.14 1187.07 364.8C1187.36 364.46 1187.72 364.19 1188.14 363.99C1188.57 363.79 1189.05 363.69 1189.58 363.69ZM1194.64 363.86H1197.6C1198.14 363.86 1198.62 363.953 1199.02 364.14C1199.42 364.327 1199.74 364.583 1200 364.91C1200.25 365.23 1200.44 365.607 1200.56 366.04C1200.68 366.473 1200.75 366.937 1200.75 367.43C1200.75 367.923 1200.68 368.387 1200.56 368.82C1200.44 369.253 1200.25 369.633 1200 369.96C1199.74 370.28 1199.42 370.533 1199.02 370.72C1198.62 370.907 1198.14 371 1197.6 371H1194.64V363.86ZM1195.89 369.98H1197.12C1197.6 369.98 1198 369.917 1198.31 369.79C1198.62 369.657 1198.86 369.477 1199.04 369.25C1199.22 369.017 1199.34 368.747 1199.4 368.44C1199.46 368.127 1199.5 367.79 1199.5 367.43C1199.5 367.07 1199.46 366.737 1199.4 366.43C1199.34 366.117 1199.22 365.847 1199.04 365.62C1198.86 365.387 1198.62 365.207 1198.31 365.08C1198 364.947 1197.6 364.88 1197.12 364.88H1195.89V369.98Z" fill="white"/>
<path d="M160 105H695V106H160V105Z" fill="white"/>
<path d="M162.56 96V88.91H161.91C161.863 89.1767 161.777 89.3967 161.65 89.57C161.523 89.7433 161.367 89.88 161.18 89.98C161 90.08 160.797 90.15 160.57 90.19C160.343 90.2233 160.11 90.24 159.87 90.24V90.92H161.71V96H162.56ZM175.57 96L177.48 88.86H176.53L175.08 94.8H175.06L173.48 88.86H172.45L170.85 94.8H170.83L169.43 88.86H168.46L170.29 96H171.28L172.93 90H172.95L174.58 96H175.57ZM178.878 88.86V96H183.838V95.2H179.828V92.73H183.538V91.93H179.828V89.66H183.808V88.86H178.878ZM185.491 88.86V96H190.451V95.2H186.441V92.73H190.151V91.93H186.441V89.66H190.421V88.86H185.491ZM192.104 88.86V96H193.054V93.5L194.244 92.39L196.824 96H198.024L194.894 91.74L197.904 88.86H196.674L193.054 92.42V88.86H192.104Z" fill="white"/>
<path d="M168.69 124.86V132H170.16V126.99H170.18L171.93 132H173.14L174.89 126.94H174.91V132H176.38V124.86H174.17L172.59 129.77H172.57L170.9 124.86H168.69ZM179.522 128.46C179.522 128.147 179.556 127.843 179.622 127.55C179.696 127.257 179.809 126.997 179.962 126.77C180.116 126.537 180.316 126.353 180.562 126.22C180.809 126.08 181.109 126.01 181.462 126.01C181.816 126.01 182.116 126.08 182.362 126.22C182.609 126.353 182.809 126.537 182.962 126.77C183.116 126.997 183.226 127.257 183.292 127.55C183.366 127.843 183.402 128.147 183.402 128.46C183.402 128.76 183.366 129.053 183.292 129.34C183.226 129.62 183.116 129.873 182.962 130.1C182.809 130.327 182.609 130.51 182.362 130.65C182.116 130.783 181.816 130.85 181.462 130.85C181.109 130.85 180.809 130.783 180.562 130.65C180.316 130.51 180.116 130.327 179.962 130.1C179.809 129.873 179.696 129.62 179.622 129.34C179.556 129.053 179.522 128.76 179.522 128.46ZM177.952 128.46C177.952 128.98 178.032 129.467 178.192 129.92C178.352 130.367 178.582 130.757 178.882 131.09C179.182 131.423 179.549 131.687 179.982 131.88C180.422 132.067 180.916 132.16 181.462 132.16C182.016 132.16 182.509 132.067 182.942 131.88C183.376 131.687 183.742 131.423 184.042 131.09C184.342 130.757 184.572 130.367 184.732 129.92C184.892 129.467 184.972 128.98 184.972 128.46C184.972 127.927 184.892 127.433 184.732 126.98C184.572 126.52 184.342 126.12 184.042 125.78C183.742 125.44 183.376 125.173 182.942 124.98C182.509 124.787 182.016 124.69 181.462 124.69C180.916 124.69 180.422 124.787 179.982 124.98C179.549 125.173 179.182 125.44 178.882 125.78C178.582 126.12 178.352 126.52 178.192 126.98C178.032 127.433 177.952 127.927 177.952 128.46Z" fill="#888888"/>
<path d="M280.27 126.18V132H281.84V126.18H283.98V124.86H278.13V126.18H280.27ZM291.363 129.3V124.86H289.793V129.3C289.793 129.833 289.687 130.227 289.473 130.48C289.26 130.727 288.873 130.85 288.313 130.85C287.993 130.85 287.737 130.807 287.543 130.72C287.357 130.627 287.21 130.51 287.103 130.37C286.997 130.223 286.927 130.057 286.893 129.87C286.86 129.683 286.843 129.493 286.843 129.3V124.86H285.273V129.3C285.273 130.273 285.537 130.993 286.063 131.46C286.597 131.927 287.347 132.16 288.313 132.16C289.267 132.16 290.013 131.927 290.553 131.46C291.093 130.987 291.363 130.267 291.363 129.3Z" fill="#888888"/>
<path d="M391.49 132L393.41 124.86H391.87L390.7 129.78H390.68L389.46 124.86H387.99L386.75 129.72H386.73L385.6 124.86H384.03L385.92 132H387.51L388.7 127.14H388.72L389.93 132H391.49ZM394.633 124.86V132H400.053V130.68H396.203V128.93H399.663V127.71H396.203V126.18H399.973V124.86H394.633Z" fill="#888888"/>
<path d="M494.27 126.18V132H495.84V126.18H497.98V124.86H492.13V126.18H494.27ZM499.303 124.86V132H500.873V128.92H503.763V132H505.333V124.86H503.763V127.6H500.873V124.86H499.303Z" fill="#888888"/>
<path d="M600.69 124.86V132H602.26V129.05H605.25V127.83H602.26V126.18H605.71V124.86H600.69ZM608.688 128.09V126.08H610.408C610.768 126.08 611.038 126.16 611.218 126.32C611.398 126.473 611.488 126.723 611.488 127.07C611.488 127.43 611.398 127.69 611.218 127.85C611.038 128.01 610.768 128.09 610.408 128.09H608.688ZM607.118 124.86V132H608.688V129.21H610.258C610.651 129.21 610.934 129.297 611.108 129.47C611.281 129.643 611.394 129.917 611.448 130.29C611.488 130.577 611.518 130.877 611.538 131.19C611.558 131.503 611.611 131.773 611.698 132H613.268C613.194 131.9 613.138 131.78 613.098 131.64C613.064 131.493 613.038 131.34 613.018 131.18C613.004 131.02 612.994 130.863 612.988 130.71C612.981 130.557 612.974 130.423 612.968 130.31C612.954 130.13 612.928 129.95 612.888 129.77C612.854 129.59 612.798 129.427 612.718 129.28C612.638 129.127 612.534 128.997 612.408 128.89C612.281 128.777 612.121 128.693 611.928 128.64V128.62C612.328 128.46 612.614 128.227 612.788 127.92C612.968 127.613 613.058 127.25 613.058 126.83C613.058 126.557 613.008 126.303 612.908 126.07C612.814 125.83 612.674 125.62 612.488 125.44C612.308 125.26 612.088 125.12 611.828 125.02C611.574 124.913 611.288 124.86 610.968 124.86H607.118Z" fill="#888888"/>
<path d="M708.69 124.86V132H710.16V126.99H710.18L711.93 132H713.14L714.89 126.94H714.91V132H716.38V124.86H714.17L712.59 129.77H712.57L710.9 124.86H708.69ZM719.522 128.46C719.522 128.147 719.556 127.843 719.622 127.55C719.696 127.257 719.809 126.997 719.962 126.77C720.116 126.537 720.316 126.353 720.562 126.22C720.809 126.08 721.109 126.01 721.462 126.01C721.816 126.01 722.116 126.08 722.362 126.22C722.609 126.353 722.809 126.537 722.962 126.77C723.116 126.997 723.226 127.257 723.292 127.55C723.366 127.843 723.402 128.147 723.402 128.46C723.402 128.76 723.366 129.053 723.292 129.34C723.226 129.62 723.116 129.873 722.962 130.1C722.809 130.327 722.609 130.51 722.362 130.65C722.116 130.783 721.816 130.85 721.462 130.85C721.109 130.85 720.809 130.783 720.562 130.65C720.316 130.51 720.116 130.327 719.962 130.1C719.809 129.873 719.696 129.62 719.622 129.34C719.556 129.053 719.522 128.76 719.522 128.46ZM717.952 128.46C717.952 128.98 718.032 129.467 718.192 129.92C718.352 130.367 718.582 130.757 718.882 131.09C719.182 131.423 719.549 131.687 719.982 131.88C720.422 132.067 720.916 132.16 721.462 132.16C722.016 132.16 722.509 132.067 722.942 131.88C723.376 131.687 723.742 131.423 724.042 131.09C724.342 130.757 724.572 130.367 724.732 129.92C724.892 129.467 724.972 128.98 724.972 128.46C724.972 127.927 724.892 127.433 724.732 126.98C724.572 126.52 724.342 126.12 724.042 125.78C723.742 125.44 723.376 125.173 722.942 124.98C722.509 124.787 722.016 124.69 721.462 124.69C720.916 124.69 720.422 124.787 719.982 124.98C719.549 125.173 719.182 125.44 718.882 125.78C718.582 126.12 718.352 126.52 718.192 126.98C718.032 127.433 717.952 127.927 717.952 128.46Z" fill="#888888"/>
<path d="M818.27 126.18V132H819.84V126.18H821.98V124.86H816.13V126.18H818.27ZM829.363 129.3V124.86H827.793V129.3C827.793 129.833 827.687 130.227 827.473 130.48C827.26 130.727 826.873 130.85 826.313 130.85C825.993 130.85 825.737 130.807 825.543 130.72C825.357 130.627 825.21 130.51 825.103 130.37C824.997 130.223 824.927 130.057 824.893 129.87C824.86 129.683 824.843 129.493 824.843 129.3V124.86H823.273V129.3C823.273 130.273 823.537 130.993 824.063 131.46C824.597 131.927 825.347 132.16 826.313 132.16C827.267 132.16 828.013 131.927 828.553 131.46C829.093 130.987 829.363 130.267 829.363 129.3Z" fill="#888888"/>
<path d="M931.49 132L933.41 124.86H931.87L930.7 129.78H930.68L929.46 124.86H927.99L926.75 129.72H926.73L925.6 124.86H924.03L925.92 132H927.51L928.7 127.14H928.72L929.93 132H931.49ZM934.633 124.86V132H940.053V130.68H936.203V128.93H939.663V127.71H936.203V126.18H939.973V124.86H934.633Z" fill="#888888"/>
<path d="M1034.27 126.18V132H1035.84V126.18H1037.98V124.86H1032.13V126.18H1034.27ZM1039.3 124.86V132H1040.87V128.92H1043.76V132H1045.33V124.86H1043.76V127.6H1040.87V124.86H1039.3Z" fill="#888888"/>
<path d="M1140.69 124.86V132H1142.26V129.05H1145.25V127.83H1142.26V126.18H1145.71V124.86H1140.69ZM1148.69 128.09V126.08H1150.41C1150.77 126.08 1151.04 126.16 1151.22 126.32C1151.4 126.473 1151.49 126.723 1151.49 127.07C1151.49 127.43 1151.4 127.69 1151.22 127.85C1151.04 128.01 1150.77 128.09 1150.41 128.09H1148.69ZM1147.12 124.86V132H1148.69V129.21H1150.26C1150.65 129.21 1150.93 129.297 1151.11 129.47C1151.28 129.643 1151.39 129.917 1151.45 130.29C1151.49 130.577 1151.52 130.877 1151.54 131.19C1151.56 131.503 1151.61 131.773 1151.7 132H1153.27C1153.19 131.9 1153.14 131.78 1153.1 131.64C1153.06 131.493 1153.04 131.34 1153.02 131.18C1153 131.02 1152.99 130.863 1152.99 130.71C1152.98 130.557 1152.97 130.423 1152.97 130.31C1152.95 130.13 1152.93 129.95 1152.89 129.77C1152.85 129.59 1152.8 129.427 1152.72 129.28C1152.64 129.127 1152.53 128.997 1152.41 128.89C1152.28 128.777 1152.12 128.693 1151.93 128.64V128.62C1152.33 128.46 1152.61 128.227 1152.79 127.92C1152.97 127.613 1153.06 127.25 1153.06 126.83C1153.06 126.557 1153.01 126.303 1152.91 126.07C1152.81 125.83 1152.67 125.62 1152.49 125.44C1152.31 125.26 1152.09 125.12 1151.83 125.02C1151.57 124.913 1151.29 124.86 1150.97 124.86H1147.12Z" fill="#888888"/>
<path d="M700.44 91.42H701.29C701.283 91.2067 701.303 90.9967 701.35 90.79C701.403 90.5767 701.487 90.3867 701.6 90.22C701.713 90.0533 701.857 89.92 702.03 89.82C702.21 89.7133 702.423 89.66 702.67 89.66C702.857 89.66 703.033 89.69 703.2 89.75C703.367 89.81 703.51 89.8967 703.63 90.01C703.757 90.1233 703.857 90.26 703.93 90.42C704.003 90.5733 704.04 90.7467 704.04 90.94C704.04 91.1867 704 91.4033 703.92 91.59C703.847 91.7767 703.733 91.95 703.58 92.11C703.433 92.27 703.247 92.43 703.02 92.59C702.793 92.7433 702.53 92.9133 702.23 93.1C701.983 93.2467 701.747 93.4033 701.52 93.57C701.293 93.7367 701.09 93.93 700.91 94.15C700.73 94.37 700.58 94.63 700.46 94.93C700.347 95.2233 700.273 95.58 700.24 96H704.87V95.25H701.23C701.27 95.03 701.353 94.8367 701.48 94.67C701.613 94.4967 701.77 94.3367 701.95 94.19C702.137 94.0433 702.34 93.9067 702.56 93.78C702.78 93.6467 703 93.5133 703.22 93.38C703.44 93.24 703.653 93.0933 703.86 92.94C704.067 92.7867 704.25 92.6167 704.41 92.43C704.57 92.2367 704.697 92.02 704.79 91.78C704.89 91.54 704.94 91.2633 704.94 90.95C704.94 90.6167 704.88 90.3233 704.76 90.07C704.647 89.8167 704.49 89.6067 704.29 89.44C704.09 89.2667 703.853 89.1367 703.58 89.05C703.313 88.9567 703.027 88.91 702.72 88.91C702.347 88.91 702.013 88.9733 701.72 89.1C701.427 89.2267 701.18 89.4033 700.98 89.63C700.787 89.85 700.643 90.1133 700.55 90.42C700.457 90.7267 700.42 91.06 700.44 91.42ZM716.57 96L718.48 88.86H717.53L716.08 94.8H716.06L714.48 88.86H713.45L711.85 94.8H711.83L710.43 88.86H709.46L711.29 96H712.28L713.93 90H713.95L715.58 96H716.57ZM719.878 88.86V96H724.838V95.2H720.828V92.73H724.538V91.93H720.828V89.66H724.808V88.86H719.878ZM726.491 88.86V96H731.451V95.2H727.441V92.73H731.151V91.93H727.441V89.66H731.421V88.86H726.491ZM733.104 88.86V96H734.054V93.5L735.244 92.39L737.824 96H739.024L735.894 91.74L738.904 88.86H737.674L734.054 92.42V88.86H733.104Z" fill="white"/>
<path d="M699 105H1240V106H699V105Z" fill="white"/>
</g>
</svg>
